<svg id="Livello_23" data-name="Livello 23" xmlns="http://www.w3.org/2000/svg" width="203.14544" height="203.14544" viewBox="0 0 203.14544 203.14544">
  <title>amico</title>
  <path d="M150.67838,177.32247l.41064-4.18735a16.10223,16.10223,0,0,1,11.88981-13.99055l30.93536-8.22091a4.14366,4.14366,0,0,0,3.07916-3.95587l.10189-8.651a4.14366,4.14366,0,0,0-3.60744-4.15766l-6.50321-.84825a6.12752,6.12752,0,0,1-5.31865-5.62889L179.20426,94.039s-2.48019-22.64735,30.05869-22.64732c30.91608,0,18.85322,35.08793,16.23472,45.03824-1.65337,6.28279.57619,16.29622,2.44436,22.82425a12.67477,12.67477,0,0,0,8.10652,8.49673l33.13508,11.30155a16.10223,16.10223,0,0,1,10.563,11.94281l0,.00008a59.034,59.034,0,0,1-57.783,71.1227h0C187.08292,242.11808,147.27407,212.03666,150.67838,177.32247Z" transform="translate(-114.17401 -55.18218)" style="fill: #3a3a3a"/>
  <path d="M283.58,113.26992H264.8867V94.57663a5.101,5.101,0,0,0-10.202,0v18.69329H235.99a5.101,5.101,0,0,0,0,10.202h18.69472v18.694a5.101,5.101,0,1,0,10.202,0V123.472H283.58a5.101,5.101,0,0,0,0-10.202Z" transform="translate(-114.17401 -55.18218)" style="fill: #3a3a3a"/>
  <rect width="203.14544" height="203.14544" style="fill: none"/>
</svg>
