<svg id="Livello_11" data-name="Livello 11" xmlns="http://www.w3.org/2000/svg" width="243.52003mm" height="156.37314mm" viewBox="0 0 690.29299 443.26245">
  <title>amiche</title>
  <path d="M595.45808,227.25145s3.455-27.79282,20.63567-28.217,230.22113,6.90385,230.22113,6.90385,9.163.2414,9.163,7.62415.157,89.54039-13.17186,97.76591-57.34515,22.83486-57.34515,22.83486L593.45438,286.2366Z" transform="translate(-165.185 -18.44706)" style="fill: #be1622"/>
  <polygon points="510.248 176.588 532.641 128.889 562.174 119.645 596.711 165.381 576.913 229.184 519.824 225.781 510.248 176.588" style="fill: #fff"/>
  <path d="M686.37244,197.289s7.72843-15.84271,7.72843-34.69255V138.09171L663.18714,150.5326s-29.21725,24.50479-22.05431,49.76358,32.42172,26.95527,32.42172,26.95527Z" transform="translate(-165.185 -18.44706)" style="fill: #f4c43c"/>
  <path d="M693.9082,167.8298s-4.22786-14.35453-7.24147-18.453,17.84054-22.53545,17.84054-22.53545l1.95831,12.77137S695.3746,161.81236,693.9082,167.8298Z" transform="translate(-165.185 -18.44706)" style="fill: #ecb019"/>
  <path d="M668.38036,124.386s25.43315,4.10779,32.92127,16.9841c.85464,1.4696-.99208,26.4688-.82482,28.64323s2.509,9.28313,3.76343,10.20309,12.348,7.69413,14.53719,7.69413S736.35488,157.134,736.35488,157.134l8.19592-53.69164-30.86015-5.01791Z" transform="translate(-165.185 -18.44706)" style="fill: #d5ad95"/>
  <path d="M689.95794,44.06133s-2.91817,2.54118-2.94106,4.80749,6.52422-2.79282,6.52422-2.79282Z" transform="translate(-165.185 -18.44706)" style="fill: #453a3b"/>
  <path d="M183.12328,442.79812s-20.59241-39.71393-17.65063-44.61688,45.10718-49.02954,53.4422-51.481S277.26,336.97933,277.26,336.97933l36.67173,76.89136s-32.97654,25.02755-42.42371,28.69352S189.49712,444.269,183.12328,442.79812Z" transform="translate(-165.185 -18.44706)" style="fill: #be1622"/>
  <path d="M271.508,442.56422s-9.79629-24.20259-5.76252-31.69387,21.89758-29.96511,21.89758-29.96511,193.916-20.909,205.5559-20.45466,76.33,2.73358,76.33,2.73358,35.412-1.75713,37.93406,8.82422S593.45438,451.208,593.45438,451.208l-146.77259,9.22Z" transform="translate(-165.185 -18.44706)" style="fill: #e24453"/>
  <path d="M555.02407,457.54677s-12.40432-32.27012-7.64279-39.18515S569.529,363.18415,569.529,363.18415L803.04419,356.412s45.29224,48.73659,49.326,64.56314,2.305,36.57163-10.94879,39.45289S564.30921,460.88813,555.02407,457.54677Z" transform="translate(-165.185 -18.44706)" style="fill: #be1622"/>
  <path d="M434.52128,216.83056s63.92335,3.60034,75.14719,5.20207,21.3253-4.76059,48.63665-7.93961,30.64094-6.172,35.14926-1.30838,0,73.45194,0,73.45194-15.32047,76.94755-23.92542,76.94755-101.76284-3.74128-101.76284-3.74128l-109.99366-40.78L391.444,232.856Z" transform="translate(-165.185 -18.44706)" style="fill: #e24453"/>
  <path d="M716.92781,223.523V186.474s3.83265-10.00746,4.04557-13.41426-.63877-8.72991,9.58161-19.802,39.17765-2.67682,39.17765-2.67682a75.619,75.619,0,0,1,26.53763,17.604c12.52987,12.82126-38.17239,96.15945-38.17239,96.15945l-41.17007-24.76834Z" transform="translate(-165.185 -18.44706)" style="fill: #f4c43c"/>
  <path d="M591.23575,300.11283s-51.73667-22.59043-74.31375-18.88927-23.723,20.35638-23.723,20.35638L516.55188,327.956l166.5892,47.15915,51.0726-48.76975Z" transform="translate(-165.185 -18.44706)" style="fill: #e2cebf"/>
  <path d="M828.97717,319.55392s-45.20282,70.58847-64.44756,73.44467S706.42139,375.233,706.42139,375.233l49.62286-31.47209Z" transform="translate(-165.185 -18.44706)" style="fill: #e2cebf"/>
  <path d="M734.55021,379.67441s17.08,5.18162,21.494,4.44139,17.36814,0,16.62791,7.77244-76.94742,1.7339-76.94742,1.7339l2.184-21.35005Z" transform="translate(-165.185 -18.44706)" style="fill: #e8c0a8"/>
  <path d="M652.831,216.97856s13.19531-22.63252,15.54932-25.67271,8.77219-10.51256,10.799-8.63427,3.71579,7.95867,3.71579,7.95867,11.823,18.09551,16.55214,19.85732,40.19806,37.90628,48.643,40.94647S767.007,266.635,769.70943,266.635s14.95172-.67048,15.24523,1.86045-9.84045,7.26012-12.88064,8.94911-17.66188,22.63252-35.47923,24.99711-39.8499,5.74258-53.69966,13.84975a113.27422,113.27422,0,0,0-24.32151,19.93013,148.84456,148.84456,0,0,1-33.11453,2.92773c-19.25937-.3253-16.49428,7.31933-18.93406,3.57834s-2.92773-26.18695-4.0663-28.13877-8.13259-13.33745-11.223-14.476-5.04221-6.66873-8.13259-6.83138-10.89767-1.30121-10.40972-6.66873,37.60443-16.5726,61.417-18.77735S652.831,216.97856,652.831,216.97856Z" transform="translate(-165.185 -18.44706)" style="fill: #ed6986"/>
  <path d="M262.13839,349.95886s-12.3483-18.42123-1.21459-41.90324,23.45215-28.88792,53.933-30.9421,138.17417-11.29688,149.71275,12.96029l5.07942,9.33108c-19.813,28.03006-140.50584,76.66758-140.50584,76.66758l-47.57131-4.04862Z" transform="translate(-165.185 -18.44706)" style="fill: #ededed"/>
  <path d="M283.736,283.05873a85.0155,85.0155,0,0,1,38.3321-5.688c22.01,1.73113-1.73113-44.5147-1.73113-44.5147S297.33773,272.17736,283.736,283.05873Z" transform="translate(-165.185 -18.44706)" style="fill: #3c3c3b"/>
  <path d="M499.28541,197.35979s-33.90092-43.421-35.62781-43.56487-8.20986-3.74159-9.42951-6.188,0-29.0693,0-29.0693,3.5293,3.59769,4.39275,3.74159,3.8855.71954,4.31722.43172.28781-2.87815,1.00735-3.02206a7.51079,7.51079,0,0,1,4.17331.57563c1.15126.71954,6.76365,4.74894,7.19537,6.90756s3.59769,14.10293,5.9002,16.98107,43.62723,46.98283,48.271,52.65715c4.15374,5.07549,11.342,11.656,12.02616,15.84278.2553,1.56226-1.35765,7.79085-15.99729,7.79084C508.84135,220.44388,499.28541,197.35979,499.28541,197.35979Z" transform="translate(-165.185 -18.44706)" style="fill: #f0d5d1"/>
  <path d="M467.012,140.20017c-.284-1.30774-1.55371-14.11218-2.1853-20.58307a5.47457,5.47457,0,0,0-.88123.07178c-.71954.14386-.57562,2.73419-1.00739,3.022s-3.45374-.28784-4.3172-.4317c0,0,2.20886,18.74927,4.53955,21.57117C463.90784,144.75534,467.39355,141.95767,467.012,140.20017Z" transform="translate(-165.185 -18.44706)" style="fill: #f2c8bf"/>
  <path d="M468.11871,120.2645a7.51046,7.51046,0,0,0-4.17328-.57562c-.22888.04578-.37006.3399-.47052.72791l-1.1217,11.89838s4.07538,1.17694,5.03864-4.60315c.21606-1.29657-.093-.80917.622-1.86615S468.11871,120.2645,468.11871,120.2645Z" transform="translate(-165.185 -18.44706)" style="fill: #f2c8bf"/>
  <path d="M458.62085,122.27921c-.54718-.09119-2.163-1.56775-3.27466-2.63843l1.08386,18.74255s4.01868-.4754,3.65527-5.9696a61.89957,61.89957,0,0,1,.50128-9.80762C459.78345,122.4866,458.99713,122.34189,458.62085,122.27921Z" transform="translate(-165.185 -18.44706)" style="fill: #f2c8bf"/>
  <path d="M422.64578,177.57231s70.16887,15.806,76.63963,19.78747c17.57062,10.81112,23.79277,19.30674,26.22881,23.0841,0,0-21.93982.32992-39.92058-.65984s-59.71591-3.46418-59.71591-3.46418Z" transform="translate(-165.185 -18.44706)" style="fill: #575756"/>
  <path d="M442.86384,86.47487s6.556-3.43082,10.41665,5.57732,3.86063,13.82912,3.21719,42.41094,2.45962,42.952-9.81589,50.02978-16.35062,2.35928-17.20854-1.28688-5.59894-16.46657-8.16146-16.49075-16.5037-13.54262-16.5037-13.54262Z" transform="translate(-165.185 -18.44706)" style="fill: #61493d"/>
  <path d="M362.37263,147.17552s8.847-7.23843,11.36032-12.06406,13.12841-9.80617,13.12841-9.80617l15.52372,7.896-7.4395,28.45106-28.35053,2.31228Z" transform="translate(-165.185 -18.44706)" style="fill: #61493d"/>
  <path d="M383.00745,156.569a14.548,14.548,0,0,0,6.7449-10.55724c.87977-7.33142,1.173-21.8965,1.173-21.8965l29.03241-7.012,14.56348,35.99391a49.12947,49.12947,0,0,0-8.50284,8.16394c-3.71458,4.69211-10.8505,10.655-11.046,19.35494s-4.88761,13.2943-4.88761,13.2943Z" transform="translate(-165.185 -18.44706)" style="fill: #f0d5d1"/>
  <path d="M334.80092,159.21417s6.9303-11.91066,14.45086-12.48917,22.067,3.10479,22.067,3.10479l34.887,26.321,2.28749,8.56273,5.88382-4.92392,12.79868-3.43195s14.70973,57.91444,7.34554,68.906-14.07342,10.79876-14.07342,10.79876l-6.0708,9.06324L345.58791,268.211l-15.234-34.90312Z" transform="translate(-165.185 -18.44706)" style="fill: #3c3c3b"/>
  <path d="M439.28125,148.94532a3.34217,3.34217,0,0,0,3.298,2.55c2.70214-.051,3.72181-1.07066,4.58854-4.23165s2.32749-5.4153,2.96582-7.08477c.66279-1.73345.83-3.55041-2.42357-4.41136-1.58418-.41921-3.56251-1.43406-5.18519-.94276-2.74858.83219-4.68708,4.48543-4.68708,4.48543Z" transform="translate(-165.185 -18.44706)" style="fill: #f0d5d1"/>
  <path d="M393.40237,127.30764s-4.53865,3.47074-6.541-2.00235,12.17642-16.41365,12.17642-16.41365,11.33433-21.78709,14.60869-23.04646,10.32683-5.16342,18.89054-4.7856,10.32683,5.41529,10.32683,5.41529a24.295,24.295,0,0,1,10.075,13.60119c2.77061,9.44527.25187,15.61618,0,17.25336s-2.51874,10.075-2.89655,11.964-.80188,5.7931-3.36046,8.56371-8.1019,14.50213-12.16052,15.24006-17.06464-4.15086-19.55515-5.35-19.77247-8.742-20.47756-10.7C393.44973,134.16251,393.40237,127.30764,393.40237,127.30764Z" transform="translate(-165.185 -18.44706)" style="fill: #f2c8bf"/>
  <path d="M374.12262,134.46313s20.059-36.7673,25.93813-41.41587,12.44177-9.26057,21.46547-12.01331,19.94-1.28186,21.33763,5.44092A18.157,18.157,0,0,0,426.8584,83.0665c-9.844,2.32429-17.0749,10.87911-19.73423,14.72813s-20.45654,28.20286-20.45654,28.20286l-6.90653,8.46564Z" transform="translate(-165.185 -18.44706)" style="fill: #61493d"/>
  <path d="M371.31879,149.82978l5.76258-5.1948s6.22981,10.95738,10.74643,12.98207,18.378,18.5337,18.378,18.5337-3.73789-4.36087-12.45963,0-16.5676,6.95665-22.42733,3.58214C368.68842,178.21811,371.31879,149.82978,371.31879,149.82978Z" transform="translate(-165.185 -18.44706)" style="fill: #575756"/>
  <path d="M414.37705,179.78956s14.00061,3.83629,14.00061,4.27379v.98437a13.288,13.288,0,0,0,2.43472,3.10995c.9559.6088-4.99951-18.65981-9.50059-21.44239Z" transform="translate(-165.185 -18.44706)" style="fill: #575756"/>
  <path d="M301.993,388.22242s-5.28263,3.47049-16.78639-.52555-27.48792-9.68737-27.48792-9.68737L254.086,365.29483l43.71426-10.89829,9.39862,13.91862" transform="translate(-165.185 -18.44706)" style="fill: #f2c8bf"/>
  <path d="M287.12074,338.85054s-7.86854-4.54456-14.67014-1.28745-12.80838,9.62422-18.36462,11.44436-31.5675,10.18143-37.41431,13.69729c-5.75719,3.462-12.53037,10.018-12.5191,18.975.00216,1.71807,10.491,1.417,10.491,1.417a104.72017,104.72017,0,0,0,31.00914,2.4031c17.34763-1.22936,15.57637.20205,47.5889-16.80645S287.12074,338.85054,287.12074,338.85054Z" transform="translate(-165.185 -18.44706)" style="fill: #f2c8bf"/>
  <path d="M301.993,388.22242s-5.88065-10.05618,5.20582-19.90727c0,0,37.80722,1.68907,60.28595-8.70931s62.4788-27.74907,84.77612-31.65207,32.43844-.24555,36.92713,8.39933,7.14866,27.92963-2.82621,35.41078-138.12558,13.01738-159.36609,14.88458C313.52817,387.83237,301.993,388.22242,301.993,388.22242Z" transform="translate(-165.185 -18.44706)" style="fill: #f6f6f6"/>
  <path d="M294.8602,369.6752s-20.2758-10.39508-7.73946-30.82467c0,0,11.14543-2.18548,39.08031-15.37407,27.98347-13.21153,64.53894-39.002,102.148-37.14472s37.14472,2.78585,42.02,14.85789-2.32154,20.098-18.108,26.76414-51.30614,24.07768-65.69971,25.0063-23.4476.46431-35.05532,3.48232S310.26219,369.72633,294.8602,369.6752Z" transform="translate(-165.185 -18.44706)" style="fill: #f6f6f6"/>
  <path d="M690.395,45.37547S675.757,56.39328,674.81264,68.98506s-1.73137,11.17521-5.50891,13.69357-9.44384,5.8237-8.65685,8.97165,4.40712,4.87932,4.40712,4.87932-2.4826,4.89278-2.67575,5.35151c-.23365.55488.47219,2.99055.47219,2.99055-1.98375,1.24223.011,4.95129.011,4.95129.3704,1.10676-.741,4.99544-.91846,6.77014s-.769,5.56074,2.30712,6.44809,17.14024,6.86906,31.76378,1.75593S731.09,109.35545,731.09,109.35545l3.98824-59.82361Z" transform="translate(-165.185 -18.44706)" style="fill: #e8c0a8"/>
  <path d="M643.01863,272.06981s-20.66184-4.20241-17.15984-27.49076,14.70843-41.32369,19.08594-70.21525c4.06517-26.83015,6.31788-31.42964,5.88939-44.37577a7.27321,7.27321,0,0,1,.99419-4.54591,11.29736,11.29736,0,0,1,7.64975-3.25823c3.34941.02732,25.67076,5.62906,25.53016,7.01694s-.4908,9.0923-1.36631,9.9678a13.92994,13.92994,0,0,0-1.41244,1.639s-.16511,2.972-1.23831,3.88-5.53113,6.93456-6.02646,6.93456-3.71494-1.40342-2.64174-5.366a14.08324,14.08324,0,0,1,3.46728-6.19157s-1.32087-5.366-1.73364-5.11836a12.29193,12.29193,0,0,0-2.72429,7.26477c-.16511,3.88-1.56853,16.01552-3.71494,19.23514s-4.29282,7.595-5.03581,19.56536.7115,54.83667-.944,67.41816S654.36344,274.68564,643.01863,272.06981Z" transform="translate(-165.185 -18.44706)" style="fill: #d5ad95"/>
  <path d="M730.555,153.25778c-7.356,7.96893-8.97614,12.95959-9.386,16.40137l.00476.00708s13.46667,6.60333,17.01367,11.21442,13.83325-25.893,13.83325-25.893l-5.55341-7.4046C740.223,147.84464,734.19806,149.31113,730.555,153.25778Z" transform="translate(-165.185 -18.44706)" style="fill: #ecb019"/>
  <path d="M590.11642,376.09457s-24.44645,1.77-27.21926,1.01377-18.90551,3.174-14.87233,9.90542,5.54562,7.99179,5.79769,12.277,2.01659,2.52073,2.01659,2.52073l64.61736-6.982,19.071-17.72115Z" transform="translate(-165.185 -18.44706)" style="fill: #e8c0a8"/>
  <path d="M493.199,301.57993s5.21723-13.08288,27.42419-8.57708,62.5496,23.70554,75.13355,31.87124,40.37608,30.79558,44.24558,32.4347,13.1224,2.74947,20.52472,3.11958,28.12882,3.70116,28.12882,3.70116l-17.39545,22.57708-48.943.30715s-27.671-10.30028-40.99517-13.26121-60.699-22.94334-73.65308-35.15909S488.35186,324.157,493.199,301.57993Z" transform="translate(-165.185 -18.44706)" style="fill: #e7d6c7"/>
  <path d="M434.52128,216.83056s67.70754,2.90306,79.41119,1.62629,48.73627-4.89436,48.73627-4.89436l3.18536,16.38522-59.15662,10.63968Z" transform="translate(-165.185 -18.44706)" style="fill: #e24453"/>
  <path d="M489.3687,287.01218c-2.07239,0-12.3728-3.444-12.43658-5.99493-.09418-3.76685.76532-14.03009,1.321-18.968.54785-4.86761,12.43433-15.63708,12.43433-23.54987s-3.57953-12.5285-3.57953-12.5285H462.49229s-3.57959,4.61578-3.57959,12.5285,11.88647,18.68225,12.43433,23.54987c.55579,4.93787,1.41522,15.20111,1.321,18.968-.06378,2.5509-10.3642,5.99493-12.43658,5.99493-1.98425,0,3.63983,3.30939,14.56866,3.101C485.72892,290.32157,491.35295,287.01218,489.3687,287.01218Z" transform="translate(-165.185 -18.44706)" style="fill: #ededed;opacity: 0.52"/>
  <path d="M460.91,235.92954a22.693,22.693,0,0,0-.15736,2.68115c0,7.05248,10.59414,16.65106,11.08243,20.98945,0,0-.11261,1.53131,2.965,1.53131s3.19025-1.53131,3.19025-1.53131c.48829-4.33839,11.08243-13.937,11.08243-20.98945q0-.718-.04209-1.395Z" transform="translate(-165.185 -18.44706)" style="fill: #8b4292"/>
  <path d="M313.93172,274.32416s4.25878,13.9983,7.60286,14.30231,7.93071,4.34013,42.60738-2.56518,90.97-3.8623,90.97-3.8623,13.21016-3.49336,14.71131-3.49336,8.29427-.09725,9.07656-.33194,6.8059-3.28561,6.8059-3.28561.78229-3.59852-1.95572-3.36384-6.10184,1.25166-6.88413,1.25166-7.82287-.31291-7.82287-.31291-.5476-.64783-.07823-.94974,8.91807-.5366,9.46568-.69306,4.53727-2.0981,4.69372-2.80919a20.92249,20.92249,0,0,0,.31291-3.52733,11.64448,11.64448,0,0,0-.93874-1.56457s3.019-.74972,3.31082-1.33356.92871-4.0338.55717-4.45841-1.06153-1.43306-3.8215-1.38-13.05679.47769-13.05679.47769l-.15923-.95537a29.333,29.333,0,0,1,5.04225-1.27383c1.22076,0,13.10986-.31846,14.06524-.74307s4.24611-1.16768,3.8215-3.8215-1.59229-2.22921-5.46687-2.49459a127.06408,127.06408,0,0,0-14.91446,0c-3.503.31846-9.18221.05308-11.03988.42461s-7.643,3.76842-7.643,3.76842a8.60939,8.60939,0,0,0-3.503-.21231c-1.27383.37153-14.70215,7.74915-17.99289,8.333s-51.00639.79615-56.52633.31846-21.85166-3.659-25.04783-4.13856-18.02457-5.5828-18.02457-5.5828L316.6928,253.8025Z" transform="translate(-165.185 -18.44706)" style="fill: #f0d5d1"/>
  <path d="M313.93172,274.32416s6.43077-11.366,6.13166-15.55349.29911,2.09374,9.87048-.74776a70.98152,70.98152,0,0,1,20.18963-2.39284s4.93524-43.819,7.17853-46.95957,9.27227-17.79678,7.77674-23.62934-12.86154-35.444-24.3771-30.65832-24.97532,41.02236-25.57353,56.10474S303.91169,263.25725,313.93172,274.32416Z" transform="translate(-165.185 -18.44706)" style="fill: #575756"/>
  <path d="M207.50341,381.67979s35.79283,4.72045,50.56689,5.78662,9.97178,14.705,9.97178,14.705l-35.55985,6.00914-40.66675-15.84023v-13.251S200.19253,378.48244,207.50341,381.67979Z" transform="translate(-165.185 -18.44706)" style="fill: #be1622"/>
  <path d="M775.51873,133.19027a12.33321,12.33321,0,0,0,.40771,2.03853c.30578,1.01926-1.9366,4.99439-1.9366,4.99439s.61156,5.09632-1.83467,6.72714c0,0-2.51663,5.76556-6.159,5.76556s1.14476,3.33021,2.80986,3.33021-3.74648.20814-5.61972-1.76917,1.14476,4.475-.62441,4.99531a15.23654,15.23654,0,0,0-1.457-3.018c-.93662-1.457-5.20345-3.64241-5.20345-3.64241s-7.7011,15.71441-12.90455,11.23944-8.74179-4.05869-10.19875-4.78717-6.24414-2.80986-6.036-4.579-3.95462,4.579-3.33021,6.97262c0,0-2.60172-4.16276-.52034-6.97262s.977-4.32493-1.2089-2.97013c-2.15406,1.33508-11.076,4.6505-7.30089,6.41967,0,0-4.49883-.43154-1.8971-3.2414s7.80517-4.16276,7.597-5.72379-3.32983-3.07014-3.17392-5.80189,1.84964-4.81314,1.84964-5.95789-5.04466-.69794-5.14873,2.16644c0,0-2.177-5.20214,3.2991-5.38839,2.52027-.08572-3.38243-4.271-4.00684-8.43377a16.51239,16.51239,0,0,1,3.12207-13.11268c3.33021-4.26683-1.87324-6.036-1.97731-10.82317s3.018-8.63772,2.49765-10.511-3.18421-8.30757-5.24068-7.35662c-4.10108,1.89641-7.66387,4.7549-5.58249,8.0851s-5.82786,3.12207-5.09938,4.6831,3.13829,4.84861,1.88946,6.61778c0,0,.71226-.47771-1.161-2.97537s-3.74648-4.37089-2.70579-5.20345,5.41158-1.3529,5.09938-2.39359-2.8032-6.31972-.71818-8.04212c2.97837-2.46039,7.35188-4.57183,5.16644-6.96542s-5.59829-4.79359-7.05525-.839a4.99106,4.99106,0,0,1,.31748-3.094c.72848-1.3529,3.43427-.52034,3.43427-1.561V71.02178s-2.633-8.27265-6.53482-.9025c0,0-.85407-5.65385,3.9331-4.92536s-2.28952-8.94993-5.09938-7.28482-2.80986,6.036-.83255,6.45227-3.33021.93662-2.70579,2.18545a9.45847,9.45847,0,0,0,1.561,2.18545,3.29062,3.29062,0,0,1-2.78746-2.70579c0-1.24883,1.85083-1.561,1.85083-1.561s-1.561-2.70579-.31221-4.99531a8.1351,8.1351,0,0,1,3.84513-4.05869c1.77459-.93662,1.04611-3.018-1.76375-3.018s-5.26115-.461-6.21075-2.26251c-1.03044-1.95489-2.19571-3.7196.10689-6.0696,0,0-.43624-3.75693,1.61058-6.26344a10.1721,10.1721,0,0,1,5.16455-3.18086s-1.18656-.53287.65233-6.36377c1.30569-4.14019.53077-4.13331.53077-4.13331s.39153-1.14246.34094,4.6418S703.55922,31.14,703.55922,31.14a25.94936,25.94936,0,0,1,8.86921-3.05252c4.2418-.38562,7.10408-6.4445,6.349-9.64045,0,0,4.40886,4.64114,3.252,7.53328,0,0,2.593-3.2277,8.90837-4.9856,7.80579-2.17275,10.13949.24142,10.13949.24142s-11.21587-.50984-10.059,2.57511,12.3556,1.1117,14.19345,4.27452c1.97081,3.39162,3.272-6.74659,3.272-6.74659,1.953,3.8133,2.50652,4.43461,2.31371,9.83326s6.494,9.92556,10.92563,9.16148c5.32359-.91786,14.718,2.59986,19.731,8.38413,0,0-15.66625-8.36128-13.111-3.34259,1.40725,2.76395,5.97708,3.34259,6.74831,6.62035s4.55414,3.08971,5.612,6.05162a19.41856,19.41856,0,0,1,1.39633,6.43157c.3354,3.27775-2.47582,4.34409,1.05782,4.95062,3.723.639,3.2581,4.52749-.12694,7.74327-1.38313,1.314,4.35414,3.63813,4.35414,3.63813s-5.2151.90068-6.55785-3.12759c-.6668-2.0004,3.57145-1.77793.10089-3.12759s-5.43854-.545-5.50148-4.59812c0,0-1.13981,2.67726.20486,4.61023s.72439,3.45554,1.91886,4.43562c2.70329,2.21808,3.235,6.86165.97041,10.45833,0,0-.80369.91656.62384,1.048s1.62723,2.12627.48521,4.50548-4.00267,2.36226-3.81233,3.40911,1.94082,2.96788.9011,5.46323c-.80277,1.92665-4.22822,6.03042-4.22822,6.03042s4.12257,4.53469,2.98055,6.72357-2.426,4.5748-2.426,4.5748-4.22822,1.01611-4.22822,2.634a13.67575,13.67575,0,0,0,.76247,3.743Z" transform="translate(-165.185 -18.44706)" style="fill: #453a3b"/>
  <path d="M669.70409,336.14342c-2.06772.139-12.5759-2.60658-12.8106-5.14746-.34656-3.75205-.17724-14.04983.04611-19.01385.2202-4.8934,11.35774-16.43571,10.82712-24.33068s-4.41161-12.26027-4.41161-12.26027l-10.81082.72659-2.93862.1975-10.81082.72659s-3.262,4.84544-2.73139,12.74034,13.11252,17.84311,13.98555,22.663c.88566,4.88948,2.4314,15.072,2.59,18.83667.10742,2.54944-9.93886,6.67645-12.00658,6.81542-1.97979.13306,3.85356,3.05786,14.74382,2.117C666.29443,339.68943,671.68387,336.01036,669.70409,336.14342Z" transform="translate(-165.185 -18.44706)" style="fill: #ededed;opacity: 0.52"/>
  <path d="M637.88394,287.08416a22.693,22.693,0,0,0,.02279,2.68567c.47293,7.0366,11.68688,15.90315,12.465,20.199,0,0-.00967,1.53541,3.061,1.329s3.08038-1.74179,3.08038-1.74179c.19626-4.36137,10.12289-14.64877,9.65-21.68537q-.04815-.71637-.13554-1.389Z" transform="translate(-165.185 -18.44706)" style="fill: #8b4292"/>
  <path d="M716.16458,305.588s-26.84184,6.73294-31.1557,3.77115-5.79475-11.63558-9.81431-13.11648-22.62681.55745-23.68155.93415-17.32794,6.10245-18.08133,6.85584-2.63686,2.33551-2.33551,2.86288.60271,3.57,3.23957,3.21646-2.7122.39981-2.33551,2.50929.97941,3.76694,2.18483,3.76694a32.70979,32.70979,0,0,0,9.64338-1.28076,23.672,23.672,0,0,1,7.98592-1.05474l16.31646-.4586s.67871.74041-.1234.92551-20.7314,2.52972-22.459,3.085-14.56134,2.03612-15.91875,2.96163-2.71483,1.66592-2.09782,3.45523,2.40632,2.40632,4.19564,2.34462,15.67195-1.66592,17.21446-1.66592,10.5508-.74041,12.27842-.92551a37.66392,37.66392,0,0,1,4.75095,0s-6.66366,1.851-8.63808,2.03612-17.58467.92551-19.06548,1.41911-2.34462,1.851-1.78932,2.96163.80211,2.34462,3.14673,2.15952,22.52071.74041,25.42064.3702a15.48318,15.48318,0,0,1,5.61475.08829c.67871.22021,7.03387,4.23075,8.88488,4.16905s13.96875-1.26592,20.18606-3.29331,25.81537-1.48675,25.81537-1.48675,31.10644-33.9241,30.48829-39.19571c0,0-4.66507,4.99466-18.84133,8.54653C727.21961,304.04843,719.32058,304.83516,716.16458,305.588Z" transform="translate(-165.185 -18.44706)" style="fill: #d5ad95"/>
  <path d="M757.59462,298.89933s1.29487-36.7,4.30172-40.9602,26.16806-18.38289,26.16806-18.38289L808.013,275.89662l1.5179,35.42035Z" transform="translate(-165.185 -18.44706)" style="fill: #d5ad95"/>
  <path d="M761.89634,257.93913s3.68237-59.6931,12.07054-75.26755S796.27026,168.185,796.27026,168.185s8.28877,7.79372,8.78219,31.478,2.96053,76.23365,2.96053,76.23365S778.4793,259.2251,761.89634,257.93913Z" transform="translate(-165.185 -18.44706)" style="fill: #ecb019"/>
  <path d="M620.45647,394.82949s-.74435-7.07137,1.86089-7.81573,11.31162-5.21048,14.77416-7.07137,25.79318-7.81573,35.46979-10.04879,81.89992-87.62559,108.6758-90.81128,28.65766-3.72177,36.47338,2.60524,26.79677,24.19153,2.23306,50.61613-46.15,41.68387-85.6008,51.36048-62.5258,16.748-62.5258,16.748Z" transform="translate(-165.185 -18.44706)" style="fill: #e5d9d1"/>
  <path d="M555.83911,401.81153s12.681-6.13454,35.41-7.29025,99.006-.38524,107.28857-.77047,74.736-1.54095,89.9529,0,13.09807,16.75782,13.09807,16.75782l-243.29813,7.08645Z" transform="translate(-165.185 -18.44706)" style="fill: #be1622"/>
</svg>
