<svg id="Livello_2" data-name="Livello 2" xmlns="http://www.w3.org/2000/svg" xmlns:xlink="http://www.w3.org/1999/xlink" width="146.6811mm" height="232.2764mm" viewBox="0 0 415.7891 658.4213"><defs><linearGradient id="Sfumatura_senza_nome_255" x1="315.764" y1="372.5399" x2="405.7881" y2="58.1702" gradientUnits="userSpaceOnUse"><stop offset="0" stop-color="#b8b8b8"/><stop offset="0.1474" stop-color="#b8b8b8" stop-opacity="0.9782"/><stop offset="0.2951" stop-color="#b8b8b8" stop-opacity="0.9127"/><stop offset="0.4431" stop-color="#b8b8b8" stop-opacity="0.8034"/><stop offset="0.5913" stop-color="#b8b8b8" stop-opacity="0.6501"/><stop offset="0.7397" stop-color="#b8b8b8" stop-opacity="0.4525"/><stop offset="0.8863" stop-color="#b8b8b8" stop-opacity="0.2143"/><stop offset="1" stop-color="#b8b8b8" stop-opacity="0"/></linearGradient></defs><title>astronauta</title><path d="M299.4615,437.0628l-1.2269-17.2706s2.2775-17.9692,7.9615-20.0351a18.0149,18.0149,0,0,0,8.4548-6.3736s7.8074-15.06,7.01-23.1148-.913-35.6546,6.2832-41.4854,30.2773,0,30.2773,0l13.709,13.7095,55.2963,38.5-15.6644,72.2011-24.7238,9.4309-80.6423-19.5329Z" transform="translate(-72.0804 -63.2079)" style="fill:#e2e2e1"/><path d="M395.8589,459.2317s-6.246-7.4745-3.2-38.2265,4.6315-29.36,4.6315-29.36l11.1432,9.7776,1.5618,52.3655Z" transform="translate(-72.0804 -63.2079)" style="fill:#d1d0d1"/><path d="M397.4255,458.5264s-6.246-7.4745-3.2-38.2265,4.6315-29.36,4.6315-29.36L410,400.7172l1.5618,52.3655Z" transform="translate(-72.0804 -63.2079)" style="fill:#ffd72f"/><polygon points="332.933 373.744 328.828 334.909 351.381 296.681 366.796 303.003 371.902 327.732 350.633 353.669 332.933 373.744" style="fill:#d1d0d1"/><path d="M392.0173,344.39,432.89,362.9117l-3.8485,4.69-.004.1309s-3.0343,3.655-7.0764,8.4979l-2.2487,2.74-.0171-.028,0,.0005.9365,1.57-.0011.0025a5.1376,5.1376,0,0,1,.8765,2.8482c0,3.2134-3.0588,5.8183-6.8321,5.8183a7.7878,7.7878,0,0,1-3.0549-.6126l-1.0515,1.2468c-5.3355,6.3326-8.295,9.7653-8.7635,10.0581-.83.519-1.8112,1.49-3.3263,1.49a4.5592,4.5592,0,0,1-1.9606-.49c-2.715-1.286-15.2429-9.5445-16.121-10.2341-.5423-.4259-7.21-10.4337-7.21-10.4337-.4839-.38-1.4342-5.0533-2.3053-9.2652-5.7059-3.6957-13.8015-8.8993-14.1189-9.126-.2995-.2139.4687-3.44,1.4731-5.737.8328-1.9051,4.088-2.6176,5.7394-2.7131,2.7122-.1569,2.0441-1.0243,2.3374-1.4047l3.2376,2.2127h2.8463s6.8664-.862,5.9747-1.0564l-2.5771-8.7281h16.224m.2592-1.2H374.1878l.4547,1.54,2.2408,7.5893c-1.1336.1939-2.95.4521-4.5627.6554h-2.4l-2.9314-2.0034-.9356-.6394-.6919.8975a1.7127,1.7127,0,0,0-.3225.7751,4.7851,4.7851,0,0,1-1.1338.1642c-2.0081.1161-5.6938.9693-6.77,3.43a25.84,25.84,0,0,0-1.29,3.8394c-.46,1.8386-.5443,2.81.2191,3.3548.1794.1281,1.75,1.1424,5.8617,3.7946,2.4841,1.6023,5.3806,3.4707,7.8811,5.0894,1.414,6.8407,1.855,8.6,2.4374,9.282,6.72,10.0844,7.24,10.4919,7.4106,10.6262.8329.6541,13.4119,8.9838,16.3484,10.3748a5.2553,5.2553,0,0,0,5.9659-.7448c.1646-.1168.32-.2282.4708-.3223.4512-.282,1.3642-1.1861,9.0452-10.3025l.5106-.6054a9.039,9.039,0,0,0,2.6781.398c4.4289,0,8.0321-3.1484,8.0321-7.0183a6.2944,6.2944,0,0,0-.7309-2.9269l.002-.0046-.0457-.0771q-.1185-.2184-.2544-.43l-.016-.027-.4876-.8172,1.7144-2.0894c4.0369-4.8365,7.0721-8.4926,7.0721-8.4926l.2635-.3174.0042-.1347,3.5893-4.3743.9919-1.2088-1.4242-.6454-40.8723-18.5222-.2361-.107Z" transform="translate(-72.0804 -63.2079)" style="fill:#d1cfd1"/><path d="M299.4615,442.9807s-67.097-49.39-74.3021-53.0822c-7.6771-3.9342-20.997-9.0952-22.9687-9.0082-6.6873.2951-26.2566,8.7395-26.2566,8.7395-5.7039,6.5754-37.12,67.22-41.0685,68.8967s-13.1629,9.0117-13.6016,13.0224-3.9489,25.9488-2.1938,26.8263,21.0606,6.5814,29.3971,4.8264,19.7443-6.0083,23.2544-9.3662,31.4272-24.1532,32.1039-45.7626l2.9971.2736c4.8264.2243,33.977,26.5625,37.7335,26.9521,11.0228,1.143,14.3709,1.1386,16.18,4.21s8.0216,15.3567,12.3744,17.55,42.9638,19.6934,46.0351,13.5762,31.7793-52.1086,31.7793-52.1086Z" transform="translate(-72.0804 -63.2079)" style="fill:#e2e2e1"/><path d="M327.5,471.5488s-34.3728-.5986-44.869,0-21.8946,7.96-21.8946,7.96c1.8092,3.0714,8.0217,15.3567,12.3744,17.55s42.9638,19.6935,46.0352,13.5762c1.5287-3.0448,9.4087-15.968,16.9388-28.1818Z" transform="translate(-72.0804 -63.2079)" style="fill:#d1d0d1"/><path d="M290.7062,478.9816c4.7418-2.2461,32.0515-9.0376,32.0515-9.0376l26.4606,51.7184s-18.1676,23.6636-22.202,26.1291-51.1031,27.6049-51.3273,29.7161,4.0345,69.8,1.7931,71.8177-12.5516,10.0861-13.2241,10.0861-34.0687-17.4826-34.517-20.8447-1.3448-79.5684.8965-82.93,14.3447-13.6723,14.793-14.793S282.189,483.0161,290.7062,478.9816Z" transform="translate(-72.0804 -63.2079)" style="fill:#e2e2e1"/><path d="M132.1288,529.8381s3.3121-3.5188.0874-12.178c-1.4194-3.8115,13.746-14.1575,13.746-14.1575s-5.3486-10.704-6.657-8.9811c-2.3552,3.1012-18.6545,5.6559-18.6545,5.6559l3.5721,24.9057Z" transform="translate(-72.0804 -63.2079)" style="fill:#e0e0e0"/><path d="M338.0136,513.8465c1.0146,1.8447-3.88,20.248-6.4416,29.5106,6.7917-7.5576,17.6464-21.6947,17.6464-21.6947L331.57,487.1677l-7.8211-5.1325S336.652,511.3709,338.0136,513.8465Z" transform="translate(-72.0804 -63.2079)" style="fill:#d8d8d8"/><path d="M471.0092,364.0449c-6.703,13.042-20.2822,26.8946-20.2822,26.8946-1.71,1.6338,6.5908,3.9612-15.0065-4.0914-4.0989-1.5283-4.1527-20.6176-2.8881-23.928,2.761-7.2274,9.5754-3.5038,9.5754-3.5038,22.5237-24.5384-58.7258-28.1749-60.5225-31.9546,0,0-4.816-6.6147.0463-17.5571s5.8749-18.2113,18.3068-25.8609,32.6647-17.4015,53.0385-1.8174C493.9433,313.3323,478.3,349.8595,471.0092,364.0449Z" transform="translate(-72.0804 -63.2079)" style="fill:#cfcece"/><path d="M471.0092,364.0449c-6.48,12.2329-11.4133,13.0225-11.4133,13.0225-8.9315.4183,1.7819-6.9866-15.0069-13.476-4.08-1.5772-13.0211,2.6392-11.7565-.6712,2.761-7.2274,9.5754-3.5038,9.5754-3.5038,22.5237-24.5384-58.7258-28.1749-60.5225-31.9546,0,0-4.816-6.6147.0463-17.5571s5.8749-18.2113,18.3068-25.8609,35.4146-13.6833,53.0385-1.8174C495.7469,310.8208,478.4754,349.9511,471.0092,364.0449Z" transform="translate(-72.0804 -63.2079)" style="fill:#d1d0d1"/><path d="M299.4615,442.9807s-1.0383-5.4793,0-6.029,22.1991,8.1026,22.1991,8.1026l-3.8467,8.5739S300.6729,444.714,299.4615,442.9807Z" transform="translate(-72.0804 -63.2079)" style="fill:#9a9a9a"/><path d="M359.9581,574.64a32.4153,32.4153,0,0,0,.9479,4.6914c.4258.9462,4.7964,1.7872,4.0067-5.9191" transform="translate(-72.0804 -63.2079)" style="fill:#ffd72f"/><path d="M350.31,574.8371s1.3233,7.2856,1.9856,7.5694,4.3526-.8516,4.3052-3.2171-.3785-4.731-.3312-5.0622-3.359-1.5612-3.359-1.5612Z" transform="translate(-72.0804 -63.2079)" style="fill:#ffd72f"/><path d="M338.7375,571.9893s1.1153,8.0045,1.7776,8.241,4.3052.9845,4.873-4.1205-2.2236-5.1523-2.2236-5.1523Z" transform="translate(-72.0804 -63.2079)" style="fill:#ffd72f"/><path d="M333.77,568.34s-1.8727,6.392-1.5089,6.4648,3.7106,2.8144,6.9844-4.34,1.8915-5.7724,1.8915-5.7724Z" transform="translate(-72.0804 -63.2079)" style="fill:#ffd72f"/><path d="M332.5457,417.9256s7.7012-10.158,2.64-16.5524,6.3749,7.1041,11.1249,6.0158,12.8748-.9932,14.3748,1.3967-2.3452,18.6769,2.8321,26.3393,24.1194,24.0226,33.9078,23.4013l-26.66,13.0224Z" transform="translate(-72.0804 -63.2079)" style="fill:#d8d6d6"/><path d="M365.6337,541.5683l-5.88-3.3925s-.2619-10.2369,2.94-14.3317,39.8085-56.3633,41.8465-56.5591a34.4667,34.4667,0,0,0,4.99-.7278c.1871-.1544-.9614-6.8213.0081-7.8986,0,0-10.3345-10.7233.0268-47.7536,3.3378-11.9291,22.6323-24.0447,26.1555-24.0569L428.98,367.7412l15.6091,5.1736s22.6982,31.5018,26.42,39.1646c2.8125,5.79-3.5443,12.9184-5.8826,14.0928s-7.0079,39.5612-7.2327,42.9c-.4438,6.5922,2.4611,13.1686-2.1683,18.3635-2.5943,2.9112-65.4564,63.2224-69.5668,63.81S366.8349,547.1581,365.6337,541.5683Z" transform="translate(-72.0804 -63.2079)" style="fill:#e2e2e1"/><path d="M437.3069,474.9862c.1053.105.1974.2064.3058.3122C437.6127,475.2984,437.5037,475.18,437.3069,474.9862Z" transform="translate(-72.0804 -63.2079)" style="fill:#d1d0d1"/><path d="M392.4735,488.14,411.42,467.5253s2.8616-1.5418,11.12.1729c8.7177,1.81,13.569,6.1089,14.767,7.2881-7.0845-7.0607-7.273-12.2513-7.0842-18.6075.1917-6.4506,8.6674-7.5216,8.6674-7.5216-4.4708-2.1715-14.3884.3683-17.7713,1.6913-3.5228,1.3777-11.5806,8.11-11.5806,8.11-.97,1.0773.179,7.7441-.0081,7.8986a34.4653,34.4653,0,0,1-4.99.7278c-.7838.0753-6.6827,7.8558-13.8264,17.6335Z" transform="translate(-72.0804 -63.2079)" style="fill:#d1d0d1"/><path d="M302.31,401.3732s7.0285-7.0578,12.3409-8.1009c0,0-3.62,4.21-3.8752,8.1009s-5.7971,1.12-9.1841,3.2749S302.31,401.3732,302.31,401.3732Z" transform="translate(-72.0804 -63.2079)" style="fill:#ededed"/><path d="M332.0425,345.5181s4.3551,2.3218,8.8125-17.967l28.1816,8.8323,10.6567-20.36s-17.6963,1.8444-19.89,2.4592-22.965-6.737-22.965-6.737L327.9439,338.57Z" transform="translate(-72.0804 -63.2079)" style="fill:#d7d7d7"/><path d="M349.4944,351.3908l32.4015-24.8828s-1.99-4.5,0-7.3581,11.5272-12.1751,11.5272-12.1751l35.891,49.8306-.3342,10.9359s-26.09,31.4275-27.2327,32.1419-2.572,2.2863-5.287,1-15.2428-9.5445-16.1209-10.2341c-.5423-.4259-7.21-10.4336-7.21-10.4336-.5856-2.7968,3.4928-5.4228,3.2291-5.6338-.69-.5517-19.1706-12.4126-19.6533-12.7574S349.4944,351.3908,349.4944,351.3908Z" transform="translate(-72.0804 -63.2079)" style="fill:#e8e8e8"/><path d="M460.06,336.56c-9.3252,14.1027-13.2021,18.7523-13.2021,18.7523-2.9256.4714-14.129,3.0551-35.7263-4.9975-20.5467-7.661-27.496-12.3375-31.4115-20.5743,0,0-4.816-6.6147.0463-17.5571s12.5045-23.07,24.9364-30.72,27.14-10.2827,37.7763-4.3777c16.3321,9.067,20.7567,17.8326,22.6471,27.903C468.3212,322.0075,460.06,336.56,460.06,336.56Z" transform="translate(-72.0804 -63.2079)" style="fill:#d1d0d1"/><path d="M428.98,358.02s10.2722-17.0858,11.3969-17.1774,11.12-2.14,12.9318-2.2578a4.1227,4.1227,0,0,1,2.67.5449l-11.4077,15.627-4.4648,2.58Z" transform="translate(-72.0804 -63.2079)" style="fill:#e2e2e1"/><path d="M430.7115,358.575s10.2722-17.0858,11.3969-17.1774,11.12-2.14,12.9318-2.2578,2.2123.8016,2.2123.8016l-10.95,15.37-4.4648,2.58Z" transform="translate(-72.0804 -63.2079)" style="fill:#d1d0d1"/><path d="M349.1919,349.1478l25.4937-33.0734s-1.99-4.5,0-7.3581,11.5272-12.1751,11.5272-12.1751L421.77,357.3076s-26.09,31.4275-27.2327,32.1419-2.572,2.2863-5.287,1-15.2428-9.5445-16.1209-10.2341-3.2917-15.5158-3.9812-16.0674-19.1706-12.4126-19.6533-12.7574A1.9032,1.9032,0,0,1,349.1919,349.1478Z" transform="translate(-72.0804 -63.2079)" style="fill:#e2e1e1"/><path d="M419.4081,379.2246a5.4157,5.4157,0,0,1,2.0411,4.1479c0,3.2133-3.0588,5.8183-6.8321,5.8183a7.7879,7.7879,0,0,1-3.0549-.6126" transform="translate(-72.0804 -63.2079)" style="fill:#e8e8e8"/><polygon points="341.168 305.037 348.493 317.314 346.116 322.682 338.668 310.722 341.168 305.037" style="fill:#e8e8e8"/><path d="M412.9028,367.9318a5.4157,5.4157,0,0,1,2.0411,4.1479c0,3.2133-3.0588,5.8183-6.8321,5.8183a7.7879,7.7879,0,0,1-3.0549-.6126" transform="translate(-72.0804 -63.2079)" style="fill:#e2e1e1"/><path d="M455.1428,431.97c.8355,3.7126.6221,9.9241-4.5257,19.1238a2.5761,2.5761,0,0,0,.5,3.1644c2.2279,2.031,6,6.955,6.5465,17.2909h0c.2255-6.7073,5.2572-44.2685,7.4634-45.3766a2.8834,2.8834,0,0,0,.8262-.7386,13.0825,13.0825,0,0,1-8.2118,3.3609A2.6061,2.6061,0,0,0,455.1428,431.97Z" transform="translate(-72.0804 -63.2079)" style="fill:#d1d0d1"/><path d="M366.1173,529.666c1.0755-2.629,26.3562-41.5261,26.3562-41.5261l-.4242-5.0457-.0009.0009c-11.5934,15.804-27.3068,38.13-29.3549,40.7491-3.202,4.0948-2.94,14.3317-2.94,14.3317l6.3639-2.1765S365.0419,532.295,366.1173,529.666Z" transform="translate(-72.0804 -63.2079)" style="fill:#d1d0d1"/><path d="M418.24,514.2158c-2.5623.488-37.7028,29.2838-39.8991,30.0159s-4.7586-1.3422-4.7586-1.3422l-4.1868,3.0686c5.098,3.4075,13.8055,5.71,16.7635,5.2877,2.754-.3934,32.27-28.15,52.2333-47.0014C432.0795,510.2053,420.8018,513.7278,418.24,514.2158Z" transform="translate(-72.0804 -63.2079)" style="fill:#d1d0d1"/><ellipse cx="386.3339" cy="354.0689" rx="7.1961" ry="7.8599" style="fill:#d1d0d1;stroke:#c4c4c4;stroke-miterlimit:10;stroke-width:0.25px"/><path d="M464.3448,412.8286c-1.1929.1586-1.8028,6.1518-1.8028,6.1518l-2.1032,2.1031c-.8123.14-2.8062,3.3261-3.1848,3.9418a6.6194,6.6194,0,0,0,1.16.1113c3.9744,0,7.1962-3.519,7.1962-7.86A8.3307,8.3307,0,0,0,464.3448,412.8286Z" transform="translate(-72.0804 -63.2079)" style="fill:#9c9b9b;opacity:0.28"/><circle cx="388.3584" cy="355.7725" r="2.1032" style="fill:#848484;stroke:#bcbcbb;stroke-miterlimit:10;stroke-width:0.25px"/><path d="M465.1266,372.5411c-1.71,1.6338-5.9467,10.4521-27.544,2.3994-4.0989-1.5283-13.5321-6.8856-13.5312-8.7635.0008-1.7227,4.8639-9.6651,6.6195-10.7184,1.3412-.8047,16.1875-.1468,16.1875-.1468" transform="translate(-72.0804 -63.2079)" style="fill:#d1d0d1"/><path d="M288.1316,376.0252s27.2712-2.0712,32.4454-4.8429,21.8041-51.7377,16.2608-59.4367c0,0-10.1628-1.54-13.55-1.2318S300.19,323.5585,300.19,323.5585s-30.18,1.43-35.1077,3.2773-33.26,20.7691-34.1838,22.703,2.4637,28.4538,12.9344,28.7442S288.1316,376.0252,288.1316,376.0252Z" transform="translate(-72.0804 -63.2079)" style="fill:#e2e2e1"/><path d="M265.0825,326.8358c-4.9274,1.8478-33.26,20.7691-34.1838,22.703-.2847.5959-.1581,3.5295.457,7.3074l45.8124-3.2918s.8141-7.2033-1.9-9.1649a36.95,36.95,0,0,1-4.749-4.1325l20.199-16.17C281.4227,324.6654,268.2,325.6666,265.0825,326.8358Z" transform="translate(-72.0804 -63.2079)" style="fill:#d1d0d1"/><path d="M317.6361,350.27c-.071.1288-.1384.25-.1981.3569C317.5037,350.5074,317.5734,350.39,317.6361,350.27Z" transform="translate(-72.0804 -63.2079)" style="fill:#d1d0d1"/><path d="M316.5252,323.5584c.0972,1.26,6.584,16.1965,1.1108,26.7112,2.7947-5.07,13.9984-27.0544,5.6514-39.7559-3.3876.308-23.0972,13.0447-23.0972,13.0447S316.4246,322.2551,316.5252,323.5584Z" transform="translate(-72.0804 -63.2079)" style="fill:#d1d0d1"/><path d="M317.4379,350.6265c-.1326.24-.2639.481-.41.716C317.0282,351.3425,317.1793,351.0881,317.4379,350.6265Z" transform="translate(-72.0804 -63.2079)" style="fill:#d1d0d1"/><path d="M315.3908,365.5557c-1.4283-1.896-35.27-5.6668-35.27-5.6668l-4.0825,16.9826c6.9188-.4568,12.0929-.8463,12.0929-.8463s27.2713-2.0712,32.4454-4.8429a3.92,3.92,0,0,0,1.0837-1.0248C317.8085,369.6984,317.3085,368.1014,315.3908,365.5557Z" transform="translate(-72.0804 -63.2079)" style="fill:#d1d0d1"/><path d="M321.6607,370.1575s9.6024,2.1357,10.885,3.4228c0,0-4.5093,7.1617-3.2222,12.31s3.2222,11.7581,3.2222,11.7581-7.6077-9.0641-10.885-8.4576-7.01,4.0816-7.01,4.0816Z" transform="translate(-72.0804 -63.2079)" style="fill:#e8e8e8"/><path d="M307.0029,414.8564l7.648,3.1465s1.6908,4.395,0,8.3875a17.0773,17.0773,0,0,1-3.8752,5.8922L296.99,428.5451Z" transform="translate(-72.0804 -63.2079)" style="fill:#ffd72f"/><path d="M228.2394,382.2465c1.917,1.7739,43.87,33.0524,44.8712,34.8553s5.8194,12.6474,9.52,13.9358,17.2232-.6334,19.2276-1.7787,7.731-3.15,6.4425-13.0281a52.8887,52.8887,0,0,0-4.617-16.3166c-.3362-.8556-18.6567-23.8841-19.33-26.0693s-6.7244-23.5328-10.59-26.39-11.7664-5.3789-14.96-5.0427-32.124,6.2826-33.45,8.9037C224.516,352.97,226.5624,380.6947,228.2394,382.2465Z" transform="translate(-72.0804 -63.2079)" style="fill:#e2e2e1"/><path d="M308.3008,416.1552a52.89,52.89,0,0,0-4.617-16.3166c-.2449-.6234-10.0316-13.011-15.5891-20.5378l-.112-.0762s5.7677,20.3046,7.1266,28.1644c0,0,10.0673,10.6287,12.1107,17.1686C308.2257,422.6825,308.8063,420.0308,308.3008,416.1552Z" transform="translate(-72.0804 -63.2079)" style="fill:#d1d0d1"/><path d="M289.141,420.3765c-4.6766-3.2736-16.03-3.2747-16.03-3.2747,1.0016,1.8029,5.8195,12.6474,9.52,13.9358s17.2233-.6334,19.2276-1.7787c.58-.3312,1.4723-.742,2.4147-1.3865C304.2539,427.8647,293.8134,423.6472,289.141,420.3765Z" transform="translate(-72.0804 -63.2079)" style="fill:#d1d0d1"/><path d="M345.4643,549.3938s.8556-4.9944,2.3908-6.0179,8.9044-5.3851,9.7232-5.2a8.8239,8.8239,0,0,0,2.73-.3l.5228,1.013-2.6288,10.7871Z" transform="translate(-72.0804 -63.2079)" style="fill:#ffd72f"/><path d="M358.4776,539.187s-20.7419,15.9649-21.1729,17.2579S333.77,568.34,333.77,568.34s4.1376,3.62,5.4306,1.1206-.4636,2.5282-.4636,2.5282,1.6923,3.4315,6.2834,1.0849c1.563-.7989,6.1227-10.6168,6.6-10.7134a8.0058,8.0058,0,0,1,1.9438.3616c.39.1468-3.4355,11.3011-3.2547,12.1148s5.1081,3.21,6.8711-1.5369a39.56,39.56,0,0,1,3.39-7.2327s.3545-.03.3345.1481c-.22,1.9459-1.3957,8.5643-.7865,8.9831.7233.4972,3.6163,3.1191,5.1985-3.1191s1.6274-6.8711,1.6274-6.8711l5.8513-13.2262s4.591-9.15-.3815-11.1389S360.814,537.9825,358.4776,539.187Z" transform="translate(-72.0804 -63.2079)" style="fill:#ffe255"/><path d="M358.4776,539.187s9.5458-1.0155,14.3187,12.7954l5.9915-3.8589s-.3021-8.9587-4.8033-11.9037c-4.79-3.1338-8.2494-2.23-8.2494-2.23Z" transform="translate(-72.0804 -63.2079)" style="fill:#ffd72f"/><path d="M401.782,328.0323c-1.71,1.6338-6.9722,10.8888-28.57,2.8361-4.0989-1.5283-13.5321-6.8856-13.5312-8.7635.0008-1.7227,4.8639-9.6651,6.6195-10.7184,1.3412-.8047,16.1875-.1468,16.1875-.1468" transform="translate(-72.0804 -63.2079)" style="fill:#c4c4c4"/><path d="M455.5956,339.14c-3.5546,5.3127-13.2021,18.7523-13.2021,18.7523-2.9256.4714-14.129,3.0551-35.7263-4.9975-20.5467-7.661-27.496-12.3375-31.4115-20.5743,0,0-3.8472-7.2883-2.1268-12.4457,3.7889-11.3589,14.6367-28.2482,27.1095-35.8309,14.869-9.0394,33.77-8.4952,44.3505-2.4915C477.2725,300.097,459.15,333.8272,455.5956,339.14Z" transform="translate(-72.0804 -63.2079)" style="fill:#009fe3"/><path d="M248.4045,426.6985c2.0934,10.7042,25.9544,7.7767,40.2873,16.2821s10.77,0,10.77,0-40.3556-29.7053-61.8323-44.7625C240.3374,404.0189,246.7646,418.3132,248.4045,426.6985Z" transform="translate(-72.0804 -63.2079)" style="fill:#d1d0d1"/><path d="M134.8656,458.5264s14.02-6.6228,15.8272-8.8816S163.7,409.9565,165.1844,407.39C154.57,425.8444,137.8237,457.2706,134.8656,458.5264Z" transform="translate(-72.0804 -63.2079)" style="fill:#d1d0d1"/><path d="M174.0527,491.8152c7.678-6.5029,29.18-24.8094,29.7728-43.7426l-7.9567.4979C194.9652,464.8889,174.0534,491.8143,174.0527,491.8152Z" transform="translate(-72.0804 -63.2079)" style="fill:#d1d0d1"/><path d="M286.17,555.944c-1.2773,0-9.1823,18.5045-10.3356,21.2205,1.79-2.0985,19.9718-12.2377,34.2227-20.0845C302.3846,560.1634,287.4855,555.944,286.17,555.944Z" transform="translate(-72.0804 -63.2079)" style="fill:#d1d0d1"/><path d="M229.2027,606.049c.0781,16.4976.3484,31.0006.5384,32.4252.241,1.8072,10.0005,7.6929,19.0817,12.7517C247.6011,649.1549,231.5886,621.7892,229.2027,606.049Z" transform="translate(-72.0804 -63.2079)" style="fill:#d1d0d1"/><path d="M270.8895,628.6375c0,5.4356-9.9166,29.19-9.9184,29.1942l.0016.0008,3.7407,1.3561c2.1116-1.2636,10.7386-8.0361,12.7688-9.8633,2.114-1.9026-1.5538-62.2191-1.7892-70.8374C274.8864,586.0467,270.8895,623.75,270.8895,628.6375Z" transform="translate(-72.0804 -63.2079)" style="fill:#d1d0d1"/><path d="M275.8229,577.2726c.0158-.0192.0324-.0386.0511-.0591l-.0395-.049Z" transform="translate(-72.0804 -63.2079)" style="fill:#d1d0d1"/><path d="M241.8445,671.5222s-18.685,17.1115-19.1767,23.3071-.0983,14.26.4917,14.7513,9.9325,5.1138,15.3414,2.0652S261.71,683.2249,261.71,682.1431s-4.9184-11.6032-6.0972-11.6044S244.3807,669.1287,241.8445,671.5222Z" transform="translate(-72.0804 -63.2079)" style="fill:#d8d8d8"/><path d="M260.0875,676.9338l9.4661-21.2516s-12.4512-14.6511-14.2144-13.5287-2.4874,26.5946-2.4874,26.5946Z" transform="translate(-72.0804 -63.2079)" style="fill:#e0e0e0"/><path d="M242.8791,668.6273s-5.4095-25.0852-5.5319-26.5913c-.106-1.3038-.8772-1.41,8.64-1.41,9.0577,0,9.1165.6453,9.3517,1.5273.2031.7616.4821,19.2974.4821,20.7074s-.3163,6.1416-.3163,6.1416Z" transform="translate(-72.0804 -63.2079)" style="fill:#d8d8d8"/><path d="M222.4451,711.449s-.4657-5.4088,4.2547-6.1955,7.2773,5.0154,7.8674,5.0154,4.327.295,4.8188-.295,17.8-23.4054,17.8-23.4054-1.18-5.1138.3934-6.8839c0,0-2.4325-6.6207-3.7731-7.5055-1.0643-.7024-4.2319-.7369-6.5421-.6167-5.1078.2657-5.6867.197-6.4946.9624,0,0-.92-2.8621,1.308-3.7871.7533-.3127,9.3955-.21,13.4277.2648,2.1493.253,5.6977,7.9313,5.6977,7.9313s2.7687-.9862,3.6538,5.701-22.422,30.191-23.3071,30.5844S226.6477,716.6612,222.4451,711.449Z" transform="translate(-72.0804 -63.2079)" style="fill:#c3c3c3"/><path d="M81.2309,540.8545s3.5-12.8938,4.9883-14.0845,16.7391-14.8446,16.7391-14.8446l16.0738-22.9534s11.915-6.766,20.273,5.55c.7481,1.1024-14.3857,16.868-14.3857,16.868l-3.5741,24.41L96.8364,548.2027Z" transform="translate(-72.0804 -63.2079)" style="fill:#d8d8d8"/><path d="M102.9584,511.9254s15.5605-.7185,16.672,1.06,2.0006,12.0038,2.0006,12.0038-3.0465,4.2284-2.4429,7.785c0,0-14.86,10.8891-20.6515,14.2209-1.3391.77-4.0075.1089-4.3-.0164-1.5561-.6669-3.0683-7.2612-7.5049-7.623-3.5356-.2883-6.7733,1.4709-7.5915,6.3651-.6245,3.7357,3.7011,3.9731,8.3693,5.0846s9.5306,2.6372,11.2342,2.0359,33.4722-21.8472,33.4722-21.8472,0-7.5538-5.8156-7.9074c0,0-1.2-13.3385-2.3019-14.3406s-17.137-1.0022-17.9387-.7015S101.5607,509.6929,102.9584,511.9254Z" transform="translate(-72.0804 -63.2079)" style="fill:#c3c3c3"/><path d="M455.5956,339.14c-9.3251,14.1027-13.202,18.7523-13.202,18.7523-2.9256.4714-14.129,3.0551-35.7263-4.9976-20.5468-7.6609-27.496-12.3375-31.4115-20.5743,0,0-4.8072-6.6052.0364-17.5325-.4091.8557-.8071,1.7084-1.1822,2.5526-4.8622,10.9425-.0463,17.5571-.0463,17.5571,3.9155,8.2368,10.8647,12.9134,31.4115,20.5743,21.5973,8.0527,32.8007,5.4689,35.7263,4.9975,0,0,3.8769-4.65,13.2021-18.7523a44.4913,44.4913,0,0,0,3.8742-7.267A39.7459,39.7459,0,0,1,455.5956,339.14Z" transform="translate(-72.0804 -63.2079)" style="fill:#c4c4c4"/><rect x="312.9738" y="506.3668" width="26.2698" height="29.4463" rx="5.2431" ry="5.2431" transform="translate(370.1314 -145.7748) rotate(42.9261)" style="fill:#d8d8d8"/><path d="M336.4561,522.9639a3.1432,3.1432,0,0,1-2.2373-.9277l-9.9609-9.9609a3.1647,3.1647,0,0,1,4.4756-4.4756l9.9609,9.9609a3.1655,3.1655,0,0,1-2.2383,5.4033Z" transform="translate(-72.0804 -63.2079)" style="fill:#ededed"/><path d="M326.4955,507.1723a2.6568,2.6568,0,0,1,1.8845.7806l9.9608,9.9608a2.6651,2.6651,0,0,1-3.769,3.769l-9.9608-9.9609a2.6651,2.6651,0,0,1,1.8845-4.55m0-1a3.6651,3.6651,0,0,0-2.5916,6.2567l9.9608,9.9609a3.6651,3.6651,0,1,0,5.1832-5.1832l-9.9608-9.9609a3.6412,3.6412,0,0,0-2.5916-1.0735Z" transform="translate(-72.0804 -63.2079)" style="fill:#dadada"/><rect x="330.1414" y="505.4052" width="3.4572" height="18.0373" rx="1.7286" ry="1.7286" transform="translate(-338.6305 322.1306) rotate(-45)" style="fill:#848484;stroke:#bcbcbb;stroke-miterlimit:10;stroke-width:0.25px"/><path d="M330.9043,529.6172a3.1454,3.1454,0,0,1-2.2383-.9277l-9.9609-9.9609a3.1651,3.1651,0,1,1,4.4766-4.4756l9.9609,9.9609a3.1655,3.1655,0,0,1-2.2383,5.4033Z" transform="translate(-72.0804 -63.2079)" style="fill:#ededed"/><path d="M320.9436,513.8259a2.6568,2.6568,0,0,1,1.8845.7806l9.9608,9.9609a2.6651,2.6651,0,0,1-3.769,3.769l-9.9609-9.9609a2.6651,2.6651,0,0,1,1.8845-4.55m0-1a3.6651,3.6651,0,0,0-2.5916,6.2567l9.9609,9.9609a3.6651,3.6651,0,1,0,5.1832-5.1832l-9.9608-9.9609a3.6411,3.6411,0,0,0-2.5916-1.0735Z" transform="translate(-72.0804 -63.2079)" style="fill:#dadada"/><rect x="324.5894" y="512.0588" width="3.4572" height="18.0373" rx="1.7286" ry="1.7286" transform="translate(-344.9615 320.154) rotate(-45)" style="fill:#848484;stroke:#bcbcbb;stroke-miterlimit:10;stroke-width:0.25px"/><path d="M324.6416,535.8809a3.1454,3.1454,0,0,1-2.2383-.9277l-9.9609-9.9609a3.1647,3.1647,0,1,1,4.4756-4.4756l9.9609,9.96a3.166,3.166,0,0,1-2.2373,5.4043Z" transform="translate(-72.0804 -63.2079)" style="fill:#ededed"/><path d="M314.68,520.0891a2.6568,2.6568,0,0,1,1.8845.7806l9.9608,9.9609a2.6651,2.6651,0,0,1-3.769,3.769l-9.9609-9.9609a2.6652,2.6652,0,0,1,0-3.769h0a2.6567,2.6567,0,0,1,1.8845-.7806m0-1a3.6651,3.6651,0,0,0-2.5916,6.2567l9.9609,9.9609a3.6651,3.6651,0,1,0,5.1832-5.1832l-9.9608-9.9609a3.6411,3.6411,0,0,0-2.5916-1.0735Z" transform="translate(-72.0804 -63.2079)" style="fill:#dadada"/><rect x="318.3262" y="518.322" width="3.4572" height="18.0373" rx="1.7286" ry="1.7286" transform="translate(-351.2247 317.5593) rotate(-45)" style="fill:#848484;stroke:#bcbcbb;stroke-miterlimit:10;stroke-width:0.25px"/><path d="M313.4617,417.5136s7.5694-21.36,15.1945-19.8652,2.9653-.2385,4.3209-5.0909.75-10.9158,7.4072-13.9841,17.4166-1.035,20.636,3.6248-.932,13.286-3.1347,15.1153,3.6944,4.4263,7.1,4.06,4.4394.7981,5.0028,4.5339c.5753,3.815.5056,18.4611,1.311,18.4611,1.3945,0,5.5851-2.04,9.8068-1,2.533.6236,7.203,4.0879,8.1923,8.6919.9978,4.6436-1.1439,15.773-12.6644,14.3472-11.6485-1.4416-10.5362-12.5438-9.9775-14.9169.6512-2.7656,2.3874-5.0076,2.4627-6.0568.3119-4.35.1558-19.0286-.1126-20.6336-.188-1.1242-.3613-2.6071-3.6654-2.6071s-10.698-1.2911-12.6467-1.0646c-.9724.113-4.7223,1.478-6.9934,1.5861-1.6523.0787-7.28-.4231-10.4365-3.5012s-1.1763,3.11-1.1763,6.5661c0,2.25-3.1184,7.443-9.5646,12.9588C318.9351,423.52,313.4617,417.5136,313.4617,417.5136Z" transform="translate(-72.0804 -63.2079)" style="fill:#e1f2f7"/><path d="M316.0659,418.8563s-5.3818-7.6087-5.289-10.578a16.5855,16.5855,0,0,1,2.6439-7.7015c1.0677-1.67,4.2225-5.0106,6.1711-4.9178s10.187,3.0495,11.0291,3.5761c.6517.4076,3.3533,2.7336.9408,7.4659s-8.0727,10.3-11.4131,12.1554S316.0659,418.8563,316.0659,418.8563Z" transform="translate(-72.0804 -63.2079)" style="fill:#009fe3"/><ellipse cx="317.814" cy="403.7309" rx="5.175" ry="2.4674" transform="matrix(0.5, -0.866, 0.866, 0.5, -262.8147, 413.8926)" style="fill:#2d2e83;stroke:#39a8e0;stroke-miterlimit:10;stroke-width:0.5px"/><path d="M330.3782,408.71c-.0274-.0234-4.4711-3.8063-11.474,1.5395-6.3428,4.8419-7.858-1.1623-8.0924-2.3736-.01.1343-.0306.2686-.0349.4026-.0928,2.9693,5.289,10.578,5.289,10.578s.7423,1.8558,4.0827,0C323.025,417.2583,327.6164,412.9088,330.3782,408.71Z" transform="translate(-72.0804 -63.2079)" style="fill:#36a9e1"/><path d="M334.8908,394.3586c.1992.6506,8.4479,9.69,17.8128,3.1676s6.9122-14.6605,6.522-14.8278-10.07-5.8531-12.0028-5.7973a15.8715,15.8715,0,0,0-6.8385,1.6723,11.2268,11.2268,0,0,0-4.2922,5.0727C335.8085,384.4347,334.5416,393.2185,334.8908,394.3586Z" transform="translate(-72.0804 -63.2079)" style="fill:#009fe3"/><ellipse cx="343.7258" cy="383.3218" rx="4.715" ry="3.1228" transform="translate(-217.6908 160.0104) rotate(-30)" style="fill:#2d2e83;stroke:#39a8e0;stroke-miterlimit:10;stroke-width:0.25px"/><path d="M352.7036,397.5262c9.3649-6.522,6.9122-14.6605,6.522-14.8278-.2322-.0995-3.75-2.149-6.9708-3.784a5.4661,5.4661,0,0,1,2.114,6.2257c-1.8005,6.722,1.4324,6.4126-3.4438,13.4684A16.596,16.596,0,0,0,352.7036,397.5262Z" transform="translate(-72.0804 -63.2079)" style="fill:#36a9e1"/><path d="M427.3177,351.6868c.5722,1.123,5.5148,11.2333,5.5148,11.2333l-13.1777,16.06-6.752-11.0479,11.5443-15.4768-.6754-3.7584S426.3977,349.8812,427.3177,351.6868Z" transform="translate(-72.0804 -63.2079)" style="fill:#ddd"/><path d="M451.8379,377.6821a41.4413,41.4413,0,0,1-14.168-2.9761c-4.4189-1.6475-13.3691-6.9336-13.3682-8.5288,0-1.6665,4.8584-9.5205,6.498-10.5044.2266-.1362,1.2656-.3643,5.6807-.3643,4.6006,0,10.31.25,10.3672.2529l.0566.0029.0518-.0225c.1045-.0444,10.5088-4.4395,15.8467-4.4395a4.5111,4.5111,0,0,1,2.1992.4292c1.3848.8,2.5762,3.5044,3.1885,7.2354.7686,4.6875.4053,9.4561-.8281,10.8569-.1963.2227-.416.4956-.6641.8047C464.6631,372.9639,460.874,377.6821,451.8379,377.6821Z" transform="translate(-72.0804 -63.2079)" style="fill:#ededed"/><path d="M462.8022,351.3527h0a4.279,4.279,0,0,1,2.0743.3958c1.32.7625,2.4667,3.4016,3.0667,7.0594.7454,4.5447.4,9.3227-.769,10.651-.1985.2254-.42.5012-.6713.8139-2.0092,2.502-5.7492,7.1594-14.6651,7.1594a41.1974,41.1974,0,0,1-14.0806-2.96c-5.3123-1.9807-13.2064-7.1341-13.2059-8.2948.0007-1.5711,4.828-9.3607,6.3761-10.29.1367-.0772.9414-.3293,5.5556-.3293,4.5943,0,10.2961.25,10.3531.2528l.1133.005.1044-.0443c.104-.0442,10.46-4.4192,15.7483-4.4193m0-.5c-5.4511,0-15.9435,4.4592-15.9435,4.4592s-5.7162-.2533-10.3753-.2533c-2.849,0-5.3033.0948-5.8122.4-1.7556,1.0533-6.6187,8.9957-6.6195,10.7184-.0009,1.8779,9.4323,7.2352,13.5312,8.7635a41.2324,41.2324,0,0,0,14.2553,2.9915c10.2825,0,13.94-6.13,15.7116-8.1429,2.4229-2.7519,1.335-16.3034-2.4229-18.4737a4.754,4.754,0,0,0-2.3247-.4629Z" transform="translate(-72.0804 -63.2079)" style="fill:#d1cfd1"/><ellipse cx="385.6353" cy="304.5333" rx="5.0184" ry="5.4813" style="fill:#d1d0d1;stroke:#c4c4c4;stroke-miterlimit:10;stroke-width:0.25px"/><path d="M461.8515,364.6391c-.8319.1106-1.2572,4.29-1.2572,4.29l-1.4667,1.4667c-.5665.0976-1.957,2.32-2.221,2.7489a4.6162,4.6162,0,0,0,.8092.0776,5.2652,5.2652,0,0,0,5.0185-5.4813A5.81,5.81,0,0,0,461.8515,364.6391Z" transform="translate(-72.0804 -63.2079)" style="fill:#9c9b9b;opacity:0.28"/><circle cx="387.0471" cy="305.7214" r="1.4667" style="fill:#848484;stroke:#bcbcbb;stroke-miterlimit:10;stroke-width:0.25px"/><path d="M423.4083,348.4992,370.3064,325.02a2.6154,2.6154,0,0,0-3.1291.7953l-8.1094,10.5205,59.1781,24.433,6.2012-8.3136A2.6154,2.6154,0,0,0,423.4083,348.4992Z" transform="translate(-72.0804 -63.2079)" style="fill:#e2e1e1"/><path d="M371.9369,359.7441c.2831,1.455,2.4656,2.0915,2.4656,2.7281s5.9108,18.551,6.6383,19.1875,8.6389,5.3652,9.1845,5.1834,13.997-16.1415,13.906-16.7781-9.1845-4.5468-9.1845-5.2743c0-.5933,5.5819-7.7956,7.64-10.4315a.9234.9234,0,0,0-.3784-1.4228l-20.5523-8.4527a1.4027,1.4027,0,0,0-1.7533.67Z" transform="translate(-72.0804 -63.2079)" style="fill:#d6d6d6"/><path d="M382.5477,368.4353c.8261,0,13.2173-14.7071,13.2173-15.27s-11.84-4.0051-13.2173-3.592-4.7468,14.5941-4.0944,15.42A43.9827,43.9827,0,0,0,382.5477,368.4353Z" transform="translate(-72.0804 -63.2079)" style="fill:#a8a7a7;stroke:#a8a7a7;stroke-miterlimit:10;stroke-width:0.75px"/><path d="M389.5709,383.3209c.5109-.0464,9.3584-11.4622,9.2858-11.97s-6.2389-3.6273-6.6017-3.6273-9.4309,10.6642-9.2133,10.9544S388.7729,383.3934,389.5709,383.3209Z" transform="translate(-72.0804 -63.2079)" style="fill:#a8a7a7;stroke:#a8a7a7;stroke-miterlimit:10;stroke-width:0.75px"/><path d="M393.4048,354.174l-10.4188-2.8315-1.5728.2151c-1.5309,4.0238-3.4688,12.7913-2.96,13.4356a43.9845,43.9845,0,0,0,4.0944,3.442c.6229,0,7.8193-8.36,11.3227-12.7147Z" transform="translate(-72.0804 -63.2079)" style="fill:#c4c4c4"/><path d="M382.9861,366.211c.6512,0,10.4188-11.5931,10.4188-12.037s-9.3335-3.1571-10.4188-2.8315-3.7418,11.5041-3.2275,12.1552A34.67,34.67,0,0,0,382.9861,366.211Z" transform="translate(-72.0804 -63.2079)" style="fill:#cfcece"/><path d="M392.2816,368.7287l-7.1783,8.5349-.8981,2.404c1.7175,1.3845,4.7853,3.7061,5.3657,3.6533.4595-.0417,7.66-9.2772,9.0511-11.5044,0,0-5.1781-2.9433-5.7592-3.0156Z" transform="translate(-72.0804 -63.2079)" style="fill:#c4c4c4"/><path d="M390.19,380.881c.398-.0362,7.2914-8.9305,7.2348-9.3262s-4.8609-2.8261-5.1435-2.8261-7.3479,8.3088-7.1783,8.5349S389.5686,380.9375,390.19,380.881Z" transform="translate(-72.0804 -63.2079)" style="fill:#cfcece"/><g style="opacity:0"><path d="M429.1373,274.0385q1.3972,0,2.7662.1162a37.86,37.86,0,0,1,21.3734,8.2388c42.47,28.5946,25.1984,67.7249,17.7323,81.8186-4.4734,8.7039-12.0049,17.7628-16.5232,22.83,2.0751,2.9572,4.2614,6.0952,6.3464,9.1273h0l.0186.0271q.4953.7206.9812,1.43l.0431.0629c1.2421,1.8152,2.4266,3.5643,3.5119,5.1905.0986.1479.1987.2973.2956.443.1919.2886.3779.57.5625.8491q.1828.2764.3607.5468.2435.37.4775.7287c.1338.205.2629.404.3915.6024.1376.2122.2756.4251.4069.6292.1455.2265.2817.4411.4189.6571.1035.1629.2124.3324.3111.4891q.335.5324.63,1.0132c.0652.1064.1208.2.1828.3025.1331.2194.2631.4347.381.6345.0667.1129.1252.2154.1867.3218.099.1709.1935.3362.2789.49.0549.0988.1057.192.1548.2831.0766.142.1444.2729.2064.3959.0381.0762.077.1529.1094.2215.0571.1207.1006.2234.1392.32.0186.0465.0429.1.0571.1412a1.0426,1.0426,0,0,1,.0708.2973h0c0,2.2157-3.1531,11.7384-5.4734,13.7972a1.89,1.89,0,0,1-.3952.2854l-.0139.01,0,0a.6477.6477,0,0,0-.2043.1984l-.0151.0186a2.6378,2.6378,0,0,0-.2093.3728c-.0085.018-.0171.0337-.0256.0524-.07.1509-.1416.3293-.2148.5274-.0115.0311-.023.0609-.0344.0931-.0723.2013-.146.4256-.2211.6693-.0131.0424-.0263.0849-.0394.1287q-.1128.3748-.23.8083l-.04.15q-.118.445-.239.9435c-.0132.0544-.0266.1108-.04.166-.0819.3419-.1649.6988-.2486,1.0744-.0121.054-.0244.1106-.0364.1653-.0859.3886-.1725.7906-.26,1.2112-.0091.0432-.0181.0887-.0272.1322q-.1318.6373-.2655,1.3174l-.0186.0948c-.09.4607-.1809.9374-.272,1.4244-.0107.0575-.0215.1135-.0322.1714-.0887.4763-.1776.9661-.2667,1.4642-.0141.0792-.0284.1573-.0426.237-.0863.4857-.1728.9819-.2592,1.4849-.0174.1006-.0347.2009-.052.302q-.1283.7513-.2563,1.5245l-.0506.3052q-.1282.7774-.2555,1.5721-.0256.16-.0511.3206-.1267.7937-.252,1.6l-.0487.315q-.1284.8311-.2553,1.67c-.0109.0721-.0217.1446-.0324.2168q-.1333.886-.2641,1.7766l-.0161.1107q-.1332.9087-.2627,1.8171l-.0109.075q-.13.915-.2567,1.8242l-.0205.1468q-.1224.8812-.24,1.7516l-.0278.2054q-.1165.861-.2278,1.7066c-.0086.0642-.0172.1287-.0254.1927q-.11.8345-.2141,1.6488l-.0286.2244q-.1056.8242-.2047,1.6237l-.0158.1269c-.0691.5575-.136,1.1055-.2,1.64l-.0029.0238c-.4693,3.9119-.8,7.1543-.9141,9.0273l-.0006.0094c-.016.2658-.0277.5044-.0347.7127a6.0917,6.0917,0,0,0,.0118.8647c.4,2.9361,1.8808,13.99.4328,16.1964-.7491,1.1415-9.2942,9.0936-20.256,18.9686l-.1576.1419q-.9247.8328-1.87,1.6817l-.0548.0493q-1.9592,1.7593-3.9943,3.5765-.1041.093-.2084.1861c-2.0146,1.7985-4.07,3.6261-6.1425,5.4605l-.2747.2432q-.9676.8562-1.9379,1.7126l-.1113.0983q-2.0514,1.81-4.1,3.6071l-.3656.3206q-.967.8477-1.9286,1.6884l-.0586.0513q-1.0285.8989-2.0475,1.7864l-.2531.22q-.8434.7344-1.6782,1.4588l-.46.3991q-.8672.7519-1.7227,1.4916l-.1718.1487q-.9588.8281-1.8989,1.6371c-.1171.1008-.2324.2-.3489.3q-.7482.6433-1.483,1.2726l-.4771.4085q-.791.6768-1.5646,1.3358c-.067.0569-.1353.1155-.202.1723q-.8765.7462-1.7263,1.4655c-.1258.1066-.2491.21-.3739.3161q-.6555.5544-1.2936,1.0912c-.1543.13-.3086.26-.4614.3881q-.7152.6008-1.4066,1.178c-.0572.0479-.1166.0977-.1736.1452q-.7725.6442-1.5094,1.2536c-.1246.103-.2454.2026-.3684.3042q-.5607.4629-1.1.9046c-.1326.1086-.2651.2173-.3958.324q-.6295.5144-1.2278.9986l-.1161.0942c-.4333.35-.85.6837-1.2549,1.0065-.1059.0845-.2078.1649-.3118.2474q-.4543.36-.8824.6959c-.108.0845-.2164.17-.3219.2518-.333.2593-.6549.5082-.9613.7419-.03.0228-.0626.0483-.0921.0709-.3309.252-.6411.4842-.9387.7043-.0823.0609-.16.117-.2391.1754q-.3272.24-.6244.4507c-.0764.0543-.1541.11-.2274.1611-.2381.1664-.4633.3209-.6679.4556l-.0385.026c-.2125.1395-.4.2554-.5743.358-.0511.03-.0962.0548-.1438.0817q-.1818.1027-.33.1733c-.0393.0187-.08.0391-.1159.0543a1.357,1.357,0,0,1-.3042.1012,5.33,5.33,0,0,1-.5533.0425c-.0529.0018-.1077.0027-.1629.0034q-.0524.0006-.1059.0007c-.1459,0-.2985-.0036-.4588-.0112-.0371-.0018-.0708-.0018-.1084-.004-.2361-.0135-.488-.0359-.75-.0645-.0649-.0071-.1324-.0158-.1987-.0238q-.3326-.04-.6883-.0948c-.0627-.01-.1233-.0181-.187-.0284q-.4394-.0714-.9078-.1636c-.06-.0117-.1213-.0252-.1814-.0375q-.3987-.0811-.8142-.1767c-.0814-.0187-.162-.0369-.2443-.0564-.3342-.0792-.6733-.1633-1.02-.2554-.0308-.0082-.0623-.0174-.093-.0256q-.4809-.1292-.9738-.275c-.0858-.0253-.1714-.0508-.2577-.0767-.3469-.1045-.6958-.213-1.0472-.3285l-.0377-.0121c-.21-.0691-.42-.1417-.63-.2146l-3.9422,2.539L366.945,565.376s-.0452.6329-1.6273,6.8711a13.53,13.53,0,0,1-.4134,1.3347l.0086-.0021c.5349,5.2209-1.2984,6.5185-2.6691,6.5185a1.5158,1.5158,0,0,1-1.3377-.5994,28.302,28.302,0,0,1-.9084-4.4182,1.9629,1.9629,0,0,1-.0337-.2326l-.0057-.0406.0033-.0009c-.1243-1.7074.7564-6.7622.9444-8.4235.015-.1333-.1808-.15-.28-.15-.0328,0-.055.0018-.055.0018a39.5573,39.5573,0,0,0-3.39,7.2327,5.2214,5.2214,0,0,1-.8753,1.549c.0811.9434.261,2.6358.2951,4.34.0425,2.1274-2.9379,3.26-4.02,3.26a.7577.7577,0,0,1-.2852-.0428c-.6624-.2839-1.9856-7.5694-1.9856-7.5694-.1808-.8137,3.6447-11.968,3.2547-12.1147a8.9408,8.9408,0,0,0-1.8726-.3668.3811.3811,0,0,0-.0712.0051c-.459.093-4.6933,9.1748-6.4068,10.5793a7.9023,7.9023,0,0,1,.1741,3.17c-.4035,3.6287-2.3606,4.3-3.6968,4.3a3.7542,3.7542,0,0,1-1.1761-.18c-.6624-.2366-1.7776-8.241-1.7776-8.241s.2609-.7476.5077-1.5226c-1.84,4.02-3.7021,4.9144-5.0455,4.9144a4.4053,4.4053,0,0,1-1.9381-.5757c-.3638-.0727,1.509-6.4648,1.509-6.4648s3.1032-10.6027,3.5341-11.8956c.18-.5392,3.8933-3.6308,8.16-7.051h0s.8556-4.9944,2.3909-6.0179c1.5034-1.0023,8.6019-5.2061,9.6639-5.2058a.2744.2744,0,0,1,.0592.0057,2.1709,2.1709,0,0,0,.4655.0422,9.374,9.374,0,0,0,1.7067-.2176c-.0168-1.3462-.0164-10.3716,2.943-14.1562.0584-.0746.1309-.17.2107-.2755l.0782-.1038c.0634-.0846.1316-.1759.2063-.2767l.0913-.1232c.0847-.1144.1765-.2393.2734-.3713l.0873-.1191q.1888-.2581.4052-.5557l.1147-.1579c.1176-.1619.239-.3293.3673-.5068l.1641-.2269.3477-.4816.2164-.3q.5575-.7742,1.2068-1.68c.068-.0948.1389-.1938.2083-.2907.155-.2162.3129-.4363.4749-.6624l.2638-.3685q.25-.3493.51-.7129l.217-.3032q.7745-1.0827,1.6269-2.2759.169-.2367.3409-.4773.21-.2936.4231-.5922c.1211-.1695.2425-.3394.3653-.5114q.4808-.673.9792-1.371c.1338-.1873.27-.3782.4058-.5681l-20.4807,14.7186-2.5791-3.5886-.0733.0953-.0931.1208-.0759.0986-.08.1042c-.1076.1393-.2372.307-.3952.5114l-.0224.029c-.0888.1147-.1894.2446-.2925.3776l-.0171.0219c-.4405.5681-1.0031,1.2914-1.6649,2.1379l-.012.0154c-.1561.2-.3184.4068-.4848.6191l-.0564.072c-3.2024,4.0854-8.1894,10.3549-12.353,15.1858l-.0507.0587c-.6828.7916-1.3423,1.5432-1.968,2.24l-.0068.0076h0a29.3477,29.3477,0,0,1-4.5557,4.4345c-3.8981,2.3822-47.967,25.93-51.1432,29.423-.0181.02-.0343.0389-.05.0576a.5286.5286,0,0,0-.1344.2357c-.0128.12-.01.4614.0039.98v0q.0054.2018.0135.4409v.0006c.1659,4.9738,1.1123,21.81,1.7737,37.7748l.0024.06q.0318.768.0627,1.5328l.0071.1784q.0276.6866.0544,1.3694l.0125.3234q.0249.6361.0488,1.268c.0044.114.0086.2274.0128.3411q.0226.5992.0444,1.1938l.0147.4041q.02.5528.0392,1.1007l.0174.5q.018.5218.0353,1.0381.0075.2219.0148.4431.0185.5589.0359,1.1105l.0117.3713q.0173.5559.0336,1.1033l.0113.3811c.01.3515.02.6992.03,1.0453.0037.1357.0077.2724.0113.4073.0093.3465.0181.6886.0268,1.0292.0031.1249.0064.2512.0095.3752.0092.3753.0178.7452.0261,1.1124.0019.0807.0039.1631.0056.2434.0087.3939.0166.7817.0241,1.1656l.0036.1772c.0251,1.32.043,2.5783.0524,3.7623.0008.0945.0011.1849.0017.2784.0021.2885.0038.5755.0048.8547,0,.1356,0,.2661.0006.3994,0,.233.0006.466,0,.692,0,.1362-.0011.2675-.0016.4011-.0009.2186-.0018.4363-.0035.6477-.0011.1292-.0026.2538-.0038.38-.0021.2008-.0044.4005-.0072.5942-.0019.1317-.0043.2593-.0066.3876-.0033.1825-.0069.3631-.0109.5385-.0029.1265-.0062.2494-.01.3721-.0044.163-.0091.3235-.0143.48-.0041.1229-.0084.243-.0128.3616q-.0087.2264-.0184.4418-.0074.1652-.0155.3241c-.0071.1386-.0147.2727-.0225.4039-.0061.1012-.0122.2015-.0187.2981-.0085.1254-.0176.2451-.0269.3627-.0071.09-.0141.18-.0218.2656-.01.11-.02.213-.0307.315-.0085.0815-.0168.1641-.0257.24-.0113.0964-.0233.1844-.0355.2725-.0094.0678-.0184.1381-.0283.2008-.0132.0837-.0272.1577-.0413.2325-.01.0546-.02.1132-.0309.163-.0153.0709-.0319.13-.0482.191-.0107.04-.021.0852-.0321.1207a1.5551,1.5551,0,0,1-.06.1539c-.01.023-.0191.0528-.0294.0726a.4836.4836,0,0,1-.0976.1384c-.1344.1209-.3013.2662-.49.4274-.06.051-.1329.1122-.1974.1668-.1384.1172-.278.2354-.4372.3679-.0969.0807-.2049.17-.3089.2554-.1446.1194-.2884.2381-.4453.3664-.1281.1049-.2634.2145-.3989.3246-.1472.12-.2943.2389-.4491.3638q-.2361.19-.4824.3879c-.1416.1135-.2835.2272-.43.3437-.1938.1547-.3889.31-.5891.4688-.1132.09-.2266.1794-.3414.27-.2351.1859-.47.3712-.71.56l-.2153.1688c-.8117.6363-1.6349,1.2746-2.435,1.8871l-8.9333,20.0557c.3631.7179.5832,1.1941.5832,1.1941a1.2233,1.2233,0,0,1,.376-.0511c.7878,0,2.5945.5886,3.2779,5.7522.8851,6.6872-22.4219,30.1909-23.3071,30.5843a37.8636,37.8636,0,0,1-9.6048,1.2426c-3.76,0-7.6159-.6768-9.5-3.0128a7.9423,7.9423,0,0,1,.4021-2.9214,74.3944,74.3944,0,0,1-.1794-13.6984c.4205-5.2987,14.1394-18.5729,18.1049-22.3074l-.0034.003s-.92-2.8621,1.3081-3.787a3.6707,3.6707,0,0,1,.8188-.11l-.0171,0s-3.6111-16.7459-4.9987-23.6928c-4.6061-2.8625-7.9985-5.3119-8.1393-6.3677-.4482-3.362-1.3448-79.5684.8966-82.93s14.3447-13.6723,14.793-14.793c.2926-.7316,15.8668-25.1487,29.0161-43.14-.583-.2749-1.043-.4969-1.3363-.6448a9.804,9.804,0,0,1-2.6033-2.1711,31.5471,31.5471,0,0,1-2.29-2.8844c-.3058-.4281-.61-.87-.9121-1.32-.2427-.3621-.4831-.7309-.7216-1.102q-.31-.4819-.6137-.9684-.3534-.5673-.6953-1.1353-.4143-.6861-.8089-1.3607-.4115-.7029-.7969-1.3786-.1744-.3057-.3426-.6029c-.173-.3059-.3428-.6072-.5049-.8972q-.17-.3033-.3308-.5933c-.7517-1.3516-1.3582-2.4644-1.7538-3.1362-1.8092-3.0714-5.1573-3.0669-16.18-4.21-3.7565-.3895-32.9071-26.7277-37.7335-26.952l-2.9971-.2737c-.02.6374-.0677,1.2738-.1337,1.9093-.0217.2094-.0557.4178-.0823.627-.0542.4268-.1115.8533-.1852,1.2788-.0424.2452-.0939.49-.1426.7344-.0776.39-.1592.78-.2521,1.1683-.0608.2539-.1264.5071-.1934.76q-.1514.5715-.323,1.14c-.076.2513-.153.5022-.2349.7526-.1264.3865-.2618.7714-.4015,1.1557-.0862.2368-.17.4738-.2607.71-.1608.4171-.3334.8318-.5089,1.246-.0841.1986-.1629.3981-.25.596q-.3859.874-.8111,1.7383c-.0128.0262-.0242.0529-.0371.0791-.3.6055-.6154,1.2065-.9416,1.8036-.1.1839-.2074.3653-.31.5484-.231.4113-.464.8216-.7062,1.2284-.1307.2194-.2659.4364-.4.6546-.2259.3683-.4538.7356-.6879,1.1-.1447.2255-.2919.4491-.44.673q-.352.5331-.7136,1.06-.2279.3314-.4588.66-.3747.5316-.7592,1.0552c-.1508.2061-.3.4127-.4531.6172-.2821.3776-.5684.75-.8564,1.1219-.1306.1684-.259.3388-.3906.5061q-.5965.7573-1.2054,1.4969c-.0241.0294-.0477.06-.0719.089q-.6542.7922-1.32,1.5613c-.1218.141-.2445.2781-.3667.418-.3186.3651-.6376.728-.9583,1.0849-.1609.1791-.3219.3543-.4831.5313q-.4268.4687-.8536.9284c-.1724.1848-.344.367-.5163.5493q-.4146.439-.8277.8677-.2593.2689-.5174.5338c-.28.2869-.5585.5686-.8368.8481-.1611.1619-.322.3244-.4823.4837-.3013.2994-.6.5919-.8975.8822-.134.1307-.2688.2639-.402.3927q-.58.56-1.1467,1.096c-.04.0382-.0819.0786-.1223.1166q-.6326.5965-1.245,1.16c-.1191.11-.2339.2135-.3517.3215-.2856.2615-.5691.52-.8465.7708-.1464.1321-.2877.2583-.4316.3872-.2428.2176-.4829.4325-.7181.6409-.1483.1314-.2923.2583-.4374.386q-.3337.2938-.6551.5743c-.1444.1259-.2859.2493-.4264.3711-.2082.1806-.4093.3543-.6085.5258-.1276.11-.2547.2194-.3783.3254-.2181.187-.4256.3642-.6309.539-.0923.0786-.1864.1592-.276.2354-.2267.1927-.44.3737-.6485.55-1.1719.9929-2.0508,1.7327-2.5081,2.17-3.51,3.3579-14.9179,7.6111-23.2544,9.3661a16.2777,16.2777,0,0,1-2.5056.3l.0005.0011s-15.1654,10.3461-13.7459,14.1575c3.2246,8.6592-.0874,12.178-.0874,12.178l0,0a10.5134,10.5134,0,0,1,.0877,1.1563s-31.7686,21.2458-33.4723,21.8472a3.122,3.122,0,0,1-1.014.1357c-2.2006,0-6.28-1.2335-10.22-2.1717-4.6681-1.1115-8.9938-1.3489-8.3693-5.0846a8.0115,8.0115,0,0,1,2.3314-4.7529l-.2408-.1133s3.5-12.8938,4.9884-14.0845,16.7391-14.8446,16.7391-14.8446c-1.15-1.8369,1.2145-3.0731,2.5361-3.6216l13.5377-19.3319,0,0c.6953-6.774,1.9773-15.101,2.2314-17.4229.4388-4.0106,9.6527-11.3459,13.6016-13.0223a1.38,1.38,0,0,0,.2619-.1691c.05-.0389.1007-.0809.1556-.131.0258-.0229.0543-.0516.0811-.0768,5.5594-5.3666,35.06-62.1679,40.57-68.52,0,0,19.5694-8.4444,26.2566-8.7394l.0517-.0011c2.1422,0,15.3042,5.108,22.917,9.0092,4.6375,2.3766,34.084,23.6826,54.4841,38.5672-.4672-.5877-.9324-1.2375-1.3872-1.9283-.24-.365-.4777-.74-.7112-1.1208-2.1-3.4258-3.8712-7.3007-4.4346-8.3148h0c-1.0016-1.8029-42.9542-33.0813-44.8712-34.8553-1.6769-1.5518-3.7234-29.2766-2.8863-30.931.3771-.7451,2.9885-1.7593,6.6021-2.8367.1481-.1253.3-.2531.4754-.395q.3273-.2648.7147-.5658c1.0311-.8014,2.3663-1.785,3.9066-2.8844q.5776-.4123,1.1921-.8452c.8183-.5766,1.6815-1.1779,2.5775-1.7957q.6719-.4634,1.3667-.938c.9254-.6322,1.8774-1.2766,2.8432-1.9251,8.21-5.512,17.4334-11.3122,20.0511-12.2939.1375-.0516.3014-.1027.477-.1536.0391-.0113.0777-.0226.1187-.0339.18-.05.3739-.099.5874-.1479.0306-.007.0646-.014.096-.021.2012-.0451.4166-.09.6444-.1342.0452-.0088.0882-.0175.1343-.0263.2532-.0482.5219-.096.804-.1434.057-.01.1162-.0191.1743-.0286.2741-.045.558-.09.8559-.134l.0762-.0116c.3221-.0475.66-.0944,1.0069-.1409l.2056-.0273c.3524-.0464.713-.0924,1.0874-.1379l.0509-.006c.3616-.0438.7348-.087,1.1146-.13l.2325-.0262q.58-.0644,1.1826-.1274c.0729-.0077.1472-.0151.22-.0226q.5511-.0568,1.1185-.1124c.0689-.0067.1367-.0136.2058-.02q.6232-.06,1.2629-.1191l.3-.0273q.6333-.0576,1.2772-.1137l.0515-.0045c.4363-.0378.8766-.0747,1.3182-.1112q.1876-.0157.3753-.031.6442-.0527,1.292-.1037l.2255-.0176q.57-.0446,1.1409-.0876l.3789-.0286q.6188-.0462,1.2347-.0908l.43-.0309q.4808-.0345.9579-.0678c.1316-.0092.2637-.0186.3949-.0276q.5766-.04,1.1441-.0779l.5507-.0368c.2493-.0166.4961-.0328.742-.0489.2969-.0194.59-.0383.8811-.0569.2007-.0129.4-.0256.5981-.0381q.3159-.02.6261-.0394l.06-.0038h0c5.3957-.3356,9.472-.5289,9.472-.5289h0s13.0114-8.4082,19.7078-11.7265c.7726-.3828,1.4612-.6979,2.036-.9246a7.86,7.86,0,0,1,.9891-.3291,2.5579,2.5579,0,0,1,.3643-.0645c.3081-.028.6716-.0407,1.079-.0407a119.391,119.391,0,0,1,12.4713,1.2726s19.138,6.7735,22.6136,6.7735a1.3547,1.3547,0,0,0,.3514-.0365c.28-.0786.8165-.1774,1.5341-.29,1.5785-2.8313,3.8718-6.1513,4.9638-6.8065.5089-.3053,2.962-.4,5.8106-.4.5706,0,1.1571.0038,1.7469.01a5.0311,5.0311,0,0,1,.8273-2.2808c1.99-2.8578,11.5272-12.1751,11.5272-12.1751l.1262.2159a68.874,68.874,0,0,1,6.4468-6.952,39.5005,39.5005,0,0,1,7.4527-5.7615c1.6291-1.0024,3.3953-2.04,5.2751-3.0531,7.5636-4.4875,15.8989-7.1193,23.6237-7.1193M303.7591,400.1806c2.3314-2.1026,7.0531-5.9872,10.8918-6.7408,0,0-.5428.6338-1.2216,1.6309a12.92,12.92,0,0,0,1.2216-1.52s.0386-.0748.1053-.2064c-.0625.0562-.1053.0954-.1053.0954l7.0021-23.09-.0013-.0146a6.114,6.114,0,0,1-.5627.6263l-.0009.0007a3.1619,3.1619,0,0,1-.2627.225c-.0488.037-.0946.0625-.1416.0924-.0354.0225-.0724.0511-.1069.07a29.484,29.484,0,0,1-7.2524,1.9259q-.6157.11-1.2586.2159c-.8562.1418-1.7445.2794-2.6527.4124q-.6812.1-1.3759.1961c-2.3132.3209-4.7139.6122-7.0138.8684-.92.1025-1.8238.1994-2.6994.29-5.6917.5917-10.1924.9336-10.1924.9336s-.8559.0644-2.33.1711c.59.85,1.3369,1.8831,2.1813,3.0285l.1116.0759c5.5575,7.5269,15.3441,19.9145,15.5891,20.5378.017.0433.0453.1072.0753.1747m-17.17,31.4525q-.1734,0-.3431-.0018-.327-.0035-.6383-.0139-.5981-.02-1.1269-.0687c-.2261-.0206-.44-.0459-.6439-.0748-.1334-.019-.2641-.0389-.3871-.0616q1.0567.7722,2.0635,1.5084l.1425.1043c1.6546,1.21,3.2058,2.3454,4.6264,3.386l.2451.18q1.1755.8612,2.2231,1.6295l.1816.1331.3957.29q.2441.1789.48.3518.8247.6048,1.5432,1.1324l.3964.291c.8954.6573,1.6408,1.2049,2.2281,1.6366l.3062.225.021.0155.6343.4663.2751.2024.1742.1281.0754.0556s-1.0316-5.4474-.0074-6.0222l-.4865-6.8482c-1.8673.3939-4.3516.7761-6.8564,1.0336-.5137.0529-1.0281.1-1.5381.1418-1.3976.1134-2.7614.18-3.9841.18m105.7493,51.2346q.4739-.6454.9373-1.2742l.1026-.1393q1.2037-1.6331,2.327-3.1406l.1311-.176q1.0913-1.4631,2.0858-2.7771l.1654-.2185c.3194-.4212.6314-.8311.9329-1.2247l.1006-.1311q.4138-.54.8018-1.04c.0454-.0583.0913-.1181.136-.1757q.4133-.5322.7965-1.0181c.0413-.0524.08-.1016.1212-.1531q.3339-.4221.6414-.8041c.0408-.0507.0832-.1039.1233-.1535q.3329-.4118.6311-.7714c.0435-.0524.0845-.1011.1267-.1519.1739-.208.3386-.4025.4929-.5812.0264-.0306.0549-.0645.0808-.0942.169-.1943.3232-.3662.4664-.5217.0329-.0358.0639-.0684.0954-.1021.1277-.1362.2461-.2581.35-.3588l.0352-.0351a3.2509,3.2509,0,0,1,.2817-.2423c.0193-.0145.0371-.0269.0548-.039a.4927.4927,0,0,1,.1832-.0916h0c.5251-.0505,1.0881-.1117,1.64-.1776.1379-.0165.2755-.0332.4112-.05.8152-.1017,1.578-.21,2.1236-.3049.1817-.0315.3394-.0614.4668-.0891a1.2088,1.2088,0,0,0,.3485-.106c.0117-.01.0182-.0447.02-.1023.0147-.4031-.1849-1.9079-.31-3.5009-.0179-.2276-.0339-.4569-.048-.6851-.0278-.4565-.0462-.9084-.0482-1.332a10.5931,10.5931,0,0,1,.0491-1.1625,3.1967,3.1967,0,0,1,.1868-.8511.9232.9232,0,0,1,.1579-.2646,13.04,13.04,0,0,1-2.1774-3.8622l-10.4944,4.0031-13.9936,6.8356c3.0437,5.3467,7.1086,12.7506,9.4656,17.0653m78.6709-70.6211h0M429.1373,267.0385c-8.6922,0-18.3,2.8491-27.0688,8.0242-1.7741.9592-3.5743,2.0026-5.4984,3.1865a46.567,46.567,0,0,0-8.6552,6.6944,73.31,73.31,0,0,0-5.0959,5.2945l-1.4978,1.4633c-2.19,2.1393-9.1479,9.0051-11.86,12.4824-3.655.0971-5.237.4531-6.7609,1.3672a19.2142,19.2142,0,0,0-5.2016,5.6572c-4.0062-1.0548-11.8141-3.59-18.3252-5.8941l-.628-.2223-.6588-.1a120.578,120.578,0,0,0-13.52-1.3516c-.6384,0-1.1986.0227-1.7128.0694a9.4419,9.4419,0,0,0-1.3808.233,14.5671,14.5671,0,0,0-1.9049.6191c-.7477.2948-1.59.6757-2.5782,1.1652-5.6141,2.782-15.0574,8.7118-18.81,11.1013-1.7285.09-4.4891.24-7.6966.44l.3786,6.99-.4332-6.9866-.64.04-.6026.0384-.8906.0575-.7492.0494-.5562.0371-1.1584.0789-.2193.0153-.1767.0124-.9738.0688-.1122.0081-.32.0229-1.2531.0922-.1916.0145-.1906.0143-1.1621.0892-.0671.0052-.163.0127-1.3129.1054-.386.0319c-.4457.0368-.8952.0745-1.3406.1131h-.0005l-.052.0046q-.66.0572-1.3067.1163l-.1044.01-.2.0183q-.6606.0607-1.3.1225l-.1242.0123-.0854.0085q-.5887.0575-1.1566.1161l-.0809.0083-.1517.0156c-.4143.0432-.8238.0874-1.2256.1321l-.1319.0148-.11.0124c-.401.0451-.7936.0906-1.174.1367l-.07.0084c-.382.0464-.7659.0953-1.1409.1448l-.1552.0206-.06.0079q-.577.0774-1.1045.1546l-.024.0035-.0671.01c-.3264.0484-.6456.0988-.9537.1494l-.1994.0327c-.3345.0562-.6535.113-.9541.17l-.1332.026c-.3266.0637-.6055.1219-.8662.18l-.1248.0275c-.3271.075-.62.15-.8916.2246l-.18.0511c-.4039.1171-.7171.2195-1.0108.33-4.3659,1.6372-17.5561,10.3921-21.4946,13.0363-.9819.6593-1.95,1.3143-2.89,1.9568q-.7065.4826-1.3923.9556c-.9156.6313-1.7984,1.2462-2.6352,1.8359q-.632.4454-1.2269.87c-1.666,1.1892-3.0573,2.217-4.1354,3.0549q-.1251.0972-.2449.1913c-5.2062,1.6286-8.0239,3.06-9.4976,5.9725-.7429,1.4684-1.5847,3.132-.2291,19.2512.24,2.8576.6364,7.0154,1.1584,10.5954.1021.7.2031,1.3513.3071,1.96-6.5992-2.8666-14.8725-6.0715-18.1-6.0718-.1246,0-.2421.0027-.3551.0076-7.4026.3267-23.86,7.2053-28.7273,9.3057l-1.4673.6331-1.0471,1.2071c-2.8961,3.3387-9.2359,14.59-19.34,32.6718-6.9652,12.4644-17.3435,31.0366-20.49,35.0186-4.67,2.5359-15.6625,10.3-16.5109,18.0542-.0768.7017-.2912,2.25-.54,4.0418-.45,3.25-1.0451,7.5436-1.5,11.6024l-11.494,16.413a9.91,9.91,0,0,0-4.7165,5.5374q-.07.22-.1283.4416c-6.5594,5.8641-13.2014,11.7668-14.0868,12.4854-1.424,1.1392-3.1971,2.5576-7.1329,16.8637a16.087,16.087,0,0,0-2.471,6.3939,9.7526,9.7526,0,0,0,5,10.4553,23.3821,23.3821,0,0,0,6.7611,2.1756c.6139.13,1.2492.2646,1.8914.4175.9739.2319,1.9564.4827,2.9149.7272a39.2567,39.2567,0,0,0,8.9266,1.6349,9.8991,9.8991,0,0,0,3.3434-.5347c1.0093-.3563,2.5341-.8943,35.0343-22.63l3.1162-2.084-.0065-3.2078c1.2994-2.8221,2.237-7.3295.3936-13.7734a64.4977,64.4977,0,0,1,8.8466-7.4478c.5028-.0676.9851-.15,1.452-.2487,7.4294-1.564,21.2347-5.9763,26.651-11.1577.2666-.2551,1.1019-.9624,1.91-1.6465l.2848-.2412.6572-.5575.1627-.1388.1175-.1.6479-.5535.2791-.24.11-.0951.6286-.5432.4405-.3833.68-.5961.4552-.4018c.2442-.2164.4941-.44.7468-.6664l.1081-.0968.3415-.3066c.29-.2623.5859-.532.8836-.8045l.1307-.1194.2394-.2191q.6392-.5891,1.3021-1.2133l.1076-.1026c.4179-.3953.8192-.7785,1.2249-1.1708l.2857-.2787.1384-.1355c.3125-.3047.6267-.6126.944-.928l.4079-.4086.1029-.1035q.4379-.44.8826-.8946l.5481-.5654q.4373-.4534.8771-.9195c.1824-.1931.3645-.3864.5474-.5825q.4563-.49.91-.9891l.1357-.1487.3792-.4177c.3427-.3816.6839-.77,1.0246-1.16l.1276-.145.2629-.3q.7169-.8307,1.42-1.68l.106-.1306c.41-.4971.8436-1.0361,1.2729-1.5813.1-.1268.1964-.2525.2929-.3783l.131-.17c.3134-.4044.625-.81.932-1.2212.1311-.1756.26-.3522.3893-.5291l.1058-.1448q.42-.5738.8311-1.1554.2549-.3616.5048-.7265.3991-.58.7872-1.1688c.1653-.25.3287-.499.4894-.7494.2583-.4021.5122-.8107.7638-1.2208l.0974-.1584c.1174-.1907.2346-.3814.349-.5736.2734-.4592.5359-.92.7956-1.3829l.0932-.1636c.0871-.1522.1739-.3046.2576-.4581.3946-.7221.7453-1.3942,1.0714-2.053l.0459-.0926.0314-.0679c.3058-.6227.61-1.2767.9009-1.9346.0771-.1745.15-.35.2231-.5264l.0694-.167c.205-.4835.4065-.97.5949-1.4587.0863-.2238.1675-.4473.2482-.671l.0593-.1639c.1662-.4573.3266-.9143.4765-1.373.0981-.3.1907-.6006.2817-.9014l.0269-.0893c4.2071,2.9976,10.3622,7.9094,14.5413,11.2443,13.4108,10.7019,16.6126,13.0318,20.0526,13.3884,1.1678.1211,2.25.2295,3.2542.33a75.9925,75.9925,0,0,1,7.93,1.0162c.2122.3765.4626.83.7459,1.3421l.6086,1.0977.3386.6072c.1674.2993.3427.6105.5214.9265l.3561.6266q.4047.7088.836,1.4463.4178.7136.8576,1.4425.3671.608.7461,1.2182.329.528.6657,1.0506c.2635.41.5285.8162.796,1.2154.3409.5086.6851,1.0077,1.0306,1.4915.812,1.1371,1.579,2.1209,2.33,2.9879-10.0335,14.1557-21.9914,32.3736-25.1575,37.7736-.7056.7428-2.7566,2.6505-4.2859,4.0731-5.3472,4.9738-8.9734,8.4161-10.5941,10.8471-1.4708,2.2062-2.6325,3.9488-2.6325,45.3481,0,17.0881.2773,39.8071.6216,42.39.4705,3.5283,3.1479,6.07,8.8123,9.7573,1.0352,5.0242,2.5347,12.058,3.4951,16.5406a9.7206,9.7206,0,0,0-1.417,3.8109c-17.3754,16.7848-17.8287,22.4772-18.0031,24.6748a88.6356,88.6356,0,0,0,.047,13.7809,14.7036,14.7036,0,0,0-.2679,3.9685l.1769,2.1436,1.35,1.6744c3.0063,3.7285,8.0358,5.619,14.9487,5.619,4.7471,0,10.4871-.9745,12.4477-1.8459,1.0447-.4643,1.6754-.7445,6.3178-5.5236,1.656-1.7048,4.957-5.1714,8.4592-9.2352,11.9531-13.87,13.1326-19.3184,12.6267-23.1406a17.1785,17.1785,0,0,0-2.7151-7.7692l6.1467-13.8q.54-.419,1.0787-.8415l.2187-.1714.73-.5753.3474-.275.6081-.4839.4433-.3547.4969-.4.4676-.3788.05-.0408.3683-.3.4689-.3857.0894-.0737.2442-.2021c.1731-.1442.3268-.2742.4791-.4031l.0629-.053.1637-.1387c.2383-.2039.45-.3885.62-.542a7.4374,7.4374,0,0,0,1.6446-2.1493l.1845-.36.1151-.3043c.0729-.1776.1537-.39.235-.6475.0435-.1389.0862-.29.1252-.4419.0434-.1615.0832-.3194.1225-.5016.0224-.1043.0446-.2187.0655-.3336.03-.1606.055-.2978.0792-.4518.0142-.09.0284-.1912.0421-.292.0236-.1716.0416-.3056.0588-.4524l.0329-.3033c.0171-.1656.0309-.303.0438-.4493l.0245-.2958.0353-.4755.0215-.3408.0267-.4782.0176-.3675.02-.4869.0142-.398.0156-.5211.01-.4.0116-.5745.007-.4111.0076-.6245.0013-.1207.0027-.2736.0037-.6783.0007-.1647.0009-.249,0-.7174,0-.1625,0-.2484-.005-.8828-.0006-.1028-.0011-.1835c-.01-1.206-.0279-2.49-.0535-3.8375l-.0021-.1014-.0016-.079-.0244-1.184-.004-.1773-.0017-.0721-.0263-1.1232-.0058-.2307-.0038-.1489-.0271-1.0406-.0065-.2353-.0049-.176-.03-1.0573-.0114-.3862-.0339-1.1119-.0056-.1781-.0061-.194-.0363-1.1246-.0149-.4476-.0354-1.043-.0176-.5041-.0395-1.1091-.0084-.2295-.0064-.1763-.0447-1.2024-.0129-.3447-.049-1.2738-.0064-.1667-.0061-.1565-.0547-1.3768-.0073-.183-.0628-1.5375-.0029-.0707c-.3725-8.9926-.83-18.1645-1.1984-25.5343-.2077-4.16-.3831-7.6717-.4888-10.0751,6.9975-4.507,27.7029-15.8763,37.1913-21.0863,6.2384-3.4254,9.5468-5.2454,10.6887-5.9433.071-.0433.1435-.0886.2181-.1365-.0793.1945-.1506.3934-.22.6027-.4495,1.3486-3.0875,10.3524-3.6118,12.1437-1.8114,6.1827-2.6384,9.0053-.8042,12.0359l1.5953,2.6359,2.1967.45a10.5253,10.5253,0,0,0,3.7063.8749,7.21,7.21,0,0,0,4.4142,4.4518,10.7665,10.7665,0,0,0,3.5306.5875,10.4143,10.4143,0,0,0,4.7244-1.1355,6.891,6.891,0,0,0,3.1218,2.5659,7.6751,7.6751,0,0,0,3.0432.609,12.3743,12.3743,0,0,0,7.3987-2.8014,9.1437,9.1437,0,0,0,2.2643.2828,9.2739,9.2739,0,0,0,6.8617-3.0778c2.0779-2.3018,3.0446-5.5319,2.8817-9.6161q.06-.2176.1159-.4367c.8906-3.5115,1.3371-5.4033,1.5661-6.4885l4.48-10.126c.3525.0921.6955.1768,1.0344.2571l.25.0578c.3769.0866.7056.158,1.0275.2234l.2294.0471c.3846.0759.7642.144,1.1316.2037l.2092.0323c.35.054.6564.0958.9524.1314l.2781.033c.386.0421.759.0742,1.1085.0942.0733.0044.151.0076.2294.01.2584.0115.503.0167.7375.0167l.1918-.0012c.1094-.0014.2132-.0034.3134-.0068a12.0139,12.0139,0,0,0,1.3061-.1088,8.1265,8.1265,0,0,0,2.0785-.6c.1006-.0429.2309-.1025.36-.1647.2339-.1116.4873-.2426.766-.4.092-.0516.1682-.0947.2516-.1439.2672-.1577.5473-.33.8641-.5384l.0543-.0356.0345-.0235c.2372-.1567.5053-.34.7879-.5379l.2343-.1656c.2593-.1841.4957-.3547.7433-.5362l.0741-.0541.19-.1395c.323-.2389.6589-.49,1.0172-.7632l.0886-.0681c.3326-.2539.6731-.517,1.0252-.7913l.2708-.2117.0656-.0514q.4451-.3484.9174-.7234l.1078-.0854.2185-.1735q.6206-.4945,1.2883-1.0334l.0681-.0552.05-.04q.6122-.4952,1.257-1.0223l.353-.2889.05-.0413q.548-.449,1.1193-.9205l.13-.1069.2431-.2007c.5007-.4142,1.01-.837,1.5321-1.2725l.1315-.11.05-.0417c.46-.3839.9353-.782,1.4178-1.1874l.4023-.3383.0644-.0543L406.76,544.32l.1576-.1332.2211-.1869q.8546-.7234,1.7391-1.4763l.0971-.0828.103-.0879,1.5792-1.3483.48-.4106,1.4937-1.2819.1685-.1447.1819-.1563,1.9092-1.6461.1721-.1489,1.7327-1.5.4626-.4014,1.6869-1.4664.0855-.0744.1656-.1441,2.0586-1.7961.0729-.0638,1.9226-1.6831.3666-.3215q2.0543-1.802,4.116-3.6212l.1171-.1033,1.9392-1.7138.2762-.2445c2.0792-1.8406,4.1424-3.6747,6.1642-5.48l.1391-.1244.07-.0624q2.0379-1.82,4.0086-3.5894l-4.6359-5.2452,4.6749,5.21,1.8932-1.7028.1539-.1386c19.7746-17.8141,20.85-19.4525,21.4275-20.3327,1.52-2.3156,2.7157-5.6424.698-20.6338l.0011-.033c.0049-.1474.0134-.3152.0245-.5016l.0088-.1284.0005-.0225c.1093-1.7064.4247-4.7892.87-8.4981.0659-.5493.1318-1.0885.2-1.6369l.0085-.0684.0067-.0539q.0981-.79.2017-1.6l.029-.2272c.0681-.5312.1383-1.0732.21-1.6217l.0237-.18c.0748-.5674.15-1.1285.2262-1.6944l.0222-.1644c.0829-.6117.1618-1.1883.2423-1.7682l.0081-.058.0139-.1c.0814-.5847.1659-1.1857.2517-1.7883l.01-.0726q.1279-.897.2591-1.792l.0114-.0786c.09-.6161.1772-1.2.2649-1.7827l.0323-.2163c.0828-.5483.1668-1.0974.2512-1.6437l.0381-.2464.01-.0667c.0814-.5233.1639-1.0472.2469-1.5671l.0175-.11.0329-.2061q.1247-.7783.25-1.5409l.0492-.2968q.1258-.76.2511-1.4934l.0371-.2161.0128-.0742q.1273-.7407.2531-1.45l.0183-.1017.0233-.13c.0858-.48.1718-.9532.2576-1.4137l.0137-.073.0182-.0969c.0865-.4625.1734-.92.26-1.3614l.0005-.0026.0191-.0974c.0828-.4214.1666-.8372.25-1.24l.0171-.0834c.09-.4314.17-.805.25-1.1661l.0329-.15c.0763-.3422.1508-.6629.2244-.97l.0345-.1439c.0692-.2853.1367-.5516.2034-.8033l.0252-.0948c.0361-.1341.07-.256.1022-.37,4.0686-4.3546,7.223-15.1933,7.223-18.4414a7.801,7.801,0,0,0-.46-2.5991c-.049-.1406-.1135-.3087-.1833-.476-.08-.1992-.1748-.4205-.2969-.6785-.0473-.1-.1031-.2129-.16-.3267l-.0025-.005-.0214-.0428c-.0893-.1772-.187-.3657-.2974-.57-.0621-.1152-.1274-.2352-.1982-.3625-.1053-.1892-.22-.3893-.3394-.5962l-.0371-.0644-.1784-.3068c-.1317-.2232-.2764-.4632-.4247-.7075l-.0571-.0948-.143-.2361q-.3166-.5158-.6731-1.0824l-.2174-.3423-.1095-.1719-.0393-.0619-.3988-.6252-.3961-.6126-.4291-.66-.4913-.75-.3706-.562-.5728-.8647-.1956-.2932-.1056-.1581c-1.0557-1.582-2.2527-3.351-3.5579-5.2586l-.0349-.051-.998-1.4547q-1.545-2.2466-3.2748-4.7327a115.1147,115.1147,0,0,0,13.87-20.047c7.1167-13.4455,10.7012-26.4783,10.6545-38.7378a56.5255,56.5255,0,0,0-6.6838-26.76c-5.0916-9.5063-13.1076-18.0012-23.8271-25.2513a44.9523,44.9523,0,0,0-24.9727-9.5323c-1.0638-.0876-2.156-.1321-3.2482-.1321ZM298.9508,382.2315l.0971-.01c.8924-.0929,1.8133-.1917,2.7506-.2961,2.6031-.29,5.0256-.59,7.2-.8917q.7211-.1,1.4284-.2036.3862-.0565.7674-.1141l-2.2207,7.3229a30.6917,30.6917,0,0,0-3.8662,2.1971c-.4825-.6268-1.0147-1.3174-1.6028-2.0805-1.42-1.842-2.9969-3.8885-4.5542-5.9239Zm93.6543,86.6073,2.4018-1.1732q-.2333.2979-.4769.6116l-.0767.0991-.0542.07c-.2758.3559-.55.7113-.8332,1.0808l-.0293.0381-.0731.0954q-.1156.1509-.233.3047-.312-.5627-.6254-1.1265Zm-45.42,66.91c.6157-.769,1.2165-1.5235,1.7958-2.254l.6225.8661-.1777.1c-.76.4265-1.525.8676-2.2406,1.2882Zm-8.4933,10.28.155-.18.0526-.061q.1566-.1817.3148-.3662c-.0215.0779-.0425.1559-.0634.2347-.1564.1265-.3088.25-.459.372Z" transform="translate(-72.0804 -63.2079)" style="fill:#fff"/></g><path d="M334.8908,394.3586c.1992.6506,8.4479,9.69,17.8128,3.1676s6.9122-14.6605,6.522-14.8278-10.07-5.8531-12.0028-5.7973a15.8715,15.8715,0,0,0-6.8385,1.6723,11.2268,11.2268,0,0,0-4.2922,5.0727C335.8085,384.4347,334.5416,393.2185,334.8908,394.3586Z" transform="translate(-72.0804 -63.2079)" style="fill:none;stroke:#36a9e1;stroke-miterlimit:10;stroke-width:0.5px"/><path d="M316.0659,418.8563s-5.3818-7.6087-5.289-10.578a16.5855,16.5855,0,0,1,2.6439-7.7015c1.0677-1.67,4.2225-5.0106,6.1711-4.9178s10.187,3.0495,11.0291,3.5761c.6517.4076,3.3533,2.7336.9408,7.4659s-8.0727,10.3-11.4131,12.1554S316.0659,418.8563,316.0659,418.8563Z" transform="translate(-72.0804 -63.2079)" style="fill:none;stroke:#36a9e1;stroke-miterlimit:10;stroke-width:0.5px"/><path d="M229.86,372.6267a11.3081,11.3081,0,0,0,3.5864,8.2625l.4259.3613c3.2848,2.7861,10.0944,2.2732,12.4459.02a14.414,14.414,0,0,0,3.2957-4.7587c1.4747-3.41.8084-4.7167.058-7.3237h0c-.5861-1.8756-.1978-2.83.6966-3.5288l12.0779-8.95a3.8081,3.8081,0,0,1,2.6251-.7678l23.3272,1.935a3.8081,3.8081,0,0,0,2.9833-1.0783l6.6588-6.54a3.8081,3.8081,0,0,1,1.9193-1.0169l.423-.0849c5.6078-1.1251,11.0674-3.6114,11.8351-6.7737s.7565-6.7751-.3612-8.7615a8.2713,8.2713,0,0,0-4.1091-4.0188,15.4177,15.4177,0,0,0-5.0122-.9292c-3.5265,0-6.2044,1.1744-8.7067,5.8074h0a9.374,9.374,0,0,0-.4645,7.0014h0a4.9725,4.9725,0,0,1-.42,3.95L290.03,350.97a3.8081,3.8081,0,0,1-3.1233,1.9363L263.3517,354.12a3.8081,3.8081,0,0,0-1.9333.6458l-13.3433,9.1773a3.3418,3.3418,0,0,1-3.4259.23l-1.6094-.821a7.0821,7.0821,0,0,0-4.5539-.2808,13.4446,13.4446,0,0,0-5.0833,2.4674A8.8811,8.8811,0,0,0,229.86,372.6267Z" transform="translate(-72.0804 -63.2079)" style="fill:#e1f2f7"/><circle cx="167.9189" cy="310.3365" r="8.5088" style="fill:#e0e0e0;stroke:#d4d4d4;stroke-miterlimit:10;stroke-width:0.5px"/><path d="M237.168,371.372a11.7359,11.7359,0,0,1-5.1766-.6814,8.4894,8.4894,0,0,0,8.0079,11.3626s-.4744-3.627.87-5.1525Z" transform="translate(-72.0804 -63.2079)" style="fill:#d4d4d4"/><circle cx="165.0876" cy="312.1673" r="4.0031" style="fill:#a6a6a5;stroke:#d4d4d4;stroke-miterlimit:10;stroke-width:0.25px"/><circle cx="230.9034" cy="275.0717" r="8.4331" style="fill:#e0e0e0;stroke:#d4d4d4;stroke-miterlimit:10;stroke-width:0.5px"/><path d="M302.9839,329.8465a8.43,8.43,0,0,0-8.2031,6.5053,6.989,6.989,0,0,0,2.7445-2.01c.9067-1.2839,7.3394-2.1133,7.3394-2.1133s2.4066.5873,3.6194-.3327A8.3923,8.3923,0,0,0,302.9839,329.8465Z" transform="translate(-72.0804 -63.2079)" style="fill:#d4d4d4"/><circle cx="230.0876" cy="273.4538" r="5.1932" style="fill:#a6a6a5;stroke:#d4d4d4;stroke-miterlimit:10;stroke-width:0.25px"/><circle cx="305.8837" cy="371.6391" r="10.1187" style="fill:#009fe3;stroke:#39a8e0;stroke-miterlimit:10"/><circle cx="306.7116" cy="373.4957" r="5.2132" style="fill:#2d2e83;stroke:#39a8e0;stroke-miterlimit:10;stroke-width:0.5px"/><path d="M380.1959,441.7209c-3.2437,1.3636-9.2865-2.5358-12.0085-4.4919a10.1089,10.1089,0,0,0,19.778-4.1609C386.2522,437.553,384.1,440.08,380.1959,441.7209Z" transform="translate(-72.0804 -63.2079)" style="fill:#36a9e1"/><path d="M371.5237,457.94s5.5423-1.3712,7.6927,1.5786,15.0328,26.6893,15.0328,26.6893l-16.0925,5.6076-16.4778-30.1061Z" transform="translate(-72.0804 -63.2079)" style="fill:#fff"/><path d="M335.3561,418.0029s10.5853,4.6648,11.4329,5.2515-2.8034,8.3316-2.8034,8.3316l-18.8417-5.9194Z" transform="translate(-72.0804 -63.2079)" style="fill:#ffe255"/><path d="M349.2183,426.2149s8.781-4.2064,24.2661,22.3558c2.6664,4.5738-3.6647,11.8148-3.6647,11.8148l-20.6014-33.2792Z" transform="translate(-72.0804 -63.2079)" style="fill:#fff"/><rect x="307.5813" y="435.0665" width="57.2583" height="38.8771" transform="translate(-274.1334 218.425) rotate(-35.7033)" style="fill:#009fe3"/><path d="M339.825,444.441s-1.2806,3.4957,1.419,3.98l6.31-7.39-4.6139-2.785Z" transform="translate(-72.0804 -63.2079)" style="fill:#ffe255"/><path d="M338.7428,421.4622s16.0849,17.83,16.145,18.4891-3.3493,3.378-6.6556.3723-14.1439-15.223-14.1439-15.223Z" transform="translate(-72.0804 -63.2079)" style="fill:#ffd72f"/><path d="M336.7561,426.6985s11.4892,12.9028,10.7977,14.3322-4.6711,1.326-6.242.3042-9.8968-9.48-9.8968-9.48Z" transform="translate(-72.0804 -63.2079)" style="fill:#ffd72f"/><path d="M332.246,447.14c.4072.0766,3.4872-4.523,3.4872-4.523l-4.3183-1.0358S328.7588,446.4836,332.246,447.14Z" transform="translate(-72.0804 -63.2079)" style="fill:#ffe255"/><path d="M336.1476,448.4212l5.3171-6.7023-3.3146-1.6228-3.28,1.83S331.59,449.7374,336.1476,448.4212Z" transform="translate(-72.0804 -63.2079)" style="fill:#ffe255"/><path d="M331.0086,436.5073s4.5481,5.4,4.7246,6.1093c0,0-1.6214,2.0419-4.57-.513l-5.0205-.7686.7813-4.8276Z" transform="translate(-72.0804 -63.2079)" style="fill:#ffd72f"/><path d="M333.6242,434.0782s7.664,6.9312,7.84,7.6408c0,0-2.4432,3.08-5.535-.384l-7.484-2.0543.7813-4.8276Z" transform="translate(-72.0804 -63.2079)" style="fill:#ffd72f"/><path d="M370.721,453.6282l-46.4966,33.4153s-1.5085,1.0956.8469,4.3732,4.0266,2.2738,4.0266,2.2738l46.4966-33.4153s-1.5375,1.19-4.0708-2.3353S370.721,453.6282,370.721,453.6282Z" transform="translate(-72.0804 -63.2079)" style="fill:#36a9e1"/><rect x="335.0724" y="473.3198" width="57.2583" height="38.8771" transform="translate(-291.2906 241.6582) rotate(-35.7033)" style="fill:#009fe3"/><path d="M314.6509,418.0029s19.4887-.4055,20.7052,0,2.9172,2.4289,3.3866,3.4593-1.055,4.5492-1.4605,5.7657-3.3453,7.3843-6.0824,9.7239-2.23,4.9753-6.5893,4.2656-10.6442-2.94-11.4552-3.7508-2.3265-4.691-2.38-5.1839S311.8888,418.51,314.6509,418.0029Z" transform="translate(-72.0804 -63.2079)" style="fill:#ffe255"/><path d="M470.2835,410.71c-1.8163-3.2563-5.4241-8.7462-9.3864-14.5612-2.8977-2.05-6.5366-4.1995-9.8354-4.8747-4.317-.8836-8.2285,3.6727-10.5347,7.1712A1.9719,1.9719,0,0,0,442.41,401.48a43.83,43.83,0,0,1,14.8965.7189A21.74,21.74,0,0,1,470.2835,410.71Z" transform="translate(-72.0804 -63.2079)" style="fill:#d1d0d1"/><path d="M435.94,63.2445c.68,4.0226-1.3073,10.201-6.05,18.9747-10.209,18.8862-32.1709,47.897-65.2744,86.2256a158.4977,158.4977,0,0,0-35.1562,70.396c-4.6611,21.2314-5.4736,44.29-2.4141,68.5361,5.2295,41.4331,20.4927,72.4981,20.6421,72.8033,1.2139,2.48-.231,5.1045-2.7115,6.3183a4.997,4.997,0,0,1-6.6885-2.2935c-.64-1.3071-15.7275-32.5093-21.1631-75.5762-7.2393-57.3633,6.5654-108.0981,39.9229-146.72,65.457-75.7881,68.5307-96.2916,68.6655-98.7008m1.3257,3.5128.01.01Zm-.0088-.01.0029.0034Z" transform="translate(-72.0804 -63.2079)" style="fill:url(#Sfumatura_senza_nome_255)"/></svg>