<svg id="Livello_7" data-name="Livello 7" xmlns="http://www.w3.org/2000/svg" width="81.4046mm" height="42.9389mm" viewBox="0 0 230.7531 121.7166"><title>astromano</title><path d="M-.02,249.6554l125.833,58.2283,36.8888-5.1669,24.3939,1.665s-1.2228,7.8856-5.79,8.5511-15.2492,1.6471-15.2492,1.6471,43.6016,11.48,45.7074,12.6855S230.733,350.57,230.733,350.57a8.5392,8.5392,0,0,1-7.0413.8228c-3.691-1.3635-17.3513-14.2139-17.3513-14.2139l-19.2668-5.676,21.59,12.9966,20.6835,18.069s-3.2868,3.4981-8.886,1.036-17.7785-11.7486-17.7785-11.7486l-21.237-10.5s16.089,13.4206,17.4887,15.1858,10.1969,14.4534,10.1969,14.4534-4.9208,1.3734-8.8015-1.1256-9.454-10.1982-9.454-10.1982l-15.7471-8.0511s8.482,7.0877,9.1623,9.5278,2.588,8.1574,2.588,8.1574-5.9924,1.277-7.9834-.9221a38.5664,38.5664,0,0,1-4.0539-5.9487s-45.3523-15.5174-47.3484-17.6722-12.827-11.12-12.827-11.12L-.02,300.1352Z" transform="translate(0.0201 -249.6554)" style="fill:#7ccef4"/><path d="M127.4934,344.7628c1.0505,1.134,14.11,5.9691,26.2468,10.2957h0L118.5822,326.001-.02,280.0554v20.08l114.6865,33.508S125.4973,342.608,127.4934,344.7628Z" transform="translate(0.0201 -249.6554)" style="fill:#4c85c5;opacity:0.39"/></svg>