<svg id="Livello_4" data-name="Livello 4" xmlns="http://www.w3.org/2000/svg" width="124.57373mm" height="135.2343mm" viewBox="0 0 353.12238 383.34132">
  <title>combradonna</title>
  <g style="opacity: 0.11">
    <path d="M1222.56259,827.13222c-1.39972-4.31442-36.48822-50.29691-44.08328-51.70868-3.34723-1.47989-9.97168-6.77493-15.72818-11.77023a79.1479,79.1479,0,0,0-11.16718-11.95731c-4.35992-6.12015-18.03912-19.69028-20.41031-21.00479-2.59994-1.46661-6.57144-.53265-12.171-2.18835-5.59936-1.65009-7.82672-7.287-8.08459-8.84723,11.22336-3.48654,1.91159-1.77274,15.81216-6.52933,13.90015-4.83627,14.75848-32.43729-11.09036-34.07513.00009.00018-.05942.02594-.14941.06613-3.77246-.07086-8.04413,1.51611-10.1477,2.37894-2.64273,1.07761-1.91092,2.55179-4.68854,3.6907-3.822,1.585-4.67615,4.23318-7.07605,7.35593a10.06531,10.06531,0,0,0-1.4079,2.57184l-.00409.0061a30.602,30.602,0,0,0-4.1405,15.01813l.00018.00006c-2.194,4.3454-4.86206,9.10828-5.64627,9.89658-1.4,1.38739-7.599,2.17047-9.59891,1.71976-1.99982-.43356-6.19916-5.2822-13.99829-5.14355-7.79912-.16895-28.5367,17.3399-47.71343,18.44305-11.57994.69733-42.22951,8.14325-44.89,8.02869-2.66022.23782-12.49219-.75931-14.8056-.868a3.09724,3.09724,0,0,0-1.41028.39816l-.00633.00653c-.15225.065-.31451.13916-.4814.21848q-4.2697-7.6127-8.53943-15.44339c-5.375,4.02789-10.75,7.86823-16.125,11.42865q.24346.45461.48688.90887l-.00579-.00137q-.2512-.4687-.50244-.9379a2.06359,2.06359,0,0,0-2.68678,1.47849c-5.44977.74969-10.89957,1.26117-16.34935,1.47662q1.1751,2.2576,2.3502,4.51184a14.91376,14.91376,0,0,1-2.15479.05768s.20306.40738.53613,1.01077c7.78161,14.67368,15.56319,29.14987,23.3448,42.93329,0,.008,3.49773,2.63861,5.29956,3.0838q.80724,1.43623,1.6145,2.8623a28.23886,28.23886,0,0,0,4.49188-8.57712q1.53188,2.65773,3.06372,5.27832-2.31519,3.0406-4.461,6.15509c-16.16116,23.40457-22.92909,48.87613-20.76389,75.235,2.16515,25.9267,13.26344,52.74091,32.83469,68.84546l.1017.09082c-4.39114,5.78357-10.42993,12.452-15.69594,20.09131-12.17736,17.62512-21.95353,40.47107-25.75374,44.66144a79.48528,79.48528,0,0,0-10.31488,14.40869,42.82518,42.82518,0,0,1-2.29388,3.898,53.43321,53.43321,0,0,1-7.61176,3.70422c-4.25976,1.47729-4.06828,3.0863-3.68541,4.88037.38275,1.79529,2.7099,1.46106,3.79912,3.50763-3.3792,4.02307-8.02418,9.3352-8.78625,10.9035-.84234,1.58148-2.32912,2.11127,7.08831,9.78961.7712.60785.18807,2.76508,1.813,3.17444a14.09372,14.09372,0,0,0,7.63092-1.25012c2.14434-1.19513,7.56789-9.03,8.52088-13.985a27.35649,27.35649,0,0,1,.93878-3.5918l.03259.00391c4.77825.51849,12.88483-4.95941,16.87706-8.501,3.99226-3.56921,10.64622-6.62073,14.39656-8.89624,3.75047-2.27374,4.66679-4.04816,4.84454-8.78577.11047-2.9632,5.9126-8.42914,13.528-15.45178l.00287.00458c4.62581-4.26746,9.91582-9.13611,15.004-14.34094,6.562-6.69861,12.004-17.33484,16.49175-27.99261,46.343,7.526,105.88373-23.798,148.30594-69.54919,32.19076-34.2316,44.91391-64.3858,39.51343-94.60535a150.9412,150.9412,0,0,0,12.30981,8.89273c13.79834,8.6926,28.19684,27.28305,28.19659,27.38507,0-.00354,0,6.36163,0,8.37289.0004,1.913,8.19888,20.68878,8.9989,21.36719.8.577,2.59985-1.04346,2.59973-1.03857-.00006.00305.7998,5.34595,2.59964,6.69617,1.79968,1.34753,2.79956-15.70871,2.79968-16.80057C1234.16125,848.94433,1223.9627,829.42272,1222.56259,827.13222ZM948.12246,985.9529c.66838-1.33038,1.63451-3.03632,2.75714-4.92316C949.46266,983.588,948.49217,985.30074,948.12246,985.9529Zm-1.678-203.88062a2.28971,2.28971,0,0,1,2.03973-.50494l-.045-.07764.00519-.00015.06116.1055.15-.11133c3.48169-.32867,7.85-4.74243,10.816-8.31622q2.57945-2.04492,5.15894-4.1405-3.57623-5.96608-7.15247-12.1416c3.33873-.25363,6.897-1.5408,9.653-2.02246,2.49463-.4057,10.7572.27985,16.46161.38928a184.18155,184.18155,0,0,0-36.71539,34.35693C946.85392,787.62832,946.73362,785.14773,946.44448,782.07229Z" transform="translate(-881.03884 -679.05117)" style="fill: #312783"/>
  </g>
</svg>
