<svg id="Livello_5" data-name="Livello 5" xmlns="http://www.w3.org/2000/svg" xmlns:xlink="http://www.w3.org/1999/xlink" width="102.52945mm" height="151.55622mm" viewBox="0 0 290.63466 429.60817">
  <defs>
    <linearGradient id="Sfumatura_senza_nome_17" data-name="Sfumatura senza nome 17" x1="156.80296" y1="72.65263" x2="156.80296" y2="-1.48896" gradientUnits="userSpaceOnUse">
      <stop offset="0" stop-color="#ededed"/>
      <stop offset="0.99883" stop-color="#ededed" stop-opacity="0"/>
    </linearGradient>
  </defs>
  <title>donnina</title>
  <path d="M271.09532,435.8169s12.9321-9.042,13.56294-9.042,40.58368,7.99057,41.84535,8.20085,13.14238,5.257,14.40405,6.62376-22.257,2.75025-22.257,2.75025Z" transform="translate(-161.87238 -220.29405)" style="fill: #f6f6f6"/>
  <path d="M289.47208,488.9368s29.83484-1.918,38.57218-8.52424-24.58834,40.06482-34.45547,69.05635c-4.56671,13.41786-10.75524,11.5282-12.85405,20.44817-.85242,3.6228,5.32765,5.11454,6.60629,7.67182s13.83192,26.12568,16.4679,27.00434c6.42443,2.14148,3.99028-1.21852,4.62959-3.56268s2.77038-10.22909,2.13106-12.57325-11.86234-18.79093-5.87158-27.87918c5.38071-8.16278,22.895-27.52837,25.14512-29.65943s18.44622-12.36015,35.28159-43.26051,1.70485-45.9024-1.70485-47.35184-89.9705,4.94374-89.9705,4.94374L247.439,447.98144l15.60791,40.316Z" transform="translate(-161.87238 -220.29405)" style="fill: #f2c8bf"/>
  <path d="M214.20558,506.59541s-44.70953-42.97057-13.921-58.614,42.96855,3.98,42.96855,3.98,60.58546,28.08181,62.7729,28.42015,8.29785,5.075,12.85518,11.84173,7.07252,10.83413,8.08752,11.84913,29.43972,34.65623,59.67686,76.33869c5.3858,7.42442,13.82585,22.74115,21.471,29.01768,16.20636,13.30511,30.42566,22.73181,36.89548,29.02678,3.26529,3.177,6.99378,2.41944,6.99378,2.97349,0,2.03,5.205,6.6488-17.93176,8.45838-6.548.51213-12.66813-12.481-23.94042-15.03675-14.11506-3.20025-8.69155-10.805-11.63438-13.18169-5.40819-4.36775-15.68724-20.67484-31.01223-29.23295-18.55282-10.36066-38.6546-21.17825-59.75231-63.16684-1.87951-3.7406-14.68926-11.78464-14.68926-11.78464C280.47,516.65124,258.21249,520.78751,214.20558,506.59541Z" transform="translate(-161.87238 -220.29405)" style="fill: #f0d5d1"/>
  <path d="M202.94247,410.87653s-9.57706-29.36586-8.73616-41.85081,79.243-1.39474,79.243-1.39474-16.32716,38.89224-20.03553,39.53717S202.94247,410.87653,202.94247,410.87653Z" transform="translate(-161.87238 -220.29405)" style="fill: #fff"/>
  <path d="M253.41381,407.16815s1.822,1.43542,3.97816,12.71838c.56289,2.94548,10.25047,7.72986,14.61952,17.64425s-29.05579,17.98691-29.05579,17.98691-21.86047,2.346-30.2625,16.46139-2.68865,30.91945,1.51236,34.61634c0,0-37.64107-16.468-36.1287-44.69877s25.71019-45.875,25.71019-45.875l-.8446-5.14507Z" transform="translate(-161.87238 -220.29405)" style="fill: #1c1c1c"/>
  <path d="M279.09565,318.06272s-1.58-12.96659-2.23749-20.14671c-.5909-6.453,2.11458-12.55829,4.07659-21.88229,3.499-16.62841-29.37922,21.90034-29.37922,21.90034l-6.36114,9.43511a71.05033,71.05033,0,0,1,16.46257,2.7724C269.47868,312.61267,279.09565,318.06272,279.09565,318.06272Z" transform="translate(-161.87238 -220.29405)" style="fill: #e30613"/>
  <path d="M252.34217,297.02211s-4.12195,5.88554-4.12195,8.20142-.579,6.07917-6.07917,11.0004-6.5134,6.65814-8.68453,6.80288-23.88246-16.21112-23.88246-16.21112,16.60365-35.82465,24.94717-38.97231S252.34217,297.02211,252.34217,297.02211Z" transform="translate(-161.87238 -220.29405)" style="fill: #f2c8bf"/>
  <path d="M237.2296,254.52211s-3.42852,13.47668-3.42792,15.447c.00038,1.23676,14.16139,23.23035,14.79,23.94275,1.25175,1.41857,5.44885,6.29964,10.29145,1.92252,1.40165-1.26692,10.86117-4.14292,14.89213-6.83022s4.92672-7.614,5.93446-8.0619a30.37915,30.37915,0,0,0,5.48657-5.15066c.33591-.67183,5.63285-9.56583,5.97333-15.5.29479-5.13783,4.216-16.18773-25.79218-18.987S238.17809,252.218,237.2296,254.52211Z" transform="translate(-161.87238 -220.29405)" style="fill: #f0d5d1"/>
  <path d="M286.99688,282.86555c-1.02783-1.623-6.08789-5.34619-6.314-5.51123a2.389,2.389,0,0,0-3.0014.49359l-4.35883-4.12073a3.75205,3.75205,0,0,0,.69324-1.83624,2.50958,2.50958,0,0,0-.916-2.11865c-.07764-.07178-7.79687-7.16748-10.40625-9.188a2.72254,2.72254,0,0,0-3.01611-.59521,2.02948,2.02948,0,0,0-.28748.2027l-10.277-19.252-.2207.11816,10.30933,19.31256a3.90884,3.90884,0,0,0-.843,3.13324c.27295,2.51855.82568,7.29883,1.06152,9.33984l.05811.49951a2.57232,2.57232,0,0,0,2.07959,2.48926,23.73128,23.73128,0,0,0,5.32373.59814,8.91927,8.91927,0,0,0,4.603-.94189,6.77151,6.77151,0,0,0,1.689-1.55823l4.32336,4.08722a15.08512,15.08512,0,0,0-1.64563,1.81671,10.12,10.12,0,0,0-2.41455,5.36279c.0332.82568.85205,1.40381,2.08594,1.47266.38623.02148.90039.062,1.48926.10889,1.36963.10889,3.20654.25488,4.76758.25488a12.54651,12.54651,0,0,0,2.03857-.13184,4.58422,4.58422,0,0,0,3.29395-2.25928A1.81394,1.81394,0,0,0,286.99688,282.86555Zm-15.6499-7.58594c-2.50586,1.65088-8.78564.60547-9.71387.31445a2.33368,2.33368,0,0,1-1.90674-2.2793l-.05762-.5c-.23584-2.04053-.78857-6.82031-1.061-9.33838a3.25394,3.25394,0,0,1,1.19189-3.269,1.68191,1.68191,0,0,1,.8335-.21289,3.22572,3.22572,0,0,1,1.90722.78711c2.60108,2.01465,10.313,9.103,10.39307,9.17676a2.27171,2.27171,0,0,1,.833,1.916A4.85347,4.85347,0,0,1,271.347,275.27961Zm15.53662,9.26172a4.32067,4.32067,0,0,1-3.1084,2.11426,34.754,34.754,0,0,1-6.74365-.126c-.59082-.04687-1.10693-.08789-1.49512-.10986-1.0957-.061-1.82178-.54492-1.84961-1.23242a9.8574,9.8574,0,0,1,2.36084-5.19775c1.73242-2.189,3.02344-3.28857,4.49854-2.42676.05225.03857,5.23633,3.853,6.23975,5.43652A1.55654,1.55654,0,0,1,286.8836,284.54133Z" transform="translate(-161.87238 -220.29405)" style="fill: #1d1d1b"/>
  <line x1="125.02503" y1="64.39862" x2="121.39994" y2="57.60757" style="fill: none;stroke: #1d1d1b;stroke-miterlimit: 10;stroke-width: 0.25px"/>
  <path d="M271.3788,275.25311c-2.50586,1.65088-8.78564.60547-9.71387.31445a2.33368,2.33368,0,0,1-1.90674-2.2793l-.05762-.5c-.23584-2.04053-.78857-6.82031-1.061-9.33838a3.25394,3.25394,0,0,1,1.19189-3.269,1.68191,1.68191,0,0,1,.8335-.21289,3.22575,3.22575,0,0,1,1.90723.78711c2.60107,2.01465,10.313,9.103,10.39307,9.17676a2.27171,2.27171,0,0,1,.833,1.916A4.85347,4.85347,0,0,1,271.3788,275.25311Zm15.53662,9.26172a4.32067,4.32067,0,0,1-3.1084,2.11426,34.754,34.754,0,0,1-6.74365-.126c-.59082-.04687-1.10693-.08789-1.49512-.10986-1.0957-.061-1.82178-.54492-1.84961-1.23242a9.8574,9.8574,0,0,1,2.36084-5.19775c1.73242-2.189,3.02344-3.28857,4.49854-2.42676.05225.03857,5.23633,3.853,6.23975,5.43652A1.55654,1.55654,0,0,1,286.91542,284.51483Z" transform="translate(-161.87238 -220.29405)" style="fill: #e30613;opacity: 0.5"/>
  <path d="M262.96171,256.8113s3.925.27541,5.12973,1.4459,3.54569,8.1246,3.8211,8.33115,3.01352-.42362,3.01352-.42362-1.42991.35477-2.73811-3.29441-2.7541-4.75082-3.78689-5.43935S262.96171,256.8113,262.96171,256.8113Z" transform="translate(-161.87238 -220.29405)" style="fill: #1d1d1b"/>
  <path d="M279.09565,273.94329s1.62136.01928,2.11153-.49939,4.30923,1.76637,4.30923,1.76637l-.32011.58135Z" transform="translate(-161.87238 -220.29405)" style="fill: #1d1d1b"/>
  <path d="M208.55336,311.55953" transform="translate(-161.87238 -220.29405)" style="fill: #f2c8bf"/>
  <path d="M215.464,276.21582c-.09923.00723-10.48257,19.24792-6.37311,38.40637,4.07491,18.99728-8.05024,15.09419-4.696,24.31842s6.70853,12.91393,6.03768,14.75877,13.58478-31.5301,10.90137-39.24492,8.55338-4.02512,8.88881-16.4359a151.667,151.667,0,0,1,4.55387-29.26139c3.69032-13.43625,6.93482-21.34659,8.00876-23.58587.68574-1.42984,10.48961-.52884,18.862.20748,8.6011.75643,17.34568,8.028,22.9812,5.34462a14.60057,14.60057,0,0,0,3.95839,6.54082c2.39718,2.39161,1.15615,7.73807,1.15615,7.73807s3.923-.98991,4.78372-4.59346c.8777-3.67472,5.5981-18.07109-9.89826-30.14645s-30.68532-13.8751-42.72884-1.55137C233.20178,237.61137,221.02231,261.51889,215.464,276.21582Z" transform="translate(-161.87238 -220.29405)" style="fill: #e30613"/>
  <path d="M248.911,444.64858l16.71711-9.67279s37.53464,1.26167,39.11173,1.57709,14.7771,2.30387,14.11745,5.67291-38.22807,11.498-38.22807,11.498L267.54736,452.11,247.439,447.98144Z" transform="translate(-161.87238 -220.29405)" style="fill: #ededed"/>
  <path d="M268.31835,454.423l13.10678,1.23358s46.25922-14.34036,48.418-14.34036c0,0-.94515-1.27-3.8749-.96158s-45.339,13.36919-45.339,13.36919L267.54736,452.11Z" transform="translate(-161.87238 -220.29405)" style="fill: #e6292f"/>
  <path d="M194.21882,395.43787s1.78718,5.52557,1.78718,7.17873,29.14288,17.65,56.31021,44.43114c0,0,13.0274,1.94019,14.77562,2.8492,3.98995,2.07462,6.35752,11.24148,6.35752,11.24148s-2.38994,8.59643-5.36562,8.59643-25.128-14.21717-25.128-14.21717-51.24792-28.765-53.56234-31.07939-9.4036-5.70033-13.48631-16.18539c-4.1228-10.588-8.99665-33.74-8.99665-33.74l21.8217,5.29011Z" transform="translate(-161.87238 -220.29405)" style="fill: #f0d5d1"/>
  <path d="M293.44916,339.94653s-6.15869-18.93567-6.69714-21.28284c-.49817-2.17163-32.95422-14.4585-37.85962-15.92108-.02185-.00653-.05457-.01288-.07758-.01935a6.05926,6.05926,0,0,0-.5946,2.13818c0,2.31592-.579,6.07922-6.07916,11.00043s-6.51343,6.65814-8.68451,6.80286S209.574,306.45361,209.574,306.45361s1.143-2.46356,2.97028-6.14026c-1.88568-.06628-3.03021-.10187-3.03021-.10187s-30.29565,12.68213-31.5589,13.69391c-2.28625,1.83105-1.0788,7.98889-4.86646,15.412-4.19287,8.21729-11.21637,46.5824-11.21637,46.5824s.38129,4.35693,13.54028,8.09869,18.80615,11.43933,18.80615,11.43933c-.032-24.80823,1.337-26.89795,1.337-26.89795,7.34833,8.64508,12.53516,8.74713,17.8089,8.47217,6.62408-.34534,20.13733-7.8175,23.67877-7.60919s10.20386,5.12451,20.62372,6.87457,15.30084-9.30194,15.69971-6.61694c3.32971,22.41718,13.38507,28.975,13.38507,28.975C275.54034,389.1228,293.44916,339.94653,293.44916,339.94653Z" transform="translate(-161.87238 -220.29405)" style="fill: #f6f6f6"/>
  <path d="M208.90638,349.17775s1.30546,4.23327,1.60419,4.23327c0,0,.8022-1.84734,1.4705-3.43118,1.2572-1.731,2.41758-6.6084,5.10446-13.83065,1.76963-4.7567,1.142-4.89142,3.09149-10.17263,1.78789-4.84352,2.16946-8.31628.81355-13.37836-1.13841-4.25,7.23154-3.79656,9.13565-13.12609.61721-3.02414.22855-7.31749,1.09786-13.52611,2.14407-15.313,6.35393-26.08244,12.05073-41.27886.31884-.85052,21.10321,1.14643,22.08894,1.56116,9.1208,3.83742,17.7918,6.50364,19.37129,3.5821,2.84721-5.26642,1.84642-13.541,1.84642-17.91942-2.82543-2.28776-7.24465-7.26972-20.62586-11.03905-2.50663-.70609-9.75871-1.16593-16.78474,2.27065-7.88861,4.72565-10.26844,9.005-13.66421,13.84886a39.098,39.098,0,0,0-2.70337,4.27513,24.25819,24.25819,0,0,1-1.40312,2.59367c-9.02158,14.32839-15.991,27.05306-19.901,42.09164a123.30659,123.30659,0,0,0-2.94581,13.10717c-.36537,2.24834-.25644,8.26964,0,12.52048.2819,4.67289,1.74569,9.423,1.0207,13.87466-.79051,4.85394-6.71279,7.138-5.852,11.16011C204.95028,342.33364,208.20892,347.68114,208.90638,349.17775Z" transform="translate(-161.87238 -220.29405)" style="fill: #e73848"/>
  <path d="M289.68565,401.9355c2.13749.31726,12.17117,8.941,17.60936-68.10678a25.86477,25.86477,0,0,0,9.24331-8.30381c3.79769-5.69654,1.381-23.47663,1.381-23.47663s3.45245-9.83947,3.45245-10.8752-.69049-2.58933-1.5536-2.58933-20.19681,29.17317-23.13139,37.11379-15.92342,49.98353-13.46641,64.13433C285.039,400.30621,289.68565,401.9355,289.68565,401.9355Z" transform="translate(-161.87238 -220.29405)" style="fill: #f0d5d1"/>
  <path d="M321.85057,301.33962s2.898-2.07,3.105,2.17348l-1.55249,2.898S320.71208,307.13557,321.85057,301.33962Z" transform="translate(-161.87238 -220.29405)" style="fill: #f0d5d1"/>
  <path d="M322.57949,304.73439s2.898-2.07,3.105,2.17348l-1.55249,2.898S321.441,310.53034,322.57949,304.73439Z" transform="translate(-161.87238 -220.29405)" style="fill: #f0d5d1"/>
  <path d="M326.67078,319.8224l-6.89179-25.9577a1.315,1.315,0,0,0-1.26806-.94566c-2.83163-.04592-10.90681.27213-16.506,4.97a1.15927,1.15927,0,0,0-.38365,1.18629c1.01432,3.91579,6.046,23.238,7.34845,26.25734a.929.929,0,0,0,.59644.50959,18.11061,18.11061,0,0,0,16.99988-5.32729A.74557.74557,0,0,0,326.67078,319.8224Z" transform="translate(-161.87238 -220.29405)" style="fill: #ededed"/>
  <path d="M297.03064,324.8426a15.20894,15.20894,0,0,1,.60936-5.70113c.92327-2.691,5.78773-15.11087,5.78773-15.11087s4.761-.1035,1.13849,10.86741S297.03064,324.8426,297.03064,324.8426Z" transform="translate(-161.87238 -220.29405)" style="fill: #f0d5d1"/>
  <path d="M324.29813,295.57906l-4.98758,1.69658,4.56018,18.507,4.84344-5.42978a1.33132,1.33132,0,0,0,.30191-1.19334l-2.99381-12.62715A1.33132,1.33132,0,0,0,324.29813,295.57906Zm.15276,15.71181-3.27864-12.12523,1.25522-.427a1.33132,1.33132,0,0,1,1.71235.90727l2.27117,8.25564a1.33132,1.33132,0,0,1-.23312,1.171Z" transform="translate(-161.87238 -220.29405)" style="fill: #ededed"/>
  <rect x="156.30296" y="1.48476" width="1" height="71.37354" style="fill: url(#Sfumatura_senza_nome_17)"/>
</svg>
