<svg id="Livello_3" data-name="Livello 3" xmlns="http://www.w3.org/2000/svg" width="124.57373mm" height="131.65293mm" viewBox="0 0 353.12238 373.18941">
  <title>donnaacqua</title>
  <path d="M1136.93,785.24435c-53.77173,49.30682-135.0531,51.59851-182.09007,14.76077-41.99158-32.88635-48.38489-91.05386-15.21478-137.1091,36.98465-51.35158,115.05684-77.2811,177.41048-49.11357C1188.867,646.23141,1198.59124,728.70312,1136.93,785.24435Z" transform="translate(-880.82545 -550.2428)" style="fill: #e30613"/>
  <path d="M1049.37458,758.83887s30.72866-6.79906,45.60723-35.99988c8.29788-16.2855,9.71341-33.31675,10.02358-44.36959.37378-13.31982-12.04948-55.30011,11.10964-52.45457s23.78768,13.23225,23.78768,13.23225l-17.77507-9.04861L1092.82738,654.759Z" transform="translate(-880.82545 -550.2428)" style="fill: #be1622;opacity: 0.64"/>
  <path d="M1041.27157,774.40925s39.231-13.42726,67.82224-53.59154c27.85848-39.135,1.48963-68.5717,1.48963-68.5717l-4.88424,5.96841c.56761,3.06119,11.66465,20.255,3.53734,43.76267-8.63863,24.98666-25.52675,40.8428-52.64893,59.3497S1041.27157,774.40925,1041.27157,774.40925Z" transform="translate(-880.82545 -550.2428)" style="fill: #fff"/>
  <path d="M946.50707,792.6911s-30.9733-56.00411,1.23024-96.98052,95.10032-61.52116,95.10032-61.52116l20.51767,71.37178L965.67833,807.446l-13.88013-9.92224Z" transform="translate(-880.82545 -550.2428)" style="fill: #be1622;opacity: 0.64"/>
  <path d="M1087.81228,587.17543a36.66018,36.66018,0,0,1,4.14053-16.488c4.33684-7.9487,23.47369-20.41284,23.47369-20.41284,25.84872-1.25739,24.99045,35.15343,11.0903,40.798s-4.58873,3.69056-15.81215,7.48944" transform="translate(-880.82545 -550.2428)" style="fill: #1d1d1b"/>
  <path d="M1043.10819,625.566s1.20825-6.01156,1.79857-6.4543-33.74345,2.15372-39.78187,2.15374c-4.54923,0-13.08042,2.62469-17.4343,2.65468s-17.50755-1.0453-20.773-.50107-7.66082,2.13079-11.47789,2.14719-10.64153,5.33717-11.33554,5.33717-11.10421-4.27975-8.79083-7.0558,13.53325-10.17885,15.84663-10.29452,12.14522.23134,14.80561,0,33.31-6.38687,44.88992-6.21782c19.1766.28,39.91441-14.77257,47.71347-14.5726s11.99855,5.39935,13.99831,5.99928,8.199.2,9.59884-1.19986,8.79894-15.99807,8.79894-18.79773,0-7.39911,2.39971-10.99867,3.2539-6.64923,7.076-8.76275c2.77768-1.536,2.04548-3.18707,4.68859-4.70092,2.66914-1.52876,8.83293-4.93411,13.03242-3.73426s10.39874,3.59957,10.39874,13.59836a46.0668,46.0668,0,0,1-3.79482,17.94469c2.54245.6533,5.1664,3.664,1.90469,5.89569-3.52122,2.40926-7.30876,2.75641-7.30876.3567,0,0-8.915,8.399-8.657,10.19877s2.48532,8.38049,8.08465,10.58022,9.57128,1.21836,12.171,3.01814,18.79773,21.39742,21.39742,26.99674,19.769,21.92056,25.9082,24.08857c7.59511,2.68217,42.68352,42.10343,44.08335,44.10319s11.5986,17.3979,11.5986,18.59775-.99988,20.59751-2.79966,20.19756-2.59969-5.7993-2.59969-5.7993-1.79978,2.79966-2.59969,2.59969-8.99891-16.598-8.99891-18.79773V714.948s-14.39826-13.79833-28.1966-20.79749-23.39717-17.59788-24.19708-20.39754-29.05191-20.56608-37.19551-30.59631c-1.52034-1.87256-18.16982,11.052-18.16982,11.052l-56.2212-5.97583-9.86149-22.66673" transform="translate(-880.82545 -550.2428)" style="fill: #f0d5d1"/>
  <path d="M1013.06466,686.9325s17.32613-16.4,19.70052-19.66475,12.46555-19.88552,12.46555-24.6343c0,0-3.77308-5.792-2.12254-17.0674,0,0,2.76163-5.16708,11.814-5.61228s16.872,4.12976,19.39483,4.87175,20.46359-.3332,29.00129,5.942c11.54274,8.48386,5.87257,23.44112,5.87257,23.44112-6.23277,7.12317-13.35595,16.17554-15.87874,25.2279s-4.10074,32.0303-5.76035,35.01027-33.71389,13.81313-33.71389,13.81313l-40.77324,8.75557Z" transform="translate(-880.82545 -550.2428)" style="fill: #1d1d1b"/>
  <path d="M972.186,845.61c-5.08806,5.08806-10.37805,9.99943-15.004,14.42958-7.6435,7.32005-13.47393,13.32628-13.58455,16.64489-.17757,5.32705-1.09414,7.30493-4.84451,9.72451s-10.40423,5.686-14.39655,9.55738-12.0988,9.56634-16.87706,8.89647-16.1481-2.96886-17.23691-4.90453-3.41755-1.48456-3.80046-3.15976-.57435-3.15894,3.68543-4.92986,10.76911-6.36574,10.76911-6.36574l46.89446-42.9132s9.56754-17.95708,19.6319-38.66577" transform="translate(-880.82545 -550.2428)" style="fill: #f2c8bf"/>
  <path d="M890.3562,923.11476a13.62213,13.62213,0,0,0,7.631-.5474c2.1443-.953,7.56782-8.71427,8.52084-13.9559s3.17613-9.42425,4.82148-11.06095c1.72713-1.71806,2.38256-6.90941,2.85907-8.81546s2.85907-8.33895,10.245-15.24836,20.72824-24.30208,22.87255-29.782,12.95107-22.77685,14.61886-24.44464,65.1968-94.44494,65.1968-94.44494-2.38256-27.87591-14.05709-37.88265c0,0-15.32587,11.20579-25.20131,27.30969-12.89274,21.02421-21.23062,48.84944-22.14052,55.27027-.36806,2.59724-6.78613,9.50059-7.87191,16.82961s-12.59159,17.98207-21.7492,32.40384c-12.17742,19.17749-21.9535,44.41518-25.75373,49.02975a101.63529,101.63529,0,0,0-10.31492,15.74383c-1.35723,2.9859-5.42891,8.68625-6.24324,11.4007s-11.16442,13.321-12.33493,15.49077c-.84232,1.56143-2.3291,1.63748,7.08835,9.48441C889.31434,920.53787,888.73128,922.5705,890.3562,923.11476Z" transform="translate(-880.82545 -550.2428)" style="fill: #f0d5d1"/>
  <path d="M947.73732,842.64957s9.56754-17.95708,19.6319-38.66577c9.6405-19.83654,7.4178-22.70614,14.11623-32.439,2.29563-3.33556,6.9373-5.36761,7.82514-6.433s25.61572-32.90819,50.47529-48.71178,49.89672-12.42979,47.7659-1.95325-13.31763,29.47635-38.1772,44.3921-27.24162,17.31181-29.90514,18.37722-16.229,6.63973-19.63644,13.40752c-5.43479,10.79457-14.20547,41.551-27.70067,55.0462-5.08806,5.08806-10.37805,9.99943-15.004,14.42958" transform="translate(-880.82545 -550.2428)" style="fill: #f2c8bf"/>
  <rect x="934.60941" y="604.16991" width="19.79593" height="40.84681" transform="matrix(0.81456, -0.58008, 0.58008, 0.81456, -1067.98945, 113.47714)" style="fill: #e30613"/>
  <polygon points="64.759 98.386 48.409 103.062 24.715 69.79 41.064 65.114 64.759 98.386" style="fill: #e30613"/>
  <path d="M921.88948,615.35722a2.47853,2.47853,0,0,1,2.68674-1.6804l23.69457,33.27205a2.4147,2.4147,0,0,0-2.68675,1.68039Z" transform="translate(-880.82545 -550.2428)" style="fill: #be1622"/>
  <path d="M923.2981,614.59226a2.53223,2.53223,0,0,1,1.78054-.20994c.963.27731,8.34048-2.94792,15.05763-9.893l22.50435,30.7898Z" transform="translate(-880.82545 -550.2428)" style="fill: #f6f6f6"/>
  <path d="M923.2981,614.59226s5.82654,3.04691,16.83817-10.1029l22.50435,30.7898s-10.90934,13.92259-16.51744,11.32624Z" transform="translate(-880.82545 -550.2428)" style="fill: #fff"/>
  <path d="M941.665,688.29733s2.09061-23.06017,24.96321-32.43418C966.62818,655.86315,950.37989,671.23654,941.665,688.29733Z" transform="translate(-880.82545 -550.2428)" style="fill: #fbdbde"/>
  <path d="M959.458,619.00058c-5.93963,1.03575-8.31791-.84624-8.31791-.84624-6.63268,4.32432-7.48912,2.22873-7.774,1.769l6.38359-5.93935a3.74809,3.74809,0,0,1,1.41031-.43085c.66044-.0188,7.754.05,7.754.05Z" transform="translate(-880.82545 -550.2428)" style="fill: #f0d5d1"/>
  <path d="M905.73556,623.92638,929.61646,656.657s6.05,2.977,6.33815,1.44049c.24449-1.30394-9.8399-34.32525-12.65651-43.50525l-8.58914,9.14722" transform="translate(-880.82545 -550.2428)" style="fill: #fff"/>
  <path d="M923.2981,614.59226a31.52652,31.52652,0,0,1-9.69743,13.98245l22.92988,32.2169s7.33338-8.46277,5.93756-19.31258Z" transform="translate(-880.82545 -550.2428)" style="fill: #f6f6f6"/>
  <path d="M923.2981,614.59226s-4.10507,9.59425-10.7702,13.65356c-2.76977,1.68689-6.79234-4.31944-6.79234-4.31944S914.08634,622.29992,923.2981,614.59226Z" transform="translate(-880.82545 -550.2428)" style="fill: #f6f6f6"/>
  <path d="M924.04281,629.24865l20.04333,27.8324q1.26471-1.55777,2.5777-3.08185a69.90248,69.90248,0,0,0-.54065-7.3938l-22.82507-32.01318S925.25485,623.70812,924.04281,629.24865Z" transform="translate(-880.82545 -550.2428)" style="fill: #fff"/>
</svg>
