<svg id="Livello_9" data-name="Livello 9" xmlns="http://www.w3.org/2000/svg" width="128.53457mm" height="148.51067mm" viewBox="0 0 364.34997 420.97514">
  <title>fotocamera_libro</title>
  <rect x="3.06479" y="173.39222" width="99.25348" height="207.3353" rx="17.18719" ry="17.18719" style="fill: #ededed;stroke: #dadada;stroke-miterlimit: 10"/>
  <g>
    <circle cx="17.97905" cy="188.76425" r="7.02271" style="fill: #0e1624"/>
    <path d="M524.23389,182.74176a6.02255,6.02255,0,1,1-6.02258,6.02255,6.02254,6.02254,0,0,1,6.02258-6.02255m0-2a8.02255,8.02255,0,1,0,8.02252,8.02255,8.03167,8.03167,0,0,0-8.02252-8.02255Z" transform="translate(-506.25459)" style="fill: #dadada"/>
  </g>
  <g>
    <circle cx="29.51538" cy="188.76434" r="1.59058" style="fill: #251510"/>
    <path d="M535.77009,187.67386a1.09045,1.09045,0,1,1-1.09045,1.09045,1.09046,1.09046,0,0,1,1.09045-1.09045m0-1a2.09045,2.09045,0,1,0,2.09045,2.09045,2.0928,2.0928,0,0,0-2.09045-2.09045Z" transform="translate(-506.25459)" style="fill: #dadada"/>
  </g>
  <g>
    <circle cx="36.68701" cy="188.76434" r="3.08862" style="fill: #f9ecda"/>
    <path d="M542.94136,186.17547a2.58885,2.58885,0,1,1-2.58887,2.58884,2.58884,2.58884,0,0,1,2.58887-2.58884m0-1a3.58885,3.58885,0,1,0,3.58887,3.58884,3.59294,3.59294,0,0,0-3.58887-3.58884Z" transform="translate(-506.25459)" style="fill: #dadada"/>
  </g>
  <rect x="148.07317" y="37.88854" width="214.14272" height="342.83898" rx="10.98244" ry="10.98244" style="fill: #5c257f"/>
  <rect x="145.62312" y="41.93372" width="209.08936" height="334.74863" rx="10.98244" ry="10.98244" style="fill: #fff"/>
  <rect x="96.61729" y="37.88854" width="214.14272" height="342.83898" rx="10.98244" ry="10.98244" style="fill: #662483"/>
  <rect x="125.77827" y="299.71172" width="0.92102" height="68.00168" style="fill: #fff"/>
  <rect x="127.68819" y="299.71172" width="0.92102" height="68.00168" style="fill: #fff"/>
  <rect x="129.41947" y="299.71172" width="2.16005" height="63.94441" style="fill: #fff"/>
  <rect x="132.47994" y="299.71172" width="1.66525" height="63.94441" style="fill: #fff"/>
  <rect x="136.66292" y="299.71172" width="0.83262" height="63.94441" style="fill: #fff"/>
  <rect x="139.21719" y="299.71172" width="0.83262" height="63.94441" style="fill: #fff"/>
  <rect x="140.86453" y="299.71172" width="0.83262" height="63.94441" style="fill: #fff"/>
  <rect x="145.2068" y="299.71172" width="0.83262" height="63.94441" style="fill: #fff"/>
  <rect x="147.65686" y="299.71172" width="1.38885" height="63.94441" style="fill: #fff"/>
  <rect x="150.88935" y="299.71172" width="0.83262" height="63.94441" style="fill: #fff"/>
  <rect x="155.26373" y="299.71172" width="0.83262" height="63.94441" style="fill: #fff"/>
  <rect x="156.8272" y="299.71172" width="0.83262" height="63.94441" style="fill: #fff"/>
  <rect x="159.14776" y="299.71172" width="1.55659" height="63.94441" style="fill: #fff"/>
  <rect x="162.48936" y="299.71172" width="0.83262" height="63.94441" style="fill: #fff"/>
  <rect x="164.16294" y="299.71172" width="0.83262" height="68.4258" style="fill: #fff"/>
  <rect x="165.90235" y="299.71172" width="0.67119" height="68.4258" style="fill: #fff"/>
  <rect x="167.4448" y="299.71172" width="0.83262" height="63.94441" style="fill: #fff"/>
  <rect x="169.12512" y="299.71172" width="2.53591" height="63.94441" style="fill: #fff"/>
  <rect x="173.3383" y="299.71172" width="0.83262" height="63.94441" style="fill: #fff"/>
  <rect x="175.8865" y="299.71172" width="0.83262" height="63.94441" style="fill: #fff"/>
  <rect x="179.09052" y="299.71172" width="0.83262" height="63.94441" style="fill: #fff"/>
  <rect x="180.83139" y="299.71172" width="2.42199" height="63.94441" style="fill: #fff"/>
  <rect x="184.86804" y="299.71172" width="1.68601" height="63.94441" style="fill: #fff"/>
  <rect x="188.19827" y="299.71172" width="1.56183" height="63.94441" style="fill: #fff"/>
  <rect x="190.84495" y="299.71172" width="2.36364" height="63.94441" style="fill: #fff"/>
  <rect x="194.73252" y="299.71172" width="0.83262" height="63.94441" style="fill: #fff"/>
  <rect x="196.69772" y="299.71172" width="2.50671" height="63.94441" style="fill: #fff"/>
  <rect x="200.81278" y="299.71172" width="0.83262" height="63.94441" style="fill: #fff"/>
  <rect x="202.40215" y="299.71172" width="0.83262" height="68.23921" style="fill: #fff"/>
  <rect x="204.11667" y="299.71172" width="0.83262" height="68.23921" style="fill: #fff"/>
  <g>
    <path d="M630.88477,366.97861a5.11194,5.11194,0,0,1-.28809,1.84277,2.19385,2.19385,0,0,1-.8418,1.09668,2.41339,2.41339,0,0,1-1.33594.35547,2.61147,2.61147,0,0,1-.7334-.09863v-.3291a2.2187,2.2187,0,0,0,.39551.082,3.00432,3.00432,0,0,0,.35352.02832,1.77393,1.77393,0,0,0,1.47949-.68164,3.44952,3.44952,0,0,0,.59668-1.99023h-.0459a1.94164,1.94164,0,0,1-.666.56445,1.7522,1.7522,0,0,1-.80566.19629,1.64863,1.64863,0,0,1-1.21-.42773,1.632,1.632,0,0,1-.43457-1.21582,1.93555,1.93555,0,0,1,.47656-1.36035,1.59912,1.59912,0,0,1,1.23633-.52051,1.63581,1.63581,0,0,1,.96289.28906,1.82781,1.82781,0,0,1,.63672.84668A3.539,3.539,0,0,1,630.88477,366.97861Zm-1.82324-2.12109a1.21962,1.21962,0,0,0-.96289.40723,1.62123,1.62123,0,0,0-.35937,1.11426,1.396,1.396,0,0,0,.332,1.00879,1.26252,1.26252,0,0,0,.95215.34375,1.54992,1.54992,0,0,0,.7207-.17187,1.42083,1.42083,0,0,0,.53125-.457,1.01,1.01,0,0,0,.19629-.5791,1.98372,1.98372,0,0,0-.17773-.83691,1.45308,1.45308,0,0,0-.49609-.60937A1.26876,1.26876,0,0,0,629.06152,364.85752Z" transform="translate(-506.25459)" style="fill: #fff"/>
    <path d="M638.77051,370.19736l2.30176-5.22168h-3.16113v-.36719h3.61523v.2793l-2.30859,5.30957Z" transform="translate(-506.25459)" style="fill: #fff"/>
    <path d="M645.166,364.51377a1.72871,1.72871,0,0,1,1.14453.3623,1.21364,1.21364,0,0,1,.43457.98242,1.15724,1.15724,0,0,1-.26953.75684,2.43572,2.43572,0,0,1-.874.6084,2.63643,2.63643,0,0,1,1.03223.66113,1.31692,1.31692,0,0,1,.29785.87109,1.38005,1.38005,0,0,1-.4834,1.10547,2.30782,2.30782,0,0,1-2.59375.02637,1.40056,1.40056,0,0,1-.4502-1.124,1.328,1.328,0,0,1,.31641-.87891,2.45963,2.45963,0,0,1,.98242-.64648,2.36753,2.36753,0,0,1-.86719-.61328,1.21976,1.21976,0,0,1-.252-.77344,1.24745,1.24745,0,0,1,.20215-.70605,1.30811,1.30811,0,0,1,.56738-.46777A1.96085,1.96085,0,0,1,645.166,364.51377Zm-1.37207,4.30762a.99633.99633,0,0,0,.35742.81836,1.545,1.545,0,0,0,.999.29,1.563,1.563,0,0,0,1.00977-.30762,1.01439,1.01439,0,0,0,.38184-.835,1.03363,1.03363,0,0,0-.2998-.77051,3.53414,3.53414,0,0,0-1.15625-.62109,2.59664,2.59664,0,0,0-.998.59961A1.19377,1.19377,0,0,0,643.79395,368.82138Zm1.36426-3.96387a1.33065,1.33065,0,0,0-.86523.26563.8881.8881,0,0,0-.32715.72852.91584.91584,0,0,0,.12012.47168,1.25684,1.25684,0,0,0,.34863.37109,3.94909,3.94909,0,0,0,.76172.3877,2.41154,2.41154,0,0,0,.89453-.53125.98443.98443,0,0,0,.27148-.69922.89207.89207,0,0,0-.32324-.72656A1.33644,1.33644,0,0,0,645.1582,364.85752Z" transform="translate(-506.25459)" style="fill: #fff"/>
    <path d="M652.12988,365.92392a1.24385,1.24385,0,0,1-.32715.875,1.51459,1.51459,0,0,1-.877.45508v.02344a1.72492,1.72492,0,0,1,1.02441.42773,1.23574,1.23574,0,0,1,.35156.9248,1.47138,1.47138,0,0,1-.5332,1.21387,2.39042,2.39042,0,0,1-1.53418.42969,3.28165,3.28165,0,0,1-1.4873-.31738v-.37793a3.07749,3.07749,0,0,0,.7207.26367,3.24334,3.24334,0,0,0,.751.0957,1.99214,1.99214,0,0,0,1.26855-.3418,1.16974,1.16974,0,0,0,.4248-.96582.97368.97368,0,0,0-.43359-.85254,2.2602,2.2602,0,0,0-1.27539-.29785h-.60352v-.36719h.61133a1.70192,1.70192,0,0,0,1.10254-.33008,1.09445,1.09445,0,0,0,.40723-.89648.93083.93083,0,0,0-.33008-.74707,1.2925,1.2925,0,0,0-.86621-.28125,2.37734,2.37734,0,0,0-.76074.11621,3.48781,3.48781,0,0,0-.77246.39941l-.18652-.25586a2.45475,2.45475,0,0,1,.7832-.42969,2.80551,2.80551,0,0,1,.92871-.15918,1.76425,1.76425,0,0,1,1.19238.36523A1.2915,1.2915,0,0,1,652.12988,365.92392Z" transform="translate(-506.25459)" style="fill: #fff"/>
    <path d="M656.44141,370.19736h-.374v-4.07129q0-.55371.0459-1.15039c-.03809.03809-.07812.0752-.11816.11133q-.06152.05273-1.18164.92871l-.21777-.27148,1.51758-1.13574h.32813Z" transform="translate(-506.25459)" style="fill: #fff"/>
    <path d="M659.7832,367.81552a4.97184,4.97184,0,0,1,.2959-1.832,2.28178,2.28178,0,0,1,.84082-1.10352,2.55415,2.55415,0,0,1,1.9707-.27148v.33691a1.92987,1.92987,0,0,0-.67285-.10352,1.751,1.751,0,0,0-1.46973.68066,3.48879,3.48879,0,0,0-.59082,1.97949h.0498a2.01132,2.01132,0,0,1,.665-.56543,1.726,1.726,0,0,1,.792-.19141,1.64443,1.64443,0,0,1,1.22461.44727,1.68466,1.68466,0,0,1,.44141,1.23535,1.89512,1.89512,0,0,1-.46387,1.35059,1.635,1.635,0,0,1-1.252.49512,1.59013,1.59013,0,0,1-1.33984-.64746A2.93444,2.93444,0,0,1,659.7832,367.81552Zm1.83105,2.12207a1.23525,1.23525,0,0,0,.97461-.39355,1.64768,1.64768,0,0,0,.34766-1.124,1.38973,1.38973,0,0,0-.34375-1.002,1.23741,1.23741,0,0,0-.93652-.35937,1.555,1.555,0,0,0-.72461.17285,1.44131,1.44131,0,0,0-.5332.45605,1.00921,1.00921,0,0,0-.19922.583,1.85917,1.85917,0,0,0,.18945.81641,1.59538,1.59538,0,0,0,.5127.62109A1.20055,1.20055,0,0,0,661.61426,369.93759Z" transform="translate(-506.25459)" style="fill: #fff"/>
    <path d="M667.335,370.19736h-.374v-4.07129q0-.55371.0459-1.15039c-.03809.03809-.07812.0752-.11816.11133q-.06152.05273-1.18164.92871l-.21777-.27148,1.51758-1.13574h.32813Z" transform="translate(-506.25459)" style="fill: #fff"/>
    <path d="M679.583,368.77158h-.96289v1.42578h-.35937v-1.42578h-2.875v-.25586l2.77148-3.9375h.46289v3.86426h.96289Zm-1.32227-.3291v-1.59766q0-1.1543.05371-1.9375h-.03125q-.07617.14063-.46973.71875l-1.97266,2.81641Z" transform="translate(-506.25459)" style="fill: #fff"/>
    <path d="M682.93066,364.51377a1.72871,1.72871,0,0,1,1.14453.3623,1.21364,1.21364,0,0,1,.43457.98242,1.15724,1.15724,0,0,1-.26953.75684,2.43572,2.43572,0,0,1-.874.6084,2.63643,2.63643,0,0,1,1.03223.66113,1.31692,1.31692,0,0,1,.29785.87109,1.38005,1.38005,0,0,1-.4834,1.10547,2.30782,2.30782,0,0,1-2.59375.02637,1.40056,1.40056,0,0,1-.4502-1.124,1.328,1.328,0,0,1,.31641-.87891,2.45963,2.45963,0,0,1,.98242-.64648,2.36753,2.36753,0,0,1-.86719-.61328,1.21976,1.21976,0,0,1-.252-.77344,1.24745,1.24745,0,0,1,.20215-.70605,1.30811,1.30811,0,0,1,.56738-.46777A1.96085,1.96085,0,0,1,682.93066,364.51377Zm-1.37207,4.30762a.99633.99633,0,0,0,.35742.81836,1.545,1.545,0,0,0,.999.29,1.563,1.563,0,0,0,1.00977-.30762,1.01439,1.01439,0,0,0,.38184-.835,1.03363,1.03363,0,0,0-.2998-.77051,3.53414,3.53414,0,0,0-1.15625-.62109,2.59664,2.59664,0,0,0-.998.59961A1.19377,1.19377,0,0,0,681.55859,368.82138Zm1.36426-3.96387a1.33065,1.33065,0,0,0-.86523.26563.8881.8881,0,0,0-.32715.72852.91584.91584,0,0,0,.12012.47168,1.25683,1.25683,0,0,0,.34863.37109,3.94909,3.94909,0,0,0,.76172.3877,2.41154,2.41154,0,0,0,.89453-.53125.98443.98443,0,0,0,.27148-.69922.89207.89207,0,0,0-.32324-.72656A1.33644,1.33644,0,0,0,682.92285,364.85752Z" transform="translate(-506.25459)" style="fill: #fff"/>
    <path d="M690.55176,368.77158h-.96289v1.42578h-.35937v-1.42578h-2.875v-.25586l2.77148-3.9375h.46289v3.86426h.96289Zm-1.32227-.3291v-1.59766q0-1.1543.05371-1.9375H689.252q-.07617.14063-.46973.71875l-1.97266,2.81641Z" transform="translate(-506.25459)" style="fill: #fff"/>
    <path d="M694.28125,370.19736h-.374v-4.07129q0-.55371.0459-1.15039c-.03809.03809-.07812.0752-.11816.11133q-.06152.05273-1.18164.92871l-.21777-.27148,1.51758-1.13574h.32813Z" transform="translate(-506.25459)" style="fill: #fff"/>
    <path d="M701.19141,367.38779a4.15678,4.15678,0,0,1-.44824,2.17871,1.50174,1.50174,0,0,1-1.35937.707,1.47129,1.47129,0,0,1-1.33008-.72754,5.43155,5.43155,0,0,1-.01367-4.32129,1.47967,1.47967,0,0,1,1.34375-.7041,1.49819,1.49819,0,0,1,1.3457.72852A4.02149,4.02149,0,0,1,701.19141,367.38779Zm-3.17969,0a4.15911,4.15911,0,0,0,.33984,1.9209,1.176,1.176,0,0,0,2.085-.02148,4.27071,4.27071,0,0,0,.33105-1.89941,4.22389,4.22389,0,0,0-.33105-1.88086,1.10436,1.10436,0,0,0-1.05273-.6416,1.0925,1.0925,0,0,0-1.04687.6416A4.29054,4.29054,0,0,0,698.01172,367.38779Z" transform="translate(-506.25459)" style="fill: #fff"/>
    <path d="M706.67578,367.38779a4.15678,4.15678,0,0,1-.44824,2.17871,1.50174,1.50174,0,0,1-1.35937.707,1.47129,1.47129,0,0,1-1.33008-.72754,5.43155,5.43155,0,0,1-.01367-4.32129,1.47967,1.47967,0,0,1,1.34375-.7041,1.49819,1.49819,0,0,1,1.3457.72852A4.02149,4.02149,0,0,1,706.67578,367.38779Zm-3.17969,0a4.15911,4.15911,0,0,0,.33984,1.9209,1.176,1.176,0,0,0,2.085-.02148,4.27071,4.27071,0,0,0,.33105-1.89941,4.22389,4.22389,0,0,0-.33105-1.88086,1.10436,1.10436,0,0,0-1.05273-.6416,1.0925,1.0925,0,0,0-1.04687.6416A4.29054,4.29054,0,0,0,703.49609,367.38779Z" transform="translate(-506.25459)" style="fill: #fff"/>
  </g>
  <rect width="364.34997" height="420.97514" style="fill: none"/>
</svg>
