<svg id="Livello_19" data-name="Livello 19" xmlns="http://www.w3.org/2000/svg" width="30.45mm" height="30.45mm" viewBox="0 0 86.31 86.31"><title>foto</title><rect width="86.31" height="86.31" style="fill:#fff;fill-opacity:0;opacity:0"/><path d="M460.94,257.15l-9.75-1.94a1,1,0,0,1-1-.89v-3.18a1,1,0,0,0-1-.89H436.8a1,1,0,0,0-1,.89v3.18a1,1,0,0,1-1,.89L425,257.15a1.93,1.93,0,0,0-1.86,2v20.68a1.93,1.93,0,0,0,1.86,2h35.91a1.93,1.93,0,0,0,1.86-2V259.14A1.93,1.93,0,0,0,460.94,257.15Z" transform="translate(-399.82 -221.91)" style="fill:#3b3a3a"/><circle cx="43.16" cy="46.59" r="8.71" style="fill:none;stroke:#fff;stroke-miterlimit:10;stroke-width:1.7000000476837158px"/><rect x="38.13" y="30.04" width="10.06" height="2.23" rx="0.71" ry="0.71" style="fill:#fff"/></svg>