<svg id="Livello_13" data-name="Livello 13" xmlns="http://www.w3.org/2000/svg" width="255.70933mm" height="112.50746mm" viewBox="0 0 724.84536 318.91878">
  <title>librosottotappeto</title>
  <polygon points="226.893 223.658 176.56 259.731 259.5 278.775 299.834 240.468 226.893 223.658" style="fill: #009fe3"/>
  <path d="M245.65837,320.65815s-3.63321,9.34357,0,18.04986l19.074-13.67022-2.351-16.36493Z" transform="translate(-69.09817 -78.97684)" style="fill: #009fe3"/>
  <path d="M248.59957,336.60007l79.74179,18.5913,29.225-27.1586-28.33941-20.369-80.6274,13.66968A23.87715,23.87715,0,0,0,248.59957,336.60007Z" transform="translate(-69.09817 -78.97684)" style="fill: #fff"/>
  <polygon points="226.893 205.608 176.56 241.681 259.5 260.725 299.834 222.418 226.893 205.608" style="fill: #009fe3"/>
  <path d="M442.27011,79.01347l347.68195,44.31241a4.56318,4.56318,0,0,1,3.09042,7.242l-196.568,265.47983a4.56318,4.56318,0,0,1-4.58476,1.75462L362.65015,350.75312c-5.08377-1.04339-17.83274-24.12942-22.91643-25.17608-4.69986-.96763-63.47155-12.55629-76.28659-15.56169a4.53157,4.53157,0,0,0-3.91993.91094c-4.78627,3.9246-18.06472,14.30989-23.34808,13.2721-6.72953-1.32186-124.73513-25.164-163.42357-32.98176a4.5615,4.5615,0,0,1-1.29514-8.46613L439.48752,79.54533A4.56318,4.56318,0,0,1,442.27011,79.01347Z" transform="translate(-69.09817 -78.97684)" style="fill: #e6244a"/>
  <path d="M490.94059,353.70782c1.8127-1.1022,2.39824-2.2034.9173-3.51087-1.45667-1.286-5.035-1.58525-7.93246-1.44727s-7.72666.138.68988-6.20892,16.55713-14.62547,20.28249-14.62547,6.63065,5.01091,12.61229,6.12791c4.68253.8744-1.55186,7.4753,5.90187,10.69827,1.74663.75524,2.87173,1.76832,5.07975,2.62845,6.059,2.36026,14.1734,2.54526,16.34333,3.63023s4.24946,1.80828,5.87691,1.44662,1.89869,1.35621,3.61656.36166,3.97821-3.2549,3.07407-4.43028a10.7374,10.7374,0,0,0-7.1427-4.24946c-3.8878-.45207-11.75381-2.74218-11.93464-3.45061s-.6329-4.4154.45207-5.6812,2.71242,2.98366,6.41939,2.71242,1.62745,3.31556,5.78649,2.96878,21.85065,1.14191,23.37524,1.35388c1.93961.26968,4.12584-.71352,5.97392-.64476,1.30253.04845,4.85166.53287,5.05634-1.1834s.70454-4.38037-2.50206-5.19908a41.57515,41.57515,0,0,0-9.61981-.81871c-2.3879,0-13.64512-1.09161-14.05448-2.04677s-3.88886-7.7095-3.54773-8.5282.95516-2.04677,1.84209-2.31967a12.3553,12.3553,0,0,1,7.84595-.40935c4.29821,1.09161,20.67236,5.25337,22.24155,5.8674s10.93439,5.3189,12.50358,5.18245,1.81732-.62586,1.81732-.62586.097.89686,1.26045.53327a5.18612,5.18612,0,0,0,2.06035-.9211.66991.66991,0,0,0,.67871,0c.31511-.21816,1.43013-.96958.75142-3.02993s-1.624-4.31463-5.96291-5.18725-22.228-11.36771-22.48992-11.99621,3.8758.2095,5.8137,0,11.73216,1.30939,13.40818,1.04751,13.82718,2.72354,16.18409.838c0,0,.68088.78564,1.78077-.05238,0,0,1.30939.62851,1.5189-.2095s1.7284-4.19006-2.514-5.13282-11.88928-.57613-13.87956-2.933-9.32287-2.04265-9.32287-2.04265a38.39,38.39,0,0,0,2.67116-6.18033c.52376-2.1474,1.30939-10.57989.05238-12.77967s-22.98005-8.1223-29.78889-5.55589-7.97146.00679-12.962.187c-1.46556.05292-38.13186,5.44508-47.37247,20.91948-5.86062,9.81425-7.36455,8.48915-9.25956,14.09838S485.67284,326.521,478.684,332.19416c-5.48351,4.45122-13.00243,11.90254-9.16222,18.98292C474.66914,360.66759,489.12789,354.81,490.94059,353.70782Z" transform="translate(-69.09817 -78.97684)" style="fill: #171a1e"/>
  <path d="M577.31979,292.54282s.32931.26345-.8562,0-8.82546-3.02964-9.94511-6.78375-1.58068-8.23271,0-10.66959-3.55462-8.62788-1.0199-12.57958,9.45019,5.40066,9.45019,5.40066a25.85453,25.85453,0,0,1,8.89133-.32931c2.35741.28739,7.26266-6.93793,10.29147-6.736s.60576,7.30952.60576,8.48066a15.51279,15.51279,0,0,1-.25946,4.27485c-.40384,1.29229,1.95559,2.4693.6633,6.42694a25.49382,25.49382,0,0,1-4.65067,8.08767c-.51067.46811-4.95558,4.72515-6.10458,4.34215,0,0-.5829,1.48761-3.03723,1.44192C579.04952,293.85662,578.53283,293.77863,577.31979,292.54282Z" transform="translate(-69.09817 -78.97684)" style="fill: #1b2026"/>
  <path d="M572.455,278.212a3.65188,3.65188,0,0,1,2.64536-.66106c1.5999.20579,2.16457,2.339,2.16457,2.58994a2.14342,2.14342,0,0,1-2.57238,1.81949C572.65347,281.584,571.72325,280.14172,572.455,278.212Z" transform="translate(-69.09817 -78.97684)" style="fill: #b7b8ac"/>
  <path d="M584.39759,281.01436s-.52515-1.94265.34-3.0241,3.47793-.937,4.059.15047a2.64227,2.64227,0,0,1-1.514,3.34049C586.05693,281.79364,584.6397,281.4342,584.39759,281.01436Z" transform="translate(-69.09817 -78.97684)" style="fill: #b7b8ac"/>
  <path d="M574.65953,281.01335a1.67607,1.67607,0,0,1-1.32084-1.91788c.14271-1.16965.64976-1.42884,1.51918-1.38733a1.45012,1.45012,0,0,1,1.351,1.80269A1.66885,1.66885,0,0,1,574.65953,281.01335Z" transform="translate(-69.09817 -78.97684)" style="fill: #1d1d1b"/>
  <path d="M586.15121,280.75245a1.72327,1.72327,0,0,1-1.27784-1.519,1.81615,1.81615,0,0,1,.51442-1.56834,1.39675,1.39675,0,0,1,1.91883.04025,1.77292,1.77292,0,0,1,.25313,2.39808A1.23957,1.23957,0,0,1,586.15121,280.75245Z" transform="translate(-69.09817 -78.97684)" style="fill: #1d1d1b"/>
  <path d="M578.43192,286.59036s-.23612-.30877,0-.47223a1.88125,1.88125,0,0,1,1.50751-.23612,11.228,11.228,0,0,0,2.03423-.05518c.34509.05518.79916.49109.41774.76353s-.43591,0-.65386,0-.52932.392-.43591,1.21691c.059.52057-.59937.89-.781.89s-.79916-.563-.781-.70835.1453-.83549.03633-.98079-.61754-.72651-.89-.41774S578.43192,286.59036,578.43192,286.59036Z" transform="translate(-69.09817 -78.97684)" style="fill: #1d1d1b"/>
  <path d="M568.24812,273.8625s-4.53379-8.62525-2.101-10.83686,8.25665,7.04027,8.25665,7.04027S570.61944,277.67941,568.24812,273.8625Z" transform="translate(-69.09817 -78.97684)" style="fill: #5e6e78"/>
  <path d="M586.75187,269.513A4.26221,4.26221,0,0,1,588.3,265.34783c2.17474-1.87986,4.91273-4.46239,6.08191-3.75973s-.29488,8.84641-.5529,8.80955S587.04675,271.50346,586.75187,269.513Z" transform="translate(-69.09817 -78.97684)" style="fill: #5e6e78"/>
  <path d="M580.40361,288.52407s.12648,1.51291-.18476,1.73592-2.47487,1.31882-2.68182,2.14086c0,0-.02672-.37684,1.21543-1.07471s1.25523-.7099,1.67914-.72193a4.28793,4.28793,0,0,1,2.88361,1.39574.54426.54426,0,0,0,.28287.20455,5.2685,5.2685,0,0,0-2.61958-1.96125c-.17005-.05975-.17755-1.4704-.247-1.78935C580.64824,288.072,580.40361,288.52407,580.40361,288.52407Z" transform="translate(-69.09817 -78.97684)" style="fill: #1d1d1b"/>
</svg>
