<svg id="Livello_20" data-name="Livello 20" xmlns="http://www.w3.org/2000/svg" width="130" height="170" viewBox="0 0 130 170">
  <title>librosconosciuto</title>
  <rect width="130" height="170" style="fill: #fff"/>
  <path d="M223.56182,244.65363c0-2.51707,5.33074-4.55386,11.91852-4.55386v4.55386l-11.91852,8.29442v-8.29442" transform="translate(-181.503 -186.21915)" style="fill: #eaeaea"/>
  <path d="M265.88646,297.73581l-30.40612-5.67811V240.09978L266.99,245.984a3.00593,3.00593,0,0,1,2.45413,2.95485V294.781A3.00593,3.00593,0,0,1,265.88646,297.73581Z" transform="translate(-181.503 -186.21915)" style="fill: #eaeaea"/>
  <path d="M265.08945,248.2605l-29.6091-5.88379v.00012l0-.00012c-6.58776,0-11.91851,2.03677-11.91851,4.55386,0,0,2.31332,9.78953,3.92111,10.27451,1.6062.48451,4.99225.12635,7.99741-1.11721v33.49285l6.55862,3.0253,11.9149,9.18686c.85047.16769,11.85229-4.3767,12.42761-4.94416a2.78756,2.78756,0,0,0,.81973-1.99456V250.945A2.69584,2.69584,0,0,0,265.08945,248.2605Z" transform="translate(-181.503 -186.21915)" style="fill: #ededed"/>
  <path d="M253.96794,302.28967l-30.40611-5.67811V244.65363l31.50971,5.88419a3.00593,3.00593,0,0,1,2.45413,2.95485v45.84214A3.00593,3.00593,0,0,1,253.96794,302.28967Z" transform="translate(-181.503 -186.21915)" style="fill: #f9f9f9"/>
  <path d="M243.70992,265.35879a3.64082,3.64082,0,0,1,1.22059,2.79645,3.87312,3.87312,0,0,1-.48,1.99628,11.77157,11.77157,0,0,1-1.46745,1.88979,11.22857,11.22857,0,0,0-1.52231,1.99075,4.35472,4.35472,0,0,0-.50744,2.18416,6.12578,6.12578,0,0,0,.096.92255,9.81434,9.81434,0,0,0,.20572.99545,1.83692,1.83692,0,0,1-.98744.0584,3.40242,3.40242,0,0,1-.87773-1.42134,5.95857,5.95857,0,0,1-.384-2.13755,4.00581,4.00581,0,0,1,.49372-2.104,9.36092,9.36092,0,0,1,1.45374-1.75464,8.63159,8.63159,0,0,0,1.152-1.3368,2.55209,2.55209,0,0,0,.384-1.43489,3.17609,3.17609,0,0,0-.6583-2.00377,2.46054,2.46054,0,0,0-1.56345-.99759,1.57389,1.57389,0,0,0-1.61831.57355,5.41772,5.41772,0,0,0-.79544,2.57675,3.89869,3.89869,0,0,1-1.56345-.53043q.08229-1.03039.08229-1.7178,0-.65953-.08229-1.49739a6.92356,6.92356,0,0,1,1.824-.55366,7.494,7.494,0,0,1,2.4.06264A6.04414,6.04414,0,0,1,243.70992,265.35879Zm-4.62178,17.72483a2.00087,2.00087,0,0,1-.49372-1.34482,1.501,1.501,0,0,1,.56229-1.22712,1.73483,1.73483,0,0,1,1.44-.31416,2.06224,2.06224,0,0,1,1.30288.74889,1.96964,1.96964,0,0,1,.50744,1.25088,1.5549,1.5549,0,0,1-.54858,1.33928,1.78374,1.78374,0,0,1-1.39888.26593A2.20313,2.20313,0,0,1,239.08814,283.08363Z" transform="translate(-181.503 -186.21915)" style="fill: #ededed"/>
</svg>
