<svg id="Livello_17" data-name="Livello 17" xmlns="http://www.w3.org/2000/svg" width="40.08mm" height="28.24mm" viewBox="0 0 113.62 80.05"><title>libri</title><rect x="83.34" y="0.08" width="30.28" height="79.97" style="fill:#298d37"/><rect x="86.9" y="0.86" width="24.15" height="78.24" style="fill:#b2b2b2"/><rect x="83.38" y="0.86" width="24.15" height="78.24" style="fill:#c6c6c6"/><rect x="83.38" y="0.86" width="24.15" height="78.24" style="fill:#c6c6c6"/><rect x="80.03" y="0.86" width="24.15" height="78.24" style="fill:#dadada"/><rect x="76.42" y="0.86" width="24.15" height="78.24" style="fill:#ededed"/><rect x="60.07" y="0.08" width="36.74" height="79.97" style="fill:#3aaa35"/><rect x="25.38" width="31.2" height="79.97" style="fill:#cf1917"/><rect x="13.23" y="0.86" width="40.51" height="78.24" style="fill:#b2b2b2"/><rect x="9.75" y="0.86" width="40.51" height="78.24" style="fill:#c6c6c6"/><rect x="9.75" y="0.86" width="40.51" height="78.24" style="fill:#c6c6c6"/><rect x="6.43" y="0.86" width="40.51" height="78.24" style="fill:#dadada"/><rect x="2.86" y="0.86" width="40.51" height="78.24" style="fill:#ededed"/><rect x="8.43" width="31.2" height="79.97" style="fill:#e6332a"/><rect width="8.6" height="79.97" style="fill:#be1622"/><rect x="60.07" y="0.08" width="8.12" height="79.97" style="fill:#009640"/></svg>