<svg id="Livello_21" data-name="Livello 21" xmlns="http://www.w3.org/2000/svg" width="182.70418" height="61.60409" viewBox="0 0 182.70418 61.60409">
  <title>libri</title>
  <rect x="150.10648" width="32.5977" height="61.60409" rx="1.87583" ry="1.87583" style="fill: #c6c6c6"/>
  <path d="M254.14294,444.1863H203.39183a1.187,1.187,0,0,1-1.187-1.187v-2.36045l10.40036.00058.1895-21.94744-10.58986-.00037v-2.3595a1.187,1.187,0,0,1,1.187-1.187h50.75111a5.29475,5.29475,0,0,1,5.29475,5.29475v18.45166A5.29475,5.29475,0,0,1,254.14294,444.1863Z" transform="translate(-118.53618 -382.58221)" style="fill: #dbdbdb"/>
  <path d="M161.58928,399.5359h33.60931s-1.17567,0-1.17567,9.78845,1.17567,9.78845,1.17567,9.78845H161.58928Z" transform="translate(-118.53618 -382.58221)" style="fill: #f6f6f6"/>
  <path d="M193.29323,420.945H126.80717a1.90535,1.90535,0,0,1-1.90535-1.90535V399.609a1.90535,1.90535,0,0,1,1.90535-1.90535h66.48606a1.90535,1.90535,0,0,1,1.90535,1.90535l-32.6198-.071a.98736.98736,0,0,0-.98951.98736v17.59788a.98736.98736,0,0,0,.98951.98736l32.6198-.071A1.90535,1.90535,0,0,1,193.29323,420.945Z" transform="translate(-118.53618 -382.58221)" style="fill: #e0e0e0"/>
  <path d="M131.30313,420.945a1.90535,1.90535,0,0,1-1.90535-1.90535V399.609a1.90535,1.90535,0,0,1,1.90535-1.90535h5.07549a1.90535,1.90535,0,0,0-1.90535,1.90535v19.4306a1.90535,1.90535,0,0,0,1.90535,1.90535Z" transform="translate(-118.53618 -382.58221)" style="fill: #c6c6c6"/>
  <path d="M181.81,422.7772h7.023s-.36466,0-.36466,9.78845.36466,9.78845.36466,9.78845H181.81Z" transform="translate(-118.53618 -382.58221)" style="fill: #f6f6f6"/>
  <path d="M186.92759,444.1863H120.44153a1.90535,1.90535,0,0,1-1.90535-1.90535v-19.4306a1.90535,1.90535,0,0,1,1.90535-1.90535h66.48606a1.84428,1.84428,0,0,1,1.90535,1.8322h-6.42764a.59532.59532,0,0,0-.59532.59532v18.38627a.59532.59532,0,0,0,.59532.59532h6.42764A1.84428,1.84428,0,0,1,186.92759,444.1863Z" transform="translate(-118.53618 -382.58221)" style="fill: #e2e2e1"/>
  <path d="M158.50936,444.1863A1.90535,1.90535,0,0,1,156.604,442.281v-19.4306a1.90535,1.90535,0,0,1,1.90535-1.90535h8.987a1.90535,1.90535,0,0,0-1.90535,1.90535V442.281a1.90535,1.90535,0,0,0,1.90535,1.90535Z" transform="translate(-118.53618 -382.58221)" style="fill: #c6c6c6"/>
  <path d="M248.6169,444.1863H197.86578a1.187,1.187,0,0,1-1.187-1.187v-2.36045l10.40036.00058.1895-21.94744-10.58986-.00037v-2.3595a1.187,1.187,0,0,1,1.187-1.187H248.6169a5.29475,5.29475,0,0,1,5.29475,5.29475v18.45166A5.29475,5.29475,0,0,1,248.6169,444.1863Z" transform="translate(-118.53618 -382.58221)" style="fill: #e0e0e0"/>
  <path d="M248.3235,440.63944H197.86578s1.9662,0,1.9662-10.97372-1.9662-10.97372-1.9662-10.97372H248.3235a1.73866,1.73866,0,0,1,1.73866,1.73866v18.47012A1.73866,1.73866,0,0,1,248.3235,440.63944Z" transform="translate(-118.53618 -382.58221)" style="fill: #f6f6f6"/>
  <rect x="148.42544" y="1.32036" width="32.5977" height="59.28373" rx="1.87583" ry="1.87583" style="fill: #f6f6f6"/>
  <rect x="138.71831" width="32.5977" height="61.60409" rx="1.87583" ry="1.87583" style="fill: #e0e0e0"/>
  <rect x="144.32938" y="8.52726" width="21.37555" height="7.70231" rx="0.93379" ry="0.93379" style="fill: #c6c6c6"/>
</svg>
