<svg id="Livello_10" data-name="Livello 10" xmlns="http://www.w3.org/2000/svg" width="30.45mm" height="30.45mm" viewBox="0 0 86.3 86.3"><title>matita</title><rect width="86.3" height="86.3" style="fill:#f9f9f9;opacity:0"/><path d="M308.24,101.65l-4.1-4.1a2.6,2.6,0,0,0-3.68,0l-1.52,1.52,7.78,7.78,1.52-1.52A2.6,2.6,0,0,0,308.24,101.65Z" transform="translate(-249.2 -70.47)" style="fill:#3a3a3a"/><path d="M278.33,119.68a1.18,1.18,0,0,0-.35.84v6.1a1.18,1.18,0,0,0,1.18,1.18h6.1a1.18,1.18,0,0,0,.84-.35l20.08-20.08-7.78-7.78Zm.84,7.62a.68.68,0,0,1-.68-.68V123.1s1.49,1.35,2.17,2,2,2.17,2,2.17Z" transform="translate(-249.2 -70.47)" style="fill:#3a3a3a"/></svg>