<svg id="Livello_6" data-name="Livello 6" xmlns="http://www.w3.org/2000/svg" width="102.93mm" height="103.41mm" viewBox="0 0 291.78 293.13"><title>menu</title><path d="M266.55,9.77C275,3,277.74.71,286.6.2c.47-.05.92-.09,1.34-.12l0,0L0,0V293.08l.85-.86C17,275,259.82,15.21,266.55,9.77Z" transform="translate(0 0.04)" style="fill:#f9f9f9"/><line x1="59.22" y1="59.76" x2="155.51" y2="59.76" style="fill:none;stroke:#3c3c3b;stroke-linecap:round;stroke-miterlimit:10;stroke-width:23px"/><line x1="59.22" y1="92.92" x2="155.51" y2="92.92" style="fill:none;stroke:#3c3c3b;stroke-linecap:round;stroke-miterlimit:10;stroke-width:23px"/><line x1="59.22" y1="126.07" x2="155.51" y2="126.07" style="fill:none;stroke:#3c3c3b;stroke-linecap:round;stroke-miterlimit:10;stroke-width:23px"/><path d="M0,293.08S259.59,15.36,266.55,9.73c9.9-8,12-9.7,25.23-9.7,0,0-32.61-3.71-37,41.35-4.24,43.81,8.17,174.1-1,186.35C250.54,232.07,26,268.07,0,293.08Z" transform="translate(0 0.04)" style="fill:#bababa"/></svg>