<svg id="Livello_5" data-name="Livello 5" xmlns="http://www.w3.org/2000/svg" width="262.82087mm" height="213.72904mm" viewBox="0 0 745.00403 605.8461">
  <title>ragazza_cloud</title>
  <rect width="745.00403" height="605.8461" style="fill: none"/>
  <path d="M319.58617,123.33783H228.595a11.42358,11.42358,0,0,0-11.42358,11.42358v3.54677a11.42358,11.42358,0,0,1-11.42358,11.42358h-13.3722A11.42358,11.42358,0,0,0,180.952,161.15535v9.279a11.42358,11.42358,0,0,0,11.42358,11.42358h90.99118a11.42358,11.42358,0,0,0,11.42358-11.42358v-3.54677A11.42358,11.42358,0,0,1,306.214,155.464h13.3722a11.42358,11.42358,0,0,0,11.42358-11.42358v-9.279A11.42358,11.42358,0,0,0,319.58617,123.33783Z" transform="translate(-8.92906 92.43548)" style="fill: #a2daf6"/>
  <polygon points="250.829 242.912 251.756 241.438 253.763 241.867 253.898 245.002 249.64 244.35 250.829 242.912" style="fill: #f0d5d1"/>
  <path d="M259.314,170.33288a10.50643,10.50643,0,0,0-1.44456-4.73821,11.9493,11.9493,0,0,1-2.85024-6.55257c-.36057-2.66753-.68851-5.351-.68851-5.351a1.48212,1.48212,0,0,1,1.95728.53436,40.98591,40.98591,0,0,1,1.92241,5.4654C258.45528,160.457,260.30784,168.44617,259.314,170.33288Z" transform="translate(-8.92906 92.43548)" style="fill: #f0d5d1"/>
  <rect x="256.13499" y="142.28994" width="6.02854" height="25.34522" transform="translate(-51.5483 237.02963) rotate(-28.91017)" style="fill: #e30613"/>
  <path d="M261.49292,201.55251s-.40489-10.72963-.80978-13.36143-2.22691-6.1746-1.3159-18.625a15.83069,15.83069,0,0,0-1.07886-5.601c-.89476-2.24133,6.1968-1.63613,6.35024-.75438.34509,1.98311,1.8724,8.3383,2.63722,10.91044,2.56941,8.641,2.49384,9.092,2.20193,14.99312-.42083,8.50738,3.35212,17.60067,3.04845,25.39484S261.49292,201.55251,261.49292,201.55251Z" transform="translate(-8.92906 92.43548)" style="fill: #f0d5d1"/>
  <path d="M273.614,229.94139a69.39913,69.39913,0,0,1,.9349-7.55582c1.25551-6.296-1.61141-9.10317-1.69348-10.17005s.71943-5.41649-1.60992-7.46819-4.37094-3.0503-7.49457-1.52515-28.15438,53.88453-28.15438,53.88453.51569,19.548,2.30955,20.36075l16.456,9.82609,15.543-11.0911s2.53256-.72219,2.53256-5.5645Z" transform="translate(-8.92906 92.43548)" style="fill: #ededed"/>
  <path d="M232.10519,257.173a154.02665,154.02665,0,0,0-3.47742,20.95511c-.89159,10.52081-3.56638,13.55224-3.65554,14.88963s.17832,5.34957.535,5.79536,4.63629,3.2989,4.63629,3.2989.80244-.98075.4458-1.60487,2.2265-.65381,2.464-.832a13.37641,13.37641,0,0,0,.83135-2.46437l.861-1.27672s-.14846-.6829-1.06888-.3266a5.31479,5.31479,0,0,1-1.39549.386s-.35629-2.7019-.08907-3.11758,1.72209-2.52375,1.51425-4.0677a15.82843,15.82843,0,0,1-.386-4.09739c.20784-.89074,7.4698-16.74016,8.0352-22.10556s.6296-9.28653.6296-9.28653l-4.87936-5.98115Z" transform="translate(-8.92906 92.43548)" style="fill: #f0d5d1"/>
  <path d="M242.47417,380.46962s-1.3871-6.78947-.87606-10.87775-2.9202-11.75381-2.9202-22.19352,1.24109-16.13411,1.09508-18.10524-1.97114-8.54159-1.53311-10.65873,14.747-.80306,14.747-.80306.80306,8.97962,0,12.33785-1.02207,3.86927-1.02207,5.47538.80306,7.51952.219,12.48386-2.70119,18.25125-2.62818,21.24446,1.89813,7.93428,1.89813,7.93428l-.94907,6.3017Z" transform="translate(-8.92906 92.43548)" style="fill: #f0d5d1"/>
  <path d="M265.13339,377.7969a24.0706,24.0706,0,0,0,2.50672-6.99957c.33543-3.0189-3.17354-20.45864-3.17354-24.46683s-.40082-9.21884-1.60328-12.6258-2.50512-16.27648-2.50512-16.27648l10.6217.44413,3.20655,3.00614s.80164,9.82007,1.30266,11.22293a53.39679,53.39679,0,0,1,2.0041,15.93256c-.40082,6.51331-2.0041,18.9387-1.40287,22.64628a19.47415,19.47415,0,0,1-.67907,7.76235l-5.04923,3.1551-5.73054-.35538Z" transform="translate(-8.92906 92.43548)" style="fill: #f0d5d1"/>
  <path d="M270.29821,277.49439l-.63395-2.08308c-1.00649-.99058-21.05748-2.89868-30.20763,1.42282l-.36919,3.01419s-7.03582,9.16852-6.03411,19.82684c.31036,3.30225,5.70691,25.89047,5.62457,24.95477,0,0-.54716.60923,18.07381-2.22166s17.43471-1.52977,17.43471-1.52977a134.24186,134.24186,0,0,0,4.16935-22.00738C279.52159,288.51057,270.29821,277.49439,270.29821,277.49439Z" transform="translate(-8.92906 92.43548)" style="fill: #e30613"/>
  <path d="M231.75471,232.09422A34.62063,34.62063,0,0,0,227.11206,243.98c-1.51571,7.40023-3.03142,9.36174-2.49646,9.8967a23.628,23.628,0,0,0,6.64156,3.20974c1.73942.26748,10.65537.4458,11.4578,0s.08916-3.03142.89159-5.43873,1.6877-10.90331.172-14.56293-6.59147-8.97517-6.59147-8.97517Z" transform="translate(-8.92906 92.43548)" style="fill: #f6f6f6"/>
  <path d="M252.18383,348.1284s-2.70119,18.25125-2.62818,21.24446,1.89813,7.93428,1.89813,7.93428l-.94907,6.3017-8.03055-3.13922s-1.3871-6.78947-.87606-10.87775-2.9202-11.75381-2.9202-22.19352C238.6779,347.39835,243.11736,349.47366,252.18383,348.1284Z" transform="translate(-8.92906 92.43548)" style="fill: #ededed"/>
  <path d="M277.54271,345.53689s.00059,1.68293-.04952,2.4971c-.40082,6.51331-2.0041,18.9387-1.40287,22.64628a19.47415,19.47415,0,0,1-.67907,7.76235l-5.04923,3.1551-5.73054-.35538.50191-3.44543a24.0706,24.0706,0,0,0,2.50672-6.99957c.33543-3.0189-3.17354-20.45864-3.17354-24.46683C264.46657,346.3305,269.14975,348.74128,277.54271,345.53689Z" transform="translate(-8.92906 92.43548)" style="fill: #ededed"/>
  <path d="M239.24018,236.27033c-2.62478-2.28969-6.46012-1.2026-7.48547-4.17611s-.41014-11.1352,1.333-16.262,2.46084-16.03658,6.56224-19.83038,6.35717-5.12675,9.9459-4.92168,8.2028,1.94817,13.02195,10.151,5.12675,11.48392,4.30647,17.73856-12.3042,16.61067-14.3549,17.02081S246.41763,242.53149,239.24018,236.27033Z" transform="translate(-8.92906 92.43548)" style="fill: #1d1d1b"/>
  <path d="M243.22208,390.74623s-1.9929-4.745-.949-9.20532,9.39512-4.46031,9.77472-4.08071,1.0269,1.89091.8541,5.50421c-.02193.45847,2.34475,3.69341,1.7082,4.83991C252.17076,392.19789,243.22208,390.74623,243.22208,390.74623Z" transform="translate(-8.92906 92.43548)" style="fill: #e30613"/>
  <path d="M259.1302,388.749s-.4481-2.78819.79663-3.73419a31.104,31.104,0,0,1,2.589-1.74262s2.09114-6.053,2.38988-5.96406.59747,2.77755.79663,2.62818a17.70145,17.70145,0,0,1,4.38144-1.643,28.42512,28.42512,0,0,1,5.32744.14937c.24895.14937,2.3664,5.08261,1.725,6.62853-.21089.50833.84578,1.58668.10805,2.83141s-5.866,3.0735-5.866,3.0735h-7.61774S259.77746,389.74475,259.1302,388.749Z" transform="translate(-8.92906 92.43548)" style="fill: #e30613"/>
  <path d="M256.68447,163.93009l1.11781-7.70955,2.54107-.59924,2.78233.525,2.25132,1.98219,1.6409,2.531s-.7824,3.77212-1.42049,5.57942c-.40339,1.14256.22669,2.42728.5348,3.56459C267.16792,173.62651,256.68447,163.93009,256.68447,163.93009Z" transform="translate(-8.92906 92.43548)" style="fill: #f0d5d1"/>
  <path d="M260.90274,148.89161c.294,0,1.78923.2556,1.78923.53961s.13528,1.85783.13528,1.85783,1.22582.08682,1.5765.77906c.13089.25837,1.15625,5.491,1.15625,5.491s.50911.605,1.13466,1.51289c.73864,1.072.22781,1.52365.03344,2.499l-5.22895,3.76447-1.15581-9.71417.22415-6.31727S260.60879,148.89161,260.90274,148.89161Z" transform="translate(-8.92906 92.43548)" style="fill: #f0d5d1"/>
  <path d="M265.744,157.79908a22.48355,22.48355,0,0,1,2.46792-3.27652c.5668-.39933.922-.36837,1.07324-.26751a.61459.61459,0,0,1,.30257.52949c-.02521.22693-2.5698,5.87487-2.5698,5.87487l-1.95471-.54064Z" transform="translate(-8.92906 92.43548)" style="fill: #f0d5d1"/>
  <path d="M257.80227,156.22053s.17878-9.06472.40807-9.3447c0,0,.12639-.28906.61189-.2635s.99655.10221,1.0732.58771.44791,8.42125.44791,8.42125v1.74862Z" transform="translate(-8.92906 92.43548)" style="fill: #f0d5d1"/>
  <path d="M477.57294,74.66992V66.35958A11.90789,11.90789,0,0,0,465.66505,54.4517H375.64246a11.90789,11.90789,0,0,0-11.90789,11.90789v4.96194a11.90789,11.90789,0,0,1-11.90789,11.90789H334.457A11.90789,11.90789,0,0,0,322.54913,95.1373v8.31034A11.90789,11.90789,0,0,0,334.457,115.35553h0a11.90789,11.90789,0,0,1,11.90789,11.90789v5.94949a11.90789,11.90789,0,0,0,11.90789,11.90789h90.02259a11.90789,11.90789,0,0,0,11.90789-11.90789v-8.31034a11.90789,11.90789,0,0,0-11.90789-11.90789h0a11.90789,11.90789,0,0,1-11.90789-11.90789V98.4857a11.90789,11.90789,0,0,1,11.90789-11.90789h17.36966A11.90789,11.90789,0,0,0,477.57294,74.66992Z" transform="translate(-8.92906 92.43548)" style="fill: #a2daf6"/>
  <rect x="478.673" y="122.43457" width="94.30804" height="37.84096" rx="18.92046" ry="18.92046" style="fill: #a2daf6"/>
</svg>
