<svg id="Livello_8" data-name="Livello 8" xmlns="http://www.w3.org/2000/svg" width="93.96846mm" height="59.16854mm" viewBox="0 0 266.36728 167.72185">
  <title>scaffali</title>
  <rect x="42.1585" y="29.28416" width="190.73601" height="107.14372" style="fill: #1d1d1b"/>
  <path d="M402.17982,236.14969H381.73845V140.92282s0-.92446,10.22068-.92446,10.22068.92446,10.22068.92446Z" transform="translate(-336.39528 -99.72181)" style="fill: #dcdcd5"/>
  <rect x="65.78454" y="40.27656" width="13.69318" height="96.15132" style="fill: #3c3c3b"/>
  <rect x="69.70575" y="47.90583" width="2.92538" height="47.91056" style="fill: #f6f6f6"/>
  <rect x="73.46911" y="47.90583" width="2.17117" height="25.04087" style="fill: #f6f6f6"/>
  <rect x="79.47772" y="54.85358" width="8.61063" height="81.5743" style="fill: #dadada"/>
  <rect x="82.22618" y="54.85358" width="2.8949" height="13.89551" style="fill: #241714"/>
  <rect x="83.31177" y="71.86111" width="0.72372" height="40.31145" style="fill: #c6c6c6"/>
  <path d="M430.21042,137.9581s.135-.3925-2.32971-.3925c-2.778,0-2.47305.3925-2.47305.3925l-.924,98.19159h4.80276Z" transform="translate(-336.39528 -99.72181)" style="fill: #f6f6f6"/>
  <rect x="94.28246" y="59.82267" width="4.2808" height="76.60521" style="fill: #ededed"/>
  <rect x="102.13759" y="41.48702" width="2.69026" height="94.94086" style="fill: #3c3c3b"/>
  <rect x="105.61952" y="38.76089" width="3.09077" height="97.66699" style="fill: #dbd3d3"/>
  <rect x="109.68764" y="44.17361" width="10.00439" height="92.25427" style="fill: #ededed"/>
  <rect x="111.86515" y="51.64249" width="6.10212" height="6.10212" style="fill: #cfdfd6"/>
  <rect x="111.88619" y="128.40289" width="6.06003" height="8.02499" style="fill: #dadada"/>
  <path d="M456.95522,142.59567s1.73064-.99785,12.707-.99785,12.707.99785,12.707.99785v94.31785H456.95522Z" transform="translate(-336.39528 -99.72181)" style="fill: #ededed"/>
  <path d="M504.81938,136.29388s0-1.21534-11.22512-1.21534-11.22512,1.21534-11.22512,1.21534V236.91352h22.45024Z" transform="translate(-336.39528 -99.72181)" style="fill: #dadada"/>
  <path d="M504.81938,178.42255s0-1.21534-11.22512-1.21534-11.22512,1.21534-11.22512,1.21534v58.491h22.45024Z" transform="translate(-336.39528 -99.72181)" style="fill: #c6c6c6"/>
  <rect x="168.4241" y="46.4349" width="11.04531" height="90.75682" style="fill: #e30613"/>
  <rect x="179.4694" y="39.78096" width="21.57821" height="97.41076" style="fill: #3c3c3b"/>
  <rect x="184.9586" y="49.81293" width="11.73552" height="4.88061" rx="0.49056" ry="0.49056" style="fill: #9d9d9c"/>
  <rect x="201.04762" y="35.35672" width="33.41488" height="101.83499" style="fill: #575756"/>
  <rect x="173.0688" y="93.33307" width="1.75589" height="40.65567" rx="0.39385" ry="0.39385" style="fill: #fff"/>
  <path d="M378.55378,257.73413c0,9.486-10.2778,9.70954-10.2778,9.70954V106.89613s10.2778,1.7675,10.2778,8.78773Z" transform="translate(-336.39528 -99.72181)" style="fill: #f6f6f6"/>
  <path d="M584.84737,118.72819s7.94213.41327,7.94213,3.80427-7.94213,6.47351-7.94213,6.47351h-220.497s-5.99755-4.2623-12.59182-4.66858c-5.04571-.31087-6.99922-5.6092-6.99922-5.6092Z" transform="translate(-336.39528 -99.72181)" style="fill: #f6f6f6"/>
  <path d="M569.28979,109.80028c0-7.14513,10.2778-10.07847,10.2778-10.07847V262.52614s-10.2778-3.99458-10.2778-10.49119Z" transform="translate(-336.39528 -99.72181)" style="fill: #f6f6f6"/>
  <path d="M587.63575,236.14969s4.07315,10.2778,14.77742,10.2778H362.32512c-12.07137,0-25.92983-10.2778-25.92983-10.2778Z" transform="translate(-336.39528 -99.72181)" style="fill: #f6f6f6"/>
  <path d="M469.66217,186.05271c.56653,0,1.09338.00421,1.61169.00928V146.93308c-.51831-.00507-1.04517-.00928-1.61169-.00928s-1.09338.00421-1.61169.00928V186.062C468.56879,186.05692,469.09564,186.05271,469.66217,186.05271Z" transform="translate(-336.39528 -99.72181)" style="fill: #c6c6c6"/>
  <path d="M467.22253,186.07279V146.94388c-2.7243.04193-4.75458.15057-6.2453.28265v39.12891C462.468,186.22336,464.49823,186.11472,467.22253,186.07279Z" transform="translate(-336.39528 -99.72181)" style="fill: #c6c6c6"/>
</svg>
