<svg id="Livello_8" data-name="Livello 8" xmlns="http://www.w3.org/2000/svg" width="74.69541mm" height="105.54438mm" viewBox="0 0 211.73503 299.18092">
  <title>scaffale</title>
  <rect width="211.73503" height="299.18092" style="fill: none"/>
  <rect x="10.2778" y="96.01859" width="190.73601" height="107.14372" style="fill: #1d1d1b"/>
  <path d="M402.17982,236.14969H381.73845V140.92282s0-.92446,10.22068-.92446,10.22068.92446,10.22068.92446Z" transform="translate(-368.27599 -32.98738)" style="fill: #dcdcd5"/>
  <rect x="33.90384" y="107.01099" width="13.69318" height="96.15132" style="fill: #3c3c3b"/>
  <rect x="37.82504" y="114.64026" width="2.92538" height="47.91056" style="fill: #f6f6f6"/>
  <rect x="41.58841" y="114.64026" width="2.17117" height="25.04087" style="fill: #f6f6f6"/>
  <rect x="47.59702" y="121.58802" width="8.61063" height="81.5743" style="fill: #dadada"/>
  <rect x="50.34548" y="121.58802" width="2.8949" height="13.89551" style="fill: #241714"/>
  <rect x="51.43106" y="138.59554" width="0.72372" height="40.31145" style="fill: #c6c6c6"/>
  <path d="M430.21042,137.9581s.135-.3925-2.32971-.3925c-2.778,0-2.47305.3925-2.47305.3925l-.924,98.19159h4.80276Z" transform="translate(-368.27599 -32.98738)" style="fill: #f6f6f6"/>
  <rect x="62.40175" y="126.5571" width="4.2808" height="76.60521" style="fill: #ededed"/>
  <rect x="70.25689" y="108.22146" width="2.69026" height="94.94086" style="fill: #3c3c3b"/>
  <rect x="73.73881" y="105.49533" width="3.09077" height="97.66699" style="fill: #dbd3d3"/>
  <rect x="77.80694" y="110.90805" width="10.00439" height="92.25427" style="fill: #ededed"/>
  <rect x="79.98444" y="118.37692" width="6.10212" height="6.10212" style="fill: #cfdfd6"/>
  <rect x="80.00549" y="195.13733" width="6.06003" height="8.02499" style="fill: #dadada"/>
  <path d="M456.95522,142.59567s1.73064-.99785,12.707-.99785,12.707.99785,12.707.99785v94.31785H456.95522Z" transform="translate(-368.27599 -32.98738)" style="fill: #ededed"/>
  <path d="M504.81938,136.29388s0-1.21534-11.22512-1.21534-11.22512,1.21534-11.22512,1.21534V236.91352h22.45024Z" transform="translate(-368.27599 -32.98738)" style="fill: #dadada"/>
  <path d="M504.81938,178.42255s0-1.21534-11.22512-1.21534-11.22512,1.21534-11.22512,1.21534v58.491h22.45024Z" transform="translate(-368.27599 -32.98738)" style="fill: #c6c6c6"/>
  <rect x="136.54339" y="113.16933" width="11.04531" height="90.75682" style="fill: #e30613"/>
  <rect x="147.5887" y="106.51539" width="21.57821" height="97.41076" style="fill: #3c3c3b"/>
  <rect x="153.07789" y="116.54737" width="11.73552" height="4.88061" rx="0.49056" ry="0.49056" style="fill: #9d9d9c"/>
  <rect x="169.16691" y="102.09116" width="33.41488" height="101.83499" style="fill: #575756"/>
  <rect x="141.1881" y="160.0675" width="1.75589" height="40.65567" rx="0.39385" ry="0.39385" style="fill: #fff"/>
  <path d="M378.55378,246.42749H368.276V118.72819h10.2778Z" transform="translate(-368.27599 -32.98738)" style="fill: #f6f6f6"/>
  <path d="M579.56759,118.72819V129.006H370.5941s9.415-2.64579,2.82078-3.05208c-5.04571-.31087-5.1389-7.2257-5.1389-7.2257Z" transform="translate(-368.27599 -32.98738)" style="fill: #f6f6f6"/>
  <path d="M569.28979,118.72819h10.2778v127.6993h-10.2778Z" transform="translate(-368.27599 -32.98738)" style="fill: #f6f6f6"/>
  <path d="M579.56759,236.14969s-10.70427,10.2778,0,10.2778H368.276v-10.2778Z" transform="translate(-368.27599 -32.98738)" style="fill: #f6f6f6"/>
  <path d="M469.66217,186.05271c.56653,0,1.09338.00421,1.61169.00928V146.93308c-.51831-.00507-1.04517-.00928-1.61169-.00928s-1.09338.00421-1.61169.00928V186.062C468.56879,186.05692,469.09564,186.05271,469.66217,186.05271Z" transform="translate(-368.27599 -32.98738)" style="fill: #c6c6c6"/>
  <path d="M467.22253,186.07279V146.94388c-2.7243.04193-4.75458.15057-6.2453.28265v39.12891C462.468,186.22336,464.49823,186.11472,467.22253,186.07279Z" transform="translate(-368.27599 -32.98738)" style="fill: #c6c6c6"/>
</svg>
