<svg id="Livello_4" data-name="Livello 4" xmlns="http://www.w3.org/2000/svg" xmlns:xlink="http://www.w3.org/1999/xlink" width="126.98978mm" height="126.0876mm" viewBox="0 0 359.97103 357.41368">
  <title>telefoni</title>
  <image width="738" height="1300" transform="translate(9.31138 41.21039) scale(0.21262)" xlink:href="../../../Schermata 2018-07-29 alle 16.43.25.png"/>
  <image width="742" height="1298" transform="translate(193.88093 40.85833) scale(0.21125)" xlink:href="../../../Schermata 2018-07-27 alle 12.29.12.png"/>
  <image width="742" height="1298" transform="translate(192.88093 39.85833) scale(0.21125)" xlink:href="../../../Schermata 2018-07-29 alle 16.36.56.png"/>
  <path d="M178.50043,31.01913H58.00206A27.51643,27.51643,0,0,0,30.48562,58.5355V360.91637a27.51644,27.51644,0,0,0,27.51644,27.51644H178.50043a27.51644,27.51644,0,0,0,27.51644-27.51644V58.5355A27.51643,27.51643,0,0,0,178.50043,31.01913Zm16.64766,310.48225a2.95658,2.95658,0,0,1-2.95655,2.95655H44.311a2.95652,2.95652,0,0,1-2.95649-2.95655V76.01393A2.95647,2.95647,0,0,1,44.311,73.05745H192.19153a2.95652,2.95652,0,0,1,2.95655,2.95649Z" transform="translate(-30.48562 -31.01913)" style="fill: #f6f6f6"/>
  <circle cx="87.76564" cy="333.44278" r="13.18866" style="fill: none;stroke: #dadada;stroke-miterlimit: 10;stroke-width: 0.75px"/>
  <rect x="71.46475" y="20.55829" width="32.60178" height="5.55716" rx="1.57975" ry="1.57975" style="fill: #dadada"/>
  <circle cx="59.87793" cy="23.33687" r="2.76504" style="fill: #dadada"/>
  <path d="M362.9402,31.01913H242.44183A27.51643,27.51643,0,0,0,214.92539,58.5355V360.91637a27.51644,27.51644,0,0,0,27.51644,27.51644H362.9402a27.51644,27.51644,0,0,0,27.51644-27.51644V58.5355A27.51643,27.51643,0,0,0,362.9402,31.01913Zm16.64766,310.48225a2.95658,2.95658,0,0,1-2.95655,2.95655H228.75073a2.95652,2.95652,0,0,1-2.95649-2.95655V76.01393a2.95647,2.95647,0,0,1,2.95649-2.95649H376.63131a2.95652,2.95652,0,0,1,2.95655,2.95649Z" transform="translate(-30.48562 -31.01913)" style="fill: #f6f6f6"/>
  <circle cx="272.20542" cy="333.44278" r="13.18866" style="fill: none;stroke: #dadada;stroke-miterlimit: 10;stroke-width: 0.75px"/>
  <rect x="255.90453" y="20.55829" width="32.60178" height="5.55716" rx="1.57975" ry="1.57975" style="fill: #dadada"/>
  <circle cx="244.31771" cy="23.33687" r="2.76504" style="fill: #dadada"/>
</svg>
