<svg id="Livello_6" data-name="Livello 6" xmlns="http://www.w3.org/2000/svg" width="99.89mm" height="225.23mm" viewBox="0 0 283.14 638.46"><title>tipozza2</title><path d="M254.81,435.82s12.93-9,13.56-9,40.58,8,41.85,8.2,13.14,5.26,14.4,6.62-22.26,2.75-22.26,2.75Z" transform="translate(-145.59)" style="fill:#f6f6f6"/><path d="M273.19,488.94S303,487,311.76,480.41s-24.59,40.06-34.46,69.06c-4.57,13.42-10.76,11.53-12.85,20.45-.85,3.62,5.33,5.11,6.61,7.67s13.83,26.13,16.47,27c6.42,2.14,4-1.22,4.63-3.56s2.77-10.23,2.13-12.57-11.86-18.79-5.87-27.88c5.38-8.16,22.89-27.53,25.15-29.66s18.45-12.36,35.28-43.26,1.7-45.9-1.7-47.35-90,4.94-90,4.94l-26,2.73,15.61,40.32Z" transform="translate(-145.59)" style="fill:#f2c8bf"/><path d="M393.85,634.85c-14.12-3.2-8.69-10.81-11.63-13.18-5.41-4.37-15.69-20.67-31-29.23-18.55-10.36-38.65-21.18-59.75-63.17-1.88-3.74-14.69-11.78-14.69-11.78-12.58-.83-34.83,3.3-78.84-10.89,0,0-44.71-43-13.92-58.61s43,4,43,4,60.59,28.08,62.77,28.42,8.3,5.08,12.86,11.84,7.07,10.83,8.09,11.85,29.44,34.66,59.68,76.34c5.39,7.42,13.83,22.74,21.47,29,16.21,13.31,30.43,22.73,36.9,29" transform="translate(-145.59)" style="fill:#f0d5d1"/><path d="M237.13,407.17s1.82,1.44,4,12.72c.56,2.95,10.25,7.73,14.62,17.64s-29.06,18-29.06,18-21.86,2.35-30.26,16.46-2.69,30.92,1.51,34.62c0,0-37.64-16.47-36.13-44.7S187.5,416,187.5,416l-.84-5.15Z" transform="translate(-145.59)" style="fill:#1c1c1c"/><path d="M186.66,410.88s-9.58-29.37-8.74-41.85,79.24-1.39,79.24-1.39-16.33,38.89-20,39.54S186.66,410.88,186.66,410.88Z" transform="translate(-145.59)" style="fill:#e52421"/><path d="M262.81,318.06s-1.58-13-2.24-20.15c-.59-6.45,2.11-12.56,4.08-21.88,3.5-16.63-29.38,21.9-29.38,21.9l-6.36,9.44a71.05,71.05,0,0,1,16.46,2.77C253.19,312.61,262.81,318.06,262.81,318.06Z" transform="translate(-145.59)" style="fill:#1d1d1b"/><path d="M236.06,297s-4.12,5.89-4.12,8.2-.58,6.08-6.08,11-6.51,6.66-8.68,6.8-23.88-16.21-23.88-16.21,16.6-35.82,24.95-39S236.06,297,236.06,297Z" transform="translate(-145.59)" style="fill:#f2c8bf"/><path d="M220.94,254.52S217.52,268,217.52,270c0,1.24,14.16,23.23,14.79,23.94,1.25,1.42,5.45,6.3,10.29,1.92,1.4-1.27,10.86-4.14,14.89-6.83s4.93-7.61,5.93-8.06a30.38,30.38,0,0,0,5.49-5.15c.34-.67,5.63-9.57,6-15.5.29-5.14,4.22-16.19-25.79-19S221.89,252.22,220.94,254.52Z" transform="translate(-145.59)" style="fill:#f0d5d1"/><path d="M270.71,282.87c-1-1.62-6.09-5.35-6.31-5.51a2.39,2.39,0,0,0-3,.49L257,273.73a3.75,3.75,0,0,0,.69-1.84,2.51,2.51,0,0,0-.92-2.12c-.08-.07-7.8-7.17-10.41-9.19a2.72,2.72,0,0,0-3-.6,2,2,0,0,0-.29.2l-10.28-19.25-.22.12,10.31,19.31a3.91,3.91,0,0,0-.84,3.13c.27,2.52.83,7.3,1.06,9.34l.06.5a2.57,2.57,0,0,0,2.08,2.49,23.73,23.73,0,0,0,5.32.6,8.92,8.92,0,0,0,4.6-.94,6.77,6.77,0,0,0,1.69-1.56l4.32,4.09a15.09,15.09,0,0,0-1.65,1.82,10.12,10.12,0,0,0-2.41,5.36c0,.83.85,1.4,2.09,1.47l1.49.11c1.37.11,3.21.25,4.77.25a12.55,12.55,0,0,0,2-.13,4.58,4.58,0,0,0,3.29-2.26A1.81,1.81,0,0,0,270.71,282.87Zm-15.65-7.59c-2.51,1.65-8.79.61-9.71.31a2.33,2.33,0,0,1-1.91-2.28l-.06-.5c-.24-2-.79-6.82-1.06-9.34a3.25,3.25,0,0,1,1.19-3.27,1.68,1.68,0,0,1,.83-.21,3.23,3.23,0,0,1,1.91.79c2.6,2,10.31,9.1,10.39,9.18a2.27,2.27,0,0,1,.83,1.92A4.85,4.85,0,0,1,255.06,275.28Zm15.54,9.26a4.32,4.32,0,0,1-3.11,2.11,34.75,34.75,0,0,1-6.74-.13l-1.5-.11c-1.1-.06-1.82-.54-1.85-1.23a9.86,9.86,0,0,1,2.36-5.2c1.73-2.19,3-3.29,4.5-2.43.05,0,5.24,3.85,6.24,5.44A1.56,1.56,0,0,1,270.6,284.54Z" transform="translate(-145.59)" style="fill:#1d1d1b"/><line x1="125.03" y1="284.69" x2="120.7" y2="276.59" style="fill:none;stroke:#1d1d1b;stroke-miterlimit:10;stroke-width:0.25px"/><path d="M255,275.33c-2.51,1.65-8.79.61-9.71.31a2.33,2.33,0,0,1-1.91-2.28l-.06-.5c-.24-2-.79-6.82-1.06-9.34a3.25,3.25,0,0,1,1.19-3.27,1.68,1.68,0,0,1,.83-.21,3.23,3.23,0,0,1,1.91.79c2.6,2,10.31,9.1,10.39,9.18a2.27,2.27,0,0,1,.83,1.92A4.85,4.85,0,0,1,255,275.33Zm15.54,9.26a4.32,4.32,0,0,1-3.11,2.11,34.75,34.75,0,0,1-6.74-.13l-1.5-.11c-1.1-.06-1.82-.54-1.85-1.23a9.86,9.86,0,0,1,2.36-5.2c1.73-2.19,3-3.29,4.5-2.43.05,0,5.24,3.85,6.24,5.44A1.56,1.56,0,0,1,270.55,284.6Z" transform="translate(-145.59)" style="fill:#e30613;opacity:0.38"/><path d="M246.68,256.81s3.93.28,5.13,1.45,3.55,8.12,3.82,8.33,3-.42,3-.42-1.43.35-2.74-3.29-2.75-4.75-3.79-5.44S246.68,256.81,246.68,256.81Z" transform="translate(-145.59)" style="fill:#1d1d1b"/><path d="M262.81,273.94s1.62,0,2.11-.5,4.31,1.77,4.31,1.77l-.32.58Z" transform="translate(-145.59)" style="fill:#1d1d1b"/><path d="M192.27,311.56" transform="translate(-145.59)" style="fill:#f2c8bf"/><path d="M199.18,276.22c-.1,0-10.48,19.25-6.37,38.41,4.07,19-8.05,15.09-4.7,24.32s6.71,12.91,6,14.76,13.58-31.53,10.9-39.24,8.55-4,8.89-16.44a151.67,151.67,0,0,1,4.55-29.26c3.69-13.44,6.93-21.35,8-23.59.69-1.43,10.49-.53,18.86.21,8.6.76,17.35,8,23,5.34a14.6,14.6,0,0,0,4,6.54c2.4,2.39,1.16,7.74,1.16,7.74s3.92-1,4.78-4.59,5.6-18.07-9.9-30.15-30.69-13.88-42.73-1.55C216.92,237.61,204.74,261.52,199.18,276.22Z" transform="translate(-145.59)" style="fill:#1d1d1b"/><path d="M177.93,395.44s1.79,5.53,1.79,7.18S208.86,420.27,236,447c0,0,13,1.94,14.78,2.85,4,2.07,6.36,11.24,6.36,11.24s-2.39,8.6-5.37,8.6-25.13-14.22-25.13-14.22-51.25-28.76-53.56-31.08-9.4-5.7-13.49-16.19-9-33.74-9-33.74l21.82,5.29Z" transform="translate(-145.59)" style="fill:#f0d5d1"/><path d="M232.63,444.65,249.34,435s37.53,1.26,39.11,1.58,14.78,2.3,14.12,5.67-38.23,11.5-38.23,11.5l-13.08-1.61L231.15,448Z" transform="translate(-145.59)" style="fill:#ededed"/><path d="M252,454.42l13.11,1.23s46.26-14.34,48.42-14.34c0,0-.95-1.27-3.87-1s-45.34,13.37-45.34,13.37l-13.08-1.61Z" transform="translate(-145.59)" style="fill:#e6292f"/><path d="M273.4,401.94c2.14.32,12.17,8.94,17.61-68.11a25.86,25.86,0,0,0,9.24-8.3c3.8-5.7,1.38-23.48,1.38-23.48s3.45-9.84,3.45-10.88-.69-2.59-1.55-2.59-20.2,29.17-23.13,37.11-15.92,50-13.47,64.13C268.75,400.31,273.4,401.94,273.4,401.94Z" transform="translate(-145.59)" style="fill:#f0d5d1"/><path d="M305.57,301.34s2.9-2.07,3.1,2.17l-1.55,2.9S304.43,307.14,305.57,301.34Z" transform="translate(-145.59)" style="fill:#f0d5d1"/><path d="M306.29,304.73s2.9-2.07,3.1,2.17l-1.55,2.9S305.16,310.53,306.29,304.73Z" transform="translate(-145.59)" style="fill:#f0d5d1"/><path d="M310.39,319.82l-6.89-26a1.32,1.32,0,0,0-1.27-.95c-2.83,0-10.91.27-16.51,5a1.16,1.16,0,0,0-.38,1.19c1,3.92,6,23.24,7.35,26.26a.93.93,0,0,0,.6.51,18.11,18.11,0,0,0,17-5.33A.75.75,0,0,0,310.39,319.82Z" transform="translate(-145.59)" style="fill:#ededed"/><path d="M280.75,324.84a15.21,15.21,0,0,1,.61-5.7c.92-2.69,5.79-15.11,5.79-15.11s4.76-.1,1.14,10.87S280.75,324.84,280.75,324.84Z" transform="translate(-145.59)" style="fill:#f0d5d1"/><path d="M308,295.58l-5,1.7,4.56,18.51,4.84-5.43a1.33,1.33,0,0,0,.3-1.19l-3-12.63A1.33,1.33,0,0,0,308,295.58Zm.15,15.71-3.28-12.13,1.26-.43a1.33,1.33,0,0,1,1.71.91l2.27,8.26a1.33,1.33,0,0,1-.23,1.17Z" transform="translate(-145.59)" style="fill:#ededed"/><line x1="153.97" y1="292.92" x2="153.97" style="fill:none;stroke:#ededed;stroke-miterlimit:10;stroke-width:0.75px"/><path d="M193.23,300.21s-30.3,12.68-31.56,13.69c-2.29,1.83-1.08,8-4.87,15.41-4.19,8.22-11.22,46.58-11.22,46.58s.38,4.36,13.54,8.1,18.81,11.44,18.81,11.44c0-24.81,1.34-26.9,1.34-26.9,7.35,8.65,12.54,8.75,17.81,8.47,6.62-.35,20.14-7.82,23.68-7.61s10.2,5.12,20.62,6.87,15.3-9.3,15.7-6.62c3.33,22.42,13.39,29,13.39,29-11.21-9.51,6.7-58.69,6.7-58.69S271,321,270.47,318.66c-.5-2.17-33-14.46-37.86-15.92S193.23,300.21,193.23,300.21Z" transform="translate(-145.59)" style="fill:#e83b3b"/><path d="M192.62,349.18s1.31,4.23,1.6,4.23c0,0,.8-1.85,1.47-3.43,1.26-1.73,2.42-6.61,5.1-13.83,1.77-4.76,1.14-4.89,3.09-10.17,1.79-4.84,2.17-8.32.81-13.38-1.14-4.25,7.23-3.8,9.14-13.13.62-3,.23-7.32,1.1-13.53,2.14-15.31,6.35-26.08,12.05-41.28.32-.85,21.1,1.15,22.09,1.56,9.12,3.84,17.79,6.5,19.37,3.58,2.85-5.27,1.85-13.54,1.85-17.92-2.83-2.29-7.24-7.27-20.63-11-2.51-.71-9.76-1.17-16.78,2.27-7.89,4.73-10.27,9-13.66,13.85a39.1,39.1,0,0,0-2.7,4.28,24.26,24.26,0,0,1-1.4,2.59c-9,14.33-16,27.05-19.9,42.09A123.31,123.31,0,0,0,192.27,299c-.37,2.25-.26,8.27,0,12.52.28,4.67,1.75,9.42,1,13.87-.79,4.85-6.71,7.14-5.85,11.16C188.66,342.33,191.92,347.68,192.62,349.18Z" transform="translate(-145.59)" style="fill:#1d1d1b;stroke:#000;stroke-width:0.25px"/><path d="M192.62,349.18s1.31,4.23,1.6,4.23c0,0,.8-1.85,1.47-3.43,1.26-1.73,2.42-6.61,5.1-13.83,1.77-4.76,1.14-4.89,3.09-10.17,1.79-4.84,2.17-8.32.81-13.38-1.14-4.25,7.23-3.8,9.14-13.13.62-3,.23-7.32,1.1-13.53,2.14-15.31,6.35-26.08,12.05-41.28.32-.85,21.1,1.15,22.09,1.56,9.12,3.84,17.79,6.5,19.37,3.58,2.85-5.27,1.85-13.54,1.85-17.92-2.83-2.29-7.24-7.27-20.63-11-2.51-.71-9.76-1.17-16.78,2.27-7.89,4.73-10.27,9-13.66,13.85a39.1,39.1,0,0,0-2.7,4.28,24.26,24.26,0,0,1-1.4,2.59c-9,14.33-16,27.05-19.9,42.09A123.31,123.31,0,0,0,192.27,299c-.37,2.25-.26,8.27,0,12.52.28,4.67,1.75,9.42,1,13.87-.79,4.85-6.71,7.14-5.85,11.16C188.66,342.33,191.92,347.68,192.62,349.18Z" transform="translate(-145.59)" style="fill:#0f0f0f"/></svg>