<svg id="Livello_9" data-name="Livello 9" xmlns="http://www.w3.org/2000/svg" width="97.56mm" height="97.56mm" viewBox="0 0 276.54 276.54"><title>usericon</title><path d="M111.1,220.07h0A8,8,0,0,1,113.22,209l51.66-35.13a8,8,0,0,0,2.66-10.16,68,68,0,1,1,121.24,0,8,8,0,0,0,2.66,10.16L343,209a8,8,0,0,1,2.11,11.12h0A8,8,0,0,1,334,222.18l-64.5-44a8,8,0,0,1-1.6-11.78h0a52,52,0,1,0-79.42,0h0a8,8,0,0,1-1.61,11.78l-64.63,44A8,8,0,0,1,111.1,220.07Z" transform="translate(-90.98 -18.97)" style="fill:#fff"/><circle cx="138.27" cy="138.27" r="131.27" style="fill:none;stroke:#fff;stroke-miterlimit:10;stroke-width:14px"/></svg>