<?xml version="1.0" encoding="utf-8"?>
<!-- Generator: Adobe Illustrator 17.0.2, SVG Export Plug-In . SVG Version: 6.00 Build 0)  -->
<!DOCTYPE svg PUBLIC "-//W3C//DTD SVG 1.1//EN" "http://www.w3.org/Graphics/SVG/1.1/DTD/svg11.dtd">
<svg version="1.1" id="Capa_1" xmlns="http://www.w3.org/2000/svg" xmlns:xlink="http://www.w3.org/1999/xlink" x="0px" y="0px"
	 width="500px" height="500px" viewBox="0 0 500 500" enable-background="new 0 0 500 500" xml:space="preserve">
<g>
	<path fill="#FFFFFF" d="M50,404.167V262.5c0-4.608-3.733-8.333-8.333-8.333s-8.333,3.725-8.333,8.333v141.667
		c0,4.608,3.733,8.333,8.333,8.333S50,408.775,50,404.167z"/>
	<path fill="#FFFFFF" d="M466.667,404.167V262.5c0-4.608-3.733-8.333-8.333-8.333c-4.6,0-8.333,3.725-8.333,8.333v141.667
		c0,4.608,3.733,8.333,8.333,8.333C462.933,412.5,466.667,408.775,466.667,404.167z"/>
	<path fill="#FFFFFF" d="M75,254.167c-4.6,0-8.333,3.725-8.333,8.333v75c0,4.608,3.733,8.333,8.333,8.333
		c4.6,0,8.333-3.725,8.333-8.333v-75C83.333,257.892,79.6,254.167,75,254.167z"/>
	<path fill="#FFFFFF" d="M100,254.167c-4.6,0-8.333,3.725-8.333,8.333v75c0,4.608,3.733,8.333,8.333,8.333
		c4.6,0,8.333-3.725,8.333-8.333v-75C108.333,257.892,104.6,254.167,100,254.167z"/>
	<path fill="#FFFFFF" d="M150,337.5v-75c0-4.608-3.733-8.333-8.333-8.333c-4.6,0-8.333,3.725-8.333,8.333v75
		c0,4.608,3.733,8.333,8.333,8.333C146.267,345.833,150,342.108,150,337.5z"/>
	<path fill="#FFFFFF" d="M175,337.5v-75c0-4.608-3.733-8.333-8.333-8.333c-4.6,0-8.333,3.725-8.333,8.333v75
		c0,4.608,3.733,8.333,8.333,8.333C171.267,345.833,175,342.108,175,337.5z"/>
	<path fill="#FFFFFF" d="M200,337.5v-75c0-4.608-3.733-8.333-8.333-8.333c-4.6,0-8.333,3.725-8.333,8.333v75
		c0,4.608,3.733,8.333,8.333,8.333C196.267,345.833,200,342.108,200,337.5z"/>
	<path fill="#FFFFFF" d="M250,337.5v-75c0-4.608-3.733-8.333-8.333-8.333s-8.333,3.725-8.333,8.333v75
		c0,4.608,3.733,8.333,8.333,8.333S250,342.108,250,337.5z"/>
	<path fill="#FFFFFF" d="M291.667,262.5c0-4.608-3.733-8.333-8.333-8.333S275,257.892,275,262.5v75c0,4.608,3.733,8.333,8.333,8.333
		s8.333-3.725,8.333-8.333V262.5z"/>
	<path fill="#FFFFFF" d="M316.667,262.5c0-4.608-3.733-8.333-8.333-8.333c-4.6,0-8.333,3.725-8.333,8.333v75
		c0,4.608,3.733,8.333,8.333,8.333c4.6,0,8.333-3.725,8.333-8.333V262.5z"/>
	<path fill="#FFFFFF" d="M350,254.167c-4.6,0-8.333,3.725-8.333,8.333v75c0,4.608,3.733,8.333,8.333,8.333s8.333-3.725,8.333-8.333
		v-75C358.333,257.892,354.6,254.167,350,254.167z"/>
	<path fill="#FFFFFF" d="M375,254.167c-4.6,0-8.333,3.725-8.333,8.333v75c0,4.608,3.733,8.333,8.333,8.333s8.333-3.725,8.333-8.333
		v-75C383.333,257.892,379.6,254.167,375,254.167z"/>
	<path fill="#FFFFFF" d="M425,345.833c4.6,0,8.333-3.725,8.333-8.333v-75c0-4.608-3.733-8.333-8.333-8.333s-8.333,3.725-8.333,8.333
		v75C416.667,342.108,420.4,345.833,425,345.833z"/>
	<path fill="#FFFFFF" d="M33.333,95.833V212.5c0,4.608,3.733,8.333,8.333,8.333S50,217.108,50,212.5V95.833
		c0-4.608-3.733-8.333-8.333-8.333S33.333,91.225,33.333,95.833z"/>
	<path fill="#FFFFFF" d="M466.667,212.5V95.833c0-4.608-3.733-8.333-8.333-8.333c-4.6,0-8.333,3.725-8.333,8.333V212.5
		c0,4.608,3.733,8.333,8.333,8.333C462.933,220.833,466.667,217.108,466.667,212.5z"/>
	<path fill="#FFFFFF" d="M66.667,212.5c0,4.608,3.733,8.333,8.333,8.333c4.6,0,8.333-3.725,8.333-8.333V95.833
		c0-4.608-3.733-8.333-8.333-8.333c-4.6,0-8.333,3.725-8.333,8.333V212.5z"/>
	<path fill="#FFFFFF" d="M100,220.833c4.6,0,8.333-3.725,8.333-8.333V95.833c0-4.608-3.733-8.333-8.333-8.333
		c-4.6,0-8.333,3.725-8.333,8.333V212.5C91.667,217.108,95.4,220.833,100,220.833z"/>
	<path fill="#FFFFFF" d="M141.667,220.833c4.6,0,8.333-3.725,8.333-8.333V95.833c0-4.608-3.733-8.333-8.333-8.333
		c-4.6,0-8.333,3.725-8.333,8.333V212.5C133.333,217.108,137.067,220.833,141.667,220.833z"/>
	<path fill="#FFFFFF" d="M166.667,220.833c4.6,0,8.333-3.725,8.333-8.333V95.833c0-4.608-3.733-8.333-8.333-8.333
		c-4.6,0-8.333,3.725-8.333,8.333V212.5C158.333,217.108,162.067,220.833,166.667,220.833z"/>
	<path fill="#FFFFFF" d="M191.667,220.833c4.6,0,8.333-3.725,8.333-8.333V95.833c0-4.608-3.733-8.333-8.333-8.333
		c-4.6,0-8.333,3.725-8.333,8.333V212.5C183.333,217.108,187.067,220.833,191.667,220.833z"/>
	<path fill="#FFFFFF" d="M241.667,220.833c4.6,0,8.333-3.725,8.333-8.333V95.833c0-4.608-3.733-8.333-8.333-8.333
		s-8.333,3.725-8.333,8.333V212.5C233.333,217.108,237.067,220.833,241.667,220.833z"/>
	<path fill="#FFFFFF" d="M283.333,220.833c4.6,0,8.333-3.725,8.333-8.333V95.833c0-4.608-3.733-8.333-8.333-8.333
		S275,91.225,275,95.833V212.5C275,217.108,278.733,220.833,283.333,220.833z"/>
	<path fill="#FFFFFF" d="M308.333,220.833c4.6,0,8.333-3.725,8.333-8.333V95.833c0-4.608-3.733-8.333-8.333-8.333
		c-4.6,0-8.333,3.725-8.333,8.333V212.5C300,217.108,303.733,220.833,308.333,220.833z"/>
	<path fill="#FFFFFF" d="M350,220.833c4.6,0,8.333-3.725,8.333-8.333V95.833c0-4.608-3.733-8.333-8.333-8.333
		s-8.333,3.725-8.333,8.333V212.5C341.667,217.108,345.4,220.833,350,220.833z"/>
	<path fill="#FFFFFF" d="M375,220.833c4.6,0,8.333-3.725,8.333-8.333V95.833c0-4.608-3.733-8.333-8.333-8.333
		s-8.333,3.725-8.333,8.333V212.5C366.667,217.108,370.4,220.833,375,220.833z"/>
	<path fill="#FFFFFF" d="M425,220.833c4.6,0,8.333-3.725,8.333-8.333V95.833c0-4.608-3.733-8.333-8.333-8.333
		s-8.333,3.725-8.333,8.333V212.5C416.667,217.108,420.4,220.833,425,220.833z"/>
	<path fill="#FFFFFF" d="M75,370.833c-4.6,0-8.333,3.725-8.333,8.333v8.333c0,4.608,3.733,8.333,8.333,8.333
		c4.6,0,8.333-3.725,8.333-8.333v-8.333C83.333,374.558,79.6,370.833,75,370.833z"/>
	<path fill="#FFFFFF" d="M100,370.833c-4.6,0-8.333,3.725-8.333,8.333v8.333c0,4.608,3.733,8.333,8.333,8.333
		c4.6,0,8.333-3.725,8.333-8.333v-8.333C108.333,374.558,104.6,370.833,100,370.833z"/>
	<path fill="#FFFFFF" d="M125,370.833c-4.6,0-8.333,3.725-8.333,8.333v8.333c0,4.608,3.733,8.333,8.333,8.333
		s8.333-3.725,8.333-8.333v-8.333C133.333,374.558,129.6,370.833,125,370.833z"/>
	<path fill="#FFFFFF" d="M150,370.833c-4.6,0-8.333,3.725-8.333,8.333v8.333c0,4.608,3.733,8.333,8.333,8.333
		c4.6,0,8.333-3.725,8.333-8.333v-8.333C158.333,374.558,154.6,370.833,150,370.833z"/>
	<path fill="#FFFFFF" d="M175,370.833c-4.6,0-8.333,3.725-8.333,8.333v8.333c0,4.608,3.733,8.333,8.333,8.333
		c4.6,0,8.333-3.725,8.333-8.333v-8.333C183.333,374.558,179.6,370.833,175,370.833z"/>
	<path fill="#FFFFFF" d="M200,370.833c-4.6,0-8.333,3.725-8.333,8.333v8.333c0,4.608,3.733,8.333,8.333,8.333
		c4.6,0,8.333-3.725,8.333-8.333v-8.333C208.333,374.558,204.6,370.833,200,370.833z"/>
	<path fill="#FFFFFF" d="M225,370.833c-4.6,0-8.333,3.725-8.333,8.333v8.333c0,4.608,3.733,8.333,8.333,8.333
		c4.6,0,8.333-3.725,8.333-8.333v-8.333C233.333,374.558,229.6,370.833,225,370.833z"/>
	<path fill="#FFFFFF" d="M250,370.833c-4.6,0-8.333,3.725-8.333,8.333v8.333c0,4.608,3.733,8.333,8.333,8.333
		c4.6,0,8.333-3.725,8.333-8.333v-8.333C258.333,374.558,254.6,370.833,250,370.833z"/>
	<path fill="#FFFFFF" d="M275,370.833c-4.6,0-8.333,3.725-8.333,8.333v8.333c0,4.608,3.733,8.333,8.333,8.333
		s8.333-3.725,8.333-8.333v-8.333C283.333,374.558,279.6,370.833,275,370.833z"/>
	<path fill="#FFFFFF" d="M300,370.833c-4.6,0-8.333,3.725-8.333,8.333v8.333c0,4.608,3.733,8.333,8.333,8.333
		s8.333-3.725,8.333-8.333v-8.333C308.333,374.558,304.6,370.833,300,370.833z"/>
	<path fill="#FFFFFF" d="M325,370.833c-4.6,0-8.333,3.725-8.333,8.333v8.333c0,4.608,3.733,8.333,8.333,8.333
		s8.333-3.725,8.333-8.333v-8.333C333.333,374.558,329.6,370.833,325,370.833z"/>
	<path fill="#FFFFFF" d="M350,370.833c-4.6,0-8.333,3.725-8.333,8.333v8.333c0,4.608,3.733,8.333,8.333,8.333
		s8.333-3.725,8.333-8.333v-8.333C358.333,374.558,354.6,370.833,350,370.833z"/>
	<path fill="#FFFFFF" d="M375,370.833c-4.6,0-8.333,3.725-8.333,8.333v8.333c0,4.608,3.733,8.333,8.333,8.333
		s8.333-3.725,8.333-8.333v-8.333C383.333,374.558,379.6,370.833,375,370.833z"/>
	<path fill="#FFFFFF" d="M400,370.833c-4.6,0-8.333,3.725-8.333,8.333v8.333c0,4.608,3.733,8.333,8.333,8.333
		s8.333-3.725,8.333-8.333v-8.333C408.333,374.558,404.6,370.833,400,370.833z"/>
	<path fill="#FFFFFF" d="M433.333,379.167c0-4.608-3.733-8.333-8.333-8.333s-8.333,3.725-8.333,8.333v8.333
		c0,4.608,3.733,8.333,8.333,8.333s8.333-3.725,8.333-8.333V379.167z"/>
	<path fill="#FFFFFF" d="M66.667,445.833h-50v-41.667c0-4.608-3.733-8.333-8.333-8.333S0,399.558,0,404.167V462.5h66.667
		c4.6,0,8.333-3.725,8.333-8.333C75,449.558,71.267,445.833,66.667,445.833z"/>
	<path fill="#FFFFFF" d="M491.667,395.833c-4.6,0-8.333,3.725-8.333,8.333v41.667h-41.667c-4.6,0-8.333,3.725-8.333,8.333
		c0,4.608,3.733,8.333,8.333,8.333H500v-58.333C500,399.558,496.267,395.833,491.667,395.833z"/>
	<path fill="#FFFFFF" d="M433.333,37.5c-4.6,0-8.333,3.725-8.333,8.333s3.733,8.333,8.333,8.333h50v41.667
		c0,4.608,3.733,8.333,8.333,8.333c4.6,0,8.333-3.725,8.333-8.333V37.5H433.333z"/>
	<path fill="#FFFFFF" d="M8.333,104.167c4.6,0,8.333-3.725,8.333-8.333V54.167h41.667c4.6,0,8.333-3.725,8.333-8.333
		S62.933,37.5,58.333,37.5H0v58.333C0,100.442,3.733,104.167,8.333,104.167z"/>
	<path fill="#FFFFFF" d="M491.667,229.167H8.333c-4.6,0-8.333,3.725-8.333,8.333c0,4.608,3.733,8.333,8.333,8.333h483.333
		c4.6,0,8.333-3.725,8.333-8.333C500,232.892,496.267,229.167,491.667,229.167z"/>
</g>
</svg>
