<?xml version="1.0" encoding="utf-8"?>
<!-- Generator: Adobe Illustrator 17.0.2, SVG Export Plug-In . SVG Version: 6.00 Build 0)  -->
<!DOCTYPE svg PUBLIC "-//W3C//DTD SVG 1.1//EN" "http://www.w3.org/Graphics/SVG/1.1/DTD/svg11.dtd">
<svg version="1.1" id="Livello_1" xmlns="http://www.w3.org/2000/svg" xmlns:xlink="http://www.w3.org/1999/xlink" x="0px" y="0px"
	 width="101.415px" height="17.46px" viewBox="0 0 101.415 17.46" enable-background="new 0 0 101.415 17.46" xml:space="preserve">
<g>
	<linearGradient id="SVGID_1_" gradientUnits="userSpaceOnUse" x1="-4.618653e-05" y1="8.1755" x2="101.4149" y2="8.1755">
		<stop  offset="0" style="stop-color:#88D1F5"/>
		<stop  offset="1" style="stop-color:#BC87BB"/>
	</linearGradient>
	<line fill="url(#SVGID_1_)" x1="0" y1="8.175" x2="101.415" y2="8.175"/>
	<linearGradient id="SVGID_2_" gradientUnits="userSpaceOnUse" x1="-1.124196e-04" y1="8.1755" x2="101.4149" y2="8.1755">
		<stop  offset="0" style="stop-color:#88D1F5"/>
		<stop  offset="1" style="stop-color:#BC87BB"/>
	</linearGradient>
	<path fill="url(#SVGID_2_)" d="M0,7.376c0,0,1.585-0.226,4.358-0.621c1.387-0.199,3.07-0.421,5.001-0.663
		c1.931-0.239,4.11-0.542,6.487-0.812c2.377-0.276,4.952-0.575,7.676-0.892c2.723-0.298,5.595-0.613,8.567-0.939
		c2.971-0.295,6.041-0.616,9.161-0.882c3.12-0.292,6.289-0.527,9.458-0.792c3.169-0.254,6.338-0.675,9.458-1.106
		c3.12-0.425,6.19-0.794,9.161-0.829c2.971-0.039,5.843,0.194,8.567,0.558c1.362,0.169,2.686,0.409,3.968,0.606
		c1.281,0.254,2.519,0.462,3.708,0.748c4.754,1.047,8.716,2.395,11.489,3.544c1.386,0.587,2.476,1.086,3.219,1.471
		c0.743,0.373,1.139,0.609,1.139,0.609v1.6c0,0-0.396,0.235-1.139,0.608c-0.743,0.385-1.832,0.884-3.219,1.471
		c-2.773,1.149-6.735,2.497-11.489,3.544c-1.188,0.286-2.426,0.494-3.708,0.748c-1.281,0.197-2.606,0.438-3.968,0.606
		c-2.724,0.364-5.596,0.597-8.567,0.558c-2.971-0.036-6.041-0.404-9.161-0.83c-3.12-0.431-6.289-0.852-9.458-1.105
		c-3.169-0.265-6.338-0.5-9.458-0.792c-3.12-0.266-6.19-0.586-9.161-0.882c-2.971-0.326-5.843-0.641-8.567-0.939
		c-2.724-0.316-5.299-0.615-7.676-0.892c-2.377-0.271-4.556-0.573-6.487-0.812c-1.931-0.242-3.615-0.464-5.001-0.663
		C1.585,9.201,0,8.976,0,8.976V7.376z"/>
</g>
</svg>
