<?xml version="1.0" encoding="utf-8"?>
<!-- Generator: Adobe Illustrator 17.0.2, SVG Export Plug-In . SVG Version: 6.00 Build 0)  -->
<!DOCTYPE svg PUBLIC "-//W3C//DTD SVG 1.1//EN" "http://www.w3.org/Graphics/SVG/1.1/DTD/svg11.dtd">
<svg version="1.1" id="Livello_1" xmlns="http://www.w3.org/2000/svg" xmlns:xlink="http://www.w3.org/1999/xlink" x="0px" y="0px"
	 width="500px" height="402.243px" viewBox="0 0 500 402.243" enable-background="new 0 0 500 402.243" xml:space="preserve">
<linearGradient id="SVGID_1_" gradientUnits="userSpaceOnUse" x1="2.7687" y1="201.1143" x2="500" y2="201.1143">
	<stop  offset="0" style="stop-color:#88D1F5"/>
	<stop  offset="1" style="stop-color:#BC87BB"/>
</linearGradient>
<path fill="url(#SVGID_1_)" d="M5.633,393.342L5.633,393.342c-5.154-9.242-3.166-21.771,4.452-28.06l108.492-89.047
	c6.924-5.701,9.307-16.689,5.586-25.753c-35.734-84.863-7.705-188.622,62.606-231.753s156.277-9.3,192.012,75.563
	c20.665,49.076,20.665,107.114,0,156.19c-3.721,9.065-1.337,20.052,5.586,25.753l108.282,89.047
	c7.671,6.3,9.659,18.914,4.439,28.173c-0.003,0.005-0.005,0.009-0.005,0.009l-0.003,0.005c-5.255,9.206-15.692,11.541-23.332,5.222
	L338.291,287.16c-7.667-6.307-9.647-18.923-4.421-28.177c0.329-0.583,0.683-1.144,1.061-1.683l0,0
	c38.939-55.591,33.169-138.756-12.889-185.755C275.983,24.547,207.079,31.512,168.14,87.103c-34.414,49.13-34.414,121.068,0,170.198
	l0,0c5.991,8.552,5.103,21.347-1.983,28.578c-0.447,0.456-0.914,0.884-1.398,1.282L29.029,398.69
	c-7.656,6.327-18.112,3.965-23.354-5.276C5.661,393.39,5.647,393.366,5.633,393.342z"/>
</svg>
