<?xml version="1.0" encoding="utf-8"?>
<!-- Generator: Adobe Illustrator 17.0.2, SVG Export Plug-In . SVG Version: 6.00 Build 0)  -->
<!DOCTYPE svg PUBLIC "-//W3C//DTD SVG 1.1//EN" "http://www.w3.org/Graphics/SVG/1.1/DTD/svg11.dtd">
<svg version="1.1" id="Livello_1" xmlns="http://www.w3.org/2000/svg" xmlns:xlink="http://www.w3.org/1999/xlink" x="0px" y="0px"
	 width="500px" height="500px" viewBox="0 0 500 500" enable-background="new 0 0 500 500" xml:space="preserve">
<image overflow="visible" width="360" height="722" xlink:href="iphone.png"  transform="matrix(1 0 0 1 70 -111)">
</image>
<g>
	<g>
		<path fill="none" d="M375.337,303.849H125.025c-4.608,0-8.344-3.622-8.344-8.09V158.225c0-4.468,3.735-8.09,8.344-8.09h250.312
			c4.608,0,8.344,3.622,8.344,8.09v137.533C383.681,300.227,379.945,303.849,375.337,303.849z"/>
	</g>
	<g>
		<g>
			<path fill="#5D546A" d="M145.884,283.623c-2.306,0-4.172-1.809-4.172-4.045V174.406c0-2.236,1.866-4.045,4.172-4.045
				c2.306,0,4.172,1.809,4.172,4.045v105.172C150.056,281.814,148.19,283.623,145.884,283.623z"/>
		</g>
	</g>
	<g>
		<g>
			<path fill="#5D546A" d="M162.572,283.623c-2.306,0-4.172-1.809-4.172-4.045V174.406c0-2.236,1.866-4.045,4.172-4.045
				s4.172,1.809,4.172,4.045v105.172C166.744,281.814,164.878,283.623,162.572,283.623z"/>
		</g>
	</g>
	<g>
		<g>
			<path fill="#5D546A" d="M337.79,283.623c-2.306,0-4.172-1.809-4.172-4.045V174.406c0-2.236,1.866-4.045,4.172-4.045
				s4.172,1.809,4.172,4.045v105.172C341.962,281.814,340.096,283.623,337.79,283.623z"/>
		</g>
	</g>
	<g>
		<g>
			<path fill="#5D546A" d="M354.478,283.623c-2.306,0-4.172-1.809-4.172-4.045V174.406c0-2.236,1.866-4.045,4.172-4.045
				s4.172,1.809,4.172,4.045v105.172C358.649,281.814,356.784,283.623,354.478,283.623z"/>
		</g>
	</g>
	<g>
		<g>
			<path fill="#5D546A" d="M179.259,259.353c-2.306,0-4.172-1.809-4.172-4.045v-80.902c0-2.236,1.866-4.045,4.172-4.045
				s4.172,1.809,4.172,4.045v80.902C183.431,257.543,181.565,259.353,179.259,259.353z"/>
		</g>
	</g>
	<g>
		<g>
			<path fill="#5D546A" d="M191.775,259.353c-2.306,0-4.172-1.809-4.172-4.045v-80.902c0-2.236,1.866-4.045,4.172-4.045
				c2.306,0,4.172,1.809,4.172,4.045v80.902C195.947,257.543,194.081,259.353,191.775,259.353z"/>
		</g>
	</g>
	<g>
		<g>
			<path fill="#5D546A" d="M208.462,259.353c-2.306,0-4.172-1.809-4.172-4.045v-80.902c0-2.236,1.866-4.045,4.172-4.045
				c2.306,0,4.172,1.809,4.172,4.045v80.902C212.634,257.543,210.768,259.353,208.462,259.353z"/>
		</g>
	</g>
	<g>
		<g>
			<path fill="#5D546A" d="M225.15,259.353c-2.306,0-4.172-1.809-4.172-4.045v-80.902c0-2.236,1.866-4.045,4.172-4.045
				s4.172,1.809,4.172,4.045v80.902C229.322,257.543,227.456,259.353,225.15,259.353z"/>
		</g>
	</g>
	<g>
		<g>
			<path fill="#5D546A" d="M258.525,259.353c-2.306,0-4.172-1.809-4.172-4.045v-80.902c0-2.236,1.866-4.045,4.172-4.045
				s4.172,1.809,4.172,4.045v80.902C262.697,257.543,260.831,259.353,258.525,259.353z"/>
		</g>
	</g>
	<g>
		<g>
			<path fill="#5D546A" d="M271.04,259.353c-2.306,0-4.172-1.809-4.172-4.045v-80.902c0-2.236,1.866-4.045,4.172-4.045
				s4.172,1.809,4.172,4.045v80.902C275.212,257.543,273.346,259.353,271.04,259.353z"/>
		</g>
	</g>
	<g>
		<g>
			<path fill="#5D546A" d="M287.728,259.353c-2.306,0-4.172-1.809-4.172-4.045v-80.902c0-2.236,1.866-4.045,4.172-4.045
				c2.306,0,4.172,1.809,4.172,4.045v80.902C291.9,257.543,290.034,259.353,287.728,259.353z"/>
		</g>
	</g>
	<g>
		<g>
			<path fill="#5D546A" d="M304.415,259.353c-2.306,0-4.172-1.809-4.172-4.045v-80.902c0-2.236,1.866-4.045,4.172-4.045
				s4.172,1.809,4.172,4.045v80.902C308.587,257.543,306.721,259.353,304.415,259.353z"/>
		</g>
	</g>
	<g>
		<g>
			<path fill="#5D546A" d="M316.931,259.353c-2.306,0-4.172-1.809-4.172-4.045v-80.902c0-2.236,1.866-4.045,4.172-4.045
				s4.172,1.809,4.172,4.045v80.902C321.103,257.543,319.237,259.353,316.931,259.353z"/>
		</g>
	</g>
	<g>
		<g>
			<path fill="#5D546A" d="M246.009,259.353c-2.306,0-4.172-1.809-4.172-4.045v-80.902c0-2.236,1.866-4.045,4.172-4.045
				s4.172,1.809,4.172,4.045v80.902C250.181,257.543,248.315,259.353,246.009,259.353z"/>
		</g>
	</g>
	<g>
		<g>
			<path fill="#888794" d="M179.259,283.623c-2.306,0-4.172-1.809-4.172-4.045v-8.09c0-2.236,1.866-4.045,4.172-4.045
				s4.172,1.809,4.172,4.045v8.09C183.431,281.814,181.565,283.623,179.259,283.623z"/>
		</g>
	</g>
	<g>
		<g>
			<path fill="#888794" d="M191.775,283.623c-2.306,0-4.172-1.809-4.172-4.045v-8.09c0-2.236,1.866-4.045,4.172-4.045
				c2.306,0,4.172,1.809,4.172,4.045v8.09C195.947,281.814,194.081,283.623,191.775,283.623z"/>
		</g>
	</g>
	<g>
		<g>
			<path fill="#888794" d="M208.462,283.623c-2.306,0-4.172-1.809-4.172-4.045v-8.09c0-2.236,1.866-4.045,4.172-4.045
				c2.306,0,4.172,1.809,4.172,4.045v8.09C212.634,281.814,210.768,283.623,208.462,283.623z"/>
		</g>
	</g>
	<g>
		<g>
			<path fill="#888794" d="M225.15,283.623c-2.306,0-4.172-1.809-4.172-4.045v-8.09c0-2.236,1.866-4.045,4.172-4.045
				s4.172,1.809,4.172,4.045v8.09C229.322,281.814,227.456,283.623,225.15,283.623z"/>
		</g>
	</g>
	<g>
		<g>
			<path fill="#888794" d="M258.525,283.623c-2.306,0-4.172-1.809-4.172-4.045v-8.09c0-2.236,1.866-4.045,4.172-4.045
				s4.172,1.809,4.172,4.045v8.09C262.697,281.814,260.831,283.623,258.525,283.623z"/>
		</g>
	</g>
	<g>
		<g>
			<path fill="#888794" d="M271.04,283.623c-2.306,0-4.172-1.809-4.172-4.045v-8.09c0-2.236,1.866-4.045,4.172-4.045
				s4.172,1.809,4.172,4.045v8.09C275.212,281.814,273.346,283.623,271.04,283.623z"/>
		</g>
	</g>
	<g>
		<g>
			<path fill="#888794" d="M287.728,283.623c-2.306,0-4.172-1.809-4.172-4.045v-8.09c0-2.236,1.866-4.045,4.172-4.045
				c2.306,0,4.172,1.809,4.172,4.045v8.09C291.9,281.814,290.034,283.623,287.728,283.623z"/>
		</g>
	</g>
	<g>
		<g>
			<path fill="#888794" d="M304.415,283.623c-2.306,0-4.172-1.809-4.172-4.045v-8.09c0-2.236,1.866-4.045,4.172-4.045
				s4.172,1.809,4.172,4.045v8.09C308.587,281.814,306.721,283.623,304.415,283.623z"/>
		</g>
	</g>
	<g>
		<g>
			<path fill="#888794" d="M316.931,283.623c-2.306,0-4.172-1.809-4.172-4.045v-8.09c0-2.236,1.866-4.045,4.172-4.045
				s4.172,1.809,4.172,4.045v8.09C321.103,281.814,319.237,283.623,316.931,283.623z"/>
		</g>
	</g>
	<g>
		<g>
			<path fill="#888794" d="M246.009,283.623c-2.306,0-4.172-1.809-4.172-4.045v-8.09c0-2.236,1.866-4.045,4.172-4.045
				s4.172,1.809,4.172,4.045v8.09C250.181,281.814,248.315,283.623,246.009,283.623z"/>
		</g>
	</g>
</g>
<ellipse fill="none" stroke="#AFAFAF" stroke-miterlimit="10" cx="249.842" cy="231.811" rx="143.053" ry="138.66"/>
<text transform="matrix(1 0 0 1 161.655 318.0352)" fill="#1D1D1B" font-family="'OpenSans-Light'" font-size="36">codice isbn</text>
<path fill="#3A3A3A" d="M405.811-58.982c-1.059-27.542-26.695-29.237-26.695-29.237h-40.254c0.424,22.246-15.89,23.729-15.89,23.729
	l-147.726-0.093c-16.419-7.36-13.592-23.522-13.592-23.522h-43.25c-22.916,3.901-23.647,29.123-23.647,29.123v35.577h311.053
	V-58.982z"/>
<path fill="#3A3A3A" d="M92.733,459.776h314.268v81.364c0,0,5.479,45.129-28.389,47.313s-258.487,0-258.487,0
	s-19.922-0.728-27.393-34.939"/>
<path fill="none" stroke="#FFFFFF" stroke-miterlimit="10" d="M304.527,555.054c0,6.627-5.373,12-12,12h-74.116
	c-6.627,0-12-5.373-12-12v-22.636c0-6.627,5.373-12,12-12h74.116c6.627,0,12,5.373,12,12V555.054z"/>
<ellipse fill="none" stroke="#FFFFFF" stroke-miterlimit="10" cx="255.469" cy="543.736" rx="14.602" ry="14.596"/>
</svg>
